<?xml version="1.0" encoding="utf-8"?>
<!-- Generator: Adobe Illustrator 20.1.0, SVG Export Plug-In . SVG Version: 6.00 Build 0)  -->
<svg version="1.1" id="Слой_1" xmlns="http://www.w3.org/2000/svg" xmlns:xlink="http://www.w3.org/1999/xlink" x="0px" y="0px"
	 width="162px" height="43px" viewBox="0 0 162 43" enable-background="new 0 0 162 43" xml:space="preserve">
<path d="M10.2,9.9l1.9,4.1H14L7.5,0h-1L0.6,14h0.9l1.8-4.1H10.2z M9.8,9H3.7l2.9-6.7h0.1L9.8,9z"/>
<path d="M17.9,9.2H23V14h1.7V4H23v4.5h-5.1V4h-1.7v10h1.7V9.2z"/>
<path d="M30.7,14h1.7V4.8h4V4h-9.7v0.8h4V14z"/>
<path d="M38.4,19h1.7v-6.6h0.1c0.1,0.3,0.3,0.6,0.5,0.9c0.2,0.2,0.5,0.4,0.8,0.6c0.3,0.1,0.6,0.3,0.9,0.3c0.3,0.1,0.6,0.1,1,0.1
	c0.7,0,1.3-0.1,1.8-0.4c0.6-0.3,1-0.6,1.4-1.1c0.4-0.5,0.7-1,1-1.6c0.2-0.7,0.3-1.4,0.3-2.2c0-0.8-0.1-1.5-0.3-2.2s-0.5-1.2-1-1.6
	c-0.4-0.5-0.9-0.8-1.4-1.1c-0.6-0.3-1.2-0.4-1.8-0.4c-1.6,0-2.6,0.6-3.1,1.8h-0.1V4h-1.7V19z M40.1,8c0-0.4,0.1-0.9,0.2-1.2
	c0.1-0.4,0.3-0.7,0.6-1c0.3-0.3,0.5-0.5,0.9-0.7c0.3-0.2,0.7-0.3,1.1-0.3c0.4,0,0.8,0.1,1.2,0.2c0.4,0.1,0.7,0.4,1,0.7
	c0.3,0.3,0.5,0.8,0.7,1.3C45.9,7.6,46,8.2,46,9c0,0.8-0.1,1.4-0.3,1.9c-0.2,0.5-0.4,1-0.7,1.3c-0.3,0.3-0.6,0.6-1,0.7
	c-0.4,0.1-0.8,0.2-1.2,0.2c-0.4,0-0.7-0.1-1.1-0.2c-0.3-0.2-0.6-0.4-0.9-0.7c-0.3-0.3-0.5-0.7-0.6-1.1c-0.1-0.4-0.2-0.9-0.2-1.5V8z"
	/>
<path d="M59.4,9.4V9c0-0.9-0.1-1.7-0.4-2.3c-0.3-0.7-0.6-1.2-1-1.6c-0.4-0.4-0.9-0.7-1.5-1c-0.6-0.2-1.2-0.3-1.8-0.3
	c-0.7,0-1.3,0.1-1.9,0.4c-0.6,0.2-1.1,0.6-1.5,1c-0.4,0.4-0.8,1-1,1.6c-0.2,0.6-0.4,1.3-0.4,2.1c0,0.7,0.1,1.3,0.3,2
	c0.2,0.6,0.5,1.2,0.9,1.7c0.4,0.5,1,0.9,1.6,1.2c0.7,0.3,1.4,0.4,2.3,0.4c0.9,0,1.6-0.1,2.4-0.4c0.7-0.3,1.3-0.7,1.9-1.3l-0.6-0.6
	c-0.3,0.2-0.5,0.5-0.8,0.7c-0.2,0.2-0.5,0.4-0.7,0.5c-0.3,0.1-0.5,0.2-0.8,0.3c-0.3,0.1-0.6,0.1-0.9,0.1c-0.4,0-0.8-0.1-1.2-0.2
	c-0.4-0.1-0.8-0.3-1.2-0.6c-0.4-0.3-0.7-0.7-0.9-1.2c-0.2-0.5-0.4-1.2-0.4-2H59.4z M51.8,8.6c0-0.5,0.1-1,0.2-1.5
	c0.1-0.5,0.3-1,0.5-1.3c0.2-0.4,0.5-0.7,0.9-0.9c0.4-0.2,0.8-0.4,1.3-0.4c0.9,0,1.7,0.4,2.2,1.1c0.5,0.7,0.8,1.7,0.8,3H51.8z"/>
<path d="M63.7,4.8h4.7V14H70V4H62v10h1.7V4.8z"/>
<path d="M73.2,19h1.7v-6.6H75c0.1,0.3,0.3,0.6,0.5,0.9c0.2,0.2,0.5,0.4,0.8,0.6s0.6,0.3,0.9,0.3c0.3,0.1,0.6,0.1,1,0.1
	c0.7,0,1.3-0.1,1.8-0.4c0.6-0.3,1-0.6,1.4-1.1c0.4-0.5,0.7-1,1-1.6c0.2-0.7,0.3-1.4,0.3-2.2c0-0.8-0.1-1.5-0.3-2.2s-0.5-1.2-1-1.6
	C81,4.8,80.5,4.4,80,4.2c-0.6-0.3-1.2-0.4-1.8-0.4c-1.6,0-2.6,0.6-3.1,1.8h-0.1V4h-1.7V19z M74.9,8c0-0.4,0.1-0.9,0.2-1.2
	c0.1-0.4,0.3-0.7,0.6-1c0.3-0.3,0.5-0.5,0.9-0.7c0.3-0.2,0.7-0.3,1.1-0.3c0.4,0,0.8,0.1,1.2,0.2c0.4,0.1,0.7,0.4,1,0.7
	c0.3,0.3,0.5,0.8,0.7,1.3c0.2,0.5,0.3,1.2,0.3,1.9c0,0.8-0.1,1.4-0.3,1.9c-0.2,0.5-0.4,1-0.7,1.3c-0.3,0.3-0.6,0.6-1,0.7
	c-0.4,0.1-0.8,0.2-1.2,0.2c-0.4,0-0.7-0.1-1.1-0.2c-0.3-0.2-0.6-0.4-0.9-0.7c-0.3-0.3-0.5-0.7-0.6-1.1c-0.1-0.4-0.2-0.9-0.2-1.5V8z"
	/>
<path d="M87,12.8V4h-1.7v10h2l5.1-8.8V14h1.7V4h-2L87,12.8z"/>
<path d="M100.4,4.6c0.8,0,1.4,0.2,1.8,0.5c0.4,0.4,0.6,0.8,0.6,1.4c0,0.4-0.1,0.7-0.2,0.9c-0.1,0.3-0.3,0.5-0.6,0.6
	c-0.2,0.2-0.5,0.3-0.8,0.4s-0.6,0.1-0.9,0.1h-0.7v0.7h0.7c0.2,0,0.5,0,0.8,0.1c0.3,0,0.7,0.1,1,0.2c0.3,0.1,0.6,0.3,0.8,0.6
	c0.2,0.3,0.3,0.6,0.3,1.1c0,0.7-0.3,1.3-0.8,1.7c-0.5,0.4-1.1,0.6-1.9,0.6c-0.4,0-0.7,0-1.1-0.1c-0.3-0.1-0.6-0.2-0.9-0.4
	c-0.3-0.2-0.5-0.4-0.7-0.7c-0.2-0.3-0.4-0.6-0.5-1l-0.9,0.8c0.2,0.4,0.4,0.7,0.6,0.9s0.5,0.5,0.8,0.7c0.3,0.2,0.7,0.3,1.1,0.4
	c0.4,0.1,0.9,0.1,1.5,0.1c0.9,0,1.7-0.1,2.3-0.3c0.6-0.2,1.1-0.4,1.4-0.7c0.4-0.3,0.6-0.6,0.8-0.9c0.1-0.3,0.2-0.7,0.2-1
	c0-0.3-0.1-0.6-0.2-0.9c-0.1-0.3-0.3-0.6-0.6-0.8c-0.2-0.2-0.5-0.4-0.9-0.6c-0.4-0.2-0.8-0.2-1.3-0.2V8.7c0.6-0.1,1-0.2,1.3-0.4
	s0.5-0.4,0.7-0.7c0.1-0.3,0.2-0.5,0.3-0.7c0-0.2,0.1-0.4,0.1-0.5c0-0.3-0.1-0.6-0.2-0.9c-0.1-0.3-0.3-0.6-0.6-0.9
	c-0.3-0.3-0.7-0.5-1.1-0.6c-0.5-0.2-1-0.3-1.7-0.3c-0.7,0-1.3,0.1-1.8,0.3c-0.5,0.2-0.9,0.4-1.2,0.7c-0.3,0.3-0.5,0.6-0.6,1
	c-0.1,0.3-0.2,0.7-0.2,1H98c0.1-0.4,0.2-0.8,0.3-1.1c0.1-0.3,0.3-0.5,0.5-0.7c0.2-0.2,0.5-0.3,0.7-0.3C99.8,4.6,100.1,4.6,100.4,4.6
	z"/>
<path d="M107.6,4v10h5.3c0.4,0,0.7-0.1,1.1-0.2c0.4-0.1,0.7-0.3,0.9-0.5c0.3-0.2,0.5-0.5,0.6-0.8c0.2-0.3,0.3-0.7,0.3-1.1
	c0-0.7-0.2-1.2-0.5-1.6c-0.3-0.4-0.7-0.6-1.1-0.8c-0.4-0.2-0.9-0.3-1.3-0.3c-0.5,0-0.9-0.1-1.2-0.1h-2.4V4H107.6z M117.9,4v10h1.7V4
	H117.9z M109.3,13.2v-4h2.3c0.1,0,0.3,0,0.6,0c0.3,0,0.5,0.1,0.8,0.3c0.3,0.1,0.5,0.3,0.7,0.6c0.2,0.3,0.3,0.7,0.3,1.2
	c0,0.6-0.2,1.1-0.6,1.4c-0.4,0.3-0.8,0.5-1.4,0.5H109.3z"/>
<path d="M3.3,35.8V27H1.6v10h2l5.1-8.8V37h1.7V27h-2L3.3,35.8z"/>
<path d="M29.4,36.2L25.6,27h-1.2l-3.7,9.2h-1.4v2.9h1.4V37h8.8v2.1h1.4v-2.9H29.4z M24.5,29h0.1l3,7.2h-6L24.5,29z"/>
<path d="M32.6,42h1.7v-6.6h0.1c0.1,0.3,0.3,0.6,0.5,0.9c0.2,0.2,0.5,0.4,0.8,0.6c0.3,0.1,0.6,0.3,0.9,0.3c0.3,0.1,0.6,0.1,1,0.1
	c0.7,0,1.3-0.1,1.8-0.4c0.6-0.3,1-0.6,1.4-1.1c0.4-0.5,0.7-1,1-1.6c0.2-0.7,0.3-1.4,0.3-2.2c0-0.8-0.1-1.5-0.3-2.2
	c-0.2-0.6-0.5-1.2-1-1.6c-0.4-0.5-0.9-0.8-1.4-1.1c-0.6-0.3-1.2-0.4-1.8-0.4c-1.6,0-2.6,0.6-3.1,1.8h-0.1V27h-1.7V42z M34.3,31
	c0-0.4,0.1-0.9,0.2-1.2c0.1-0.4,0.3-0.7,0.6-1c0.3-0.3,0.5-0.5,0.9-0.7c0.3-0.2,0.7-0.3,1.1-0.3c0.4,0,0.8,0.1,1.2,0.2
	c0.4,0.1,0.7,0.4,1,0.7c0.3,0.3,0.5,0.8,0.7,1.3c0.2,0.5,0.3,1.2,0.3,1.9c0,0.8-0.1,1.4-0.3,1.9c-0.2,0.5-0.4,1-0.7,1.3
	c-0.3,0.3-0.6,0.6-1,0.7c-0.4,0.1-0.8,0.2-1.2,0.2c-0.4,0-0.7-0.1-1.1-0.2c-0.3-0.2-0.6-0.4-0.9-0.7c-0.3-0.3-0.5-0.7-0.6-1.1
	c-0.1-0.4-0.2-0.9-0.2-1.5V31z"/>
<path d="M48.7,34.7L45.3,27h-1.8l4.5,9.9l-1.1,2.6c-0.1,0.3-0.3,0.6-0.5,0.7c-0.2,0.2-0.4,0.3-0.7,0.3c-0.2,0-0.5-0.1-0.7-0.2
	c-0.2-0.1-0.4-0.3-0.5-0.6l-0.9,1.7c0.3,0.2,0.5,0.4,0.8,0.5c0.3,0.1,0.6,0.2,0.9,0.2c0.4,0,0.7-0.1,1-0.3c0.3-0.2,0.5-0.4,0.7-0.7
	c0.2-0.3,0.4-0.6,0.6-1c0.2-0.4,0.3-0.7,0.5-1.1L52.9,27h-1L48.7,34.7L48.7,34.7z"/>
<path d="M61.5,27.8V27h-6.6v10h1.7v-9.2H61.5z"/>
<path d="M65,35.8V27h-1.7v10h2l5.1-8.8V37h1.7V27h-2L65,35.8z"/>
<path d="M84.2,32.4V32c0-0.9-0.1-1.7-0.4-2.3c-0.3-0.7-0.6-1.2-1-1.6c-0.4-0.4-0.9-0.7-1.5-1c-0.6-0.2-1.2-0.3-1.8-0.3
	c-0.7,0-1.3,0.1-1.9,0.4c-0.6,0.2-1.1,0.6-1.5,1c-0.4,0.4-0.8,1-1,1.6c-0.2,0.6-0.4,1.3-0.4,2.1c0,0.7,0.1,1.3,0.3,2
	c0.2,0.6,0.5,1.2,0.9,1.7c0.4,0.5,1,0.9,1.6,1.2c0.7,0.3,1.4,0.4,2.3,0.4c0.9,0,1.6-0.1,2.4-0.4c0.7-0.3,1.3-0.7,1.9-1.3l-0.6-0.6
	c-0.3,0.2-0.5,0.5-0.8,0.7c-0.2,0.2-0.5,0.4-0.7,0.5c-0.3,0.1-0.5,0.2-0.8,0.3c-0.3,0.1-0.6,0.1-0.9,0.1c-0.4,0-0.8-0.1-1.2-0.2
	c-0.4-0.1-0.8-0.3-1.2-0.6c-0.4-0.3-0.7-0.7-0.9-1.2c-0.2-0.5-0.4-1.2-0.4-2H84.2z M76.6,31.6c0-0.5,0.1-1,0.2-1.5
	c0.1-0.5,0.3-1,0.5-1.3c0.2-0.4,0.5-0.7,0.9-0.9c0.4-0.2,0.8-0.4,1.3-0.4c0.9,0,1.7,0.4,2.2,1.1c0.5,0.7,0.8,1.7,0.8,3H76.6z"/>
<path d="M96.5,37h1.7v-9.2h4V27h-9.7v0.8h4V37z"/>
<path d="M113.1,32.4V32c0-0.9-0.1-1.7-0.4-2.3c-0.3-0.7-0.6-1.2-1-1.6c-0.4-0.4-0.9-0.7-1.5-1c-0.6-0.2-1.2-0.3-1.8-0.3
	c-0.7,0-1.3,0.1-1.9,0.4c-0.6,0.2-1.1,0.6-1.5,1c-0.4,0.4-0.8,1-1,1.6c-0.2,0.6-0.4,1.3-0.4,2.1c0,0.7,0.1,1.3,0.3,2
	c0.2,0.6,0.5,1.2,0.9,1.7c0.4,0.5,1,0.9,1.6,1.2c0.7,0.3,1.4,0.4,2.3,0.4c0.9,0,1.6-0.1,2.4-0.4c0.7-0.3,1.3-0.7,1.9-1.3l-0.6-0.6
	c-0.3,0.2-0.5,0.5-0.8,0.7c-0.2,0.2-0.5,0.4-0.7,0.5c-0.3,0.1-0.5,0.2-0.8,0.3c-0.3,0.1-0.6,0.1-0.9,0.1c-0.4,0-0.8-0.1-1.2-0.2
	c-0.4-0.1-0.8-0.3-1.2-0.6c-0.4-0.3-0.7-0.7-0.9-1.2c-0.2-0.5-0.4-1.2-0.4-2H113.1z M105.5,31.6c0-0.5,0.1-1,0.2-1.5
	c0.1-0.5,0.3-1,0.5-1.3c0.2-0.4,0.5-0.7,0.9-0.9c0.4-0.2,0.8-0.4,1.3-0.4c0.9,0,1.7,0.4,2.2,1.1c0.5,0.7,0.8,1.7,0.8,3H105.5z"/>
<path d="M119.4,26.8c1,0,1.7,0.1,2.3,0.4c0.5,0.3,0.9,0.6,1.2,1.1c0.3,0.4,0.4,0.9,0.4,1.5c0,0.6,0.1,1.2,0.1,1.8V37h-1.6v-1
	c-0.4,0.4-0.9,0.7-1.5,0.9c-0.6,0.2-1.2,0.3-1.8,0.3c-0.6,0-1.1-0.1-1.5-0.3c-0.4-0.2-0.8-0.5-1.1-0.8c-0.3-0.3-0.5-0.7-0.7-1.1
	c-0.1-0.4-0.2-0.8-0.2-1.2c0-0.4,0.1-0.9,0.2-1.3c0.2-0.4,0.4-0.8,0.7-1.1c0.3-0.3,0.7-0.6,1.2-0.8c0.5-0.2,1-0.3,1.6-0.3
	s1.2,0.1,1.7,0.4c0.5,0.2,1,0.6,1.3,1v-0.9c0-1.1-0.2-1.9-0.5-2.4c-0.3-0.5-0.9-0.8-1.8-0.8c-0.4,0-0.7,0-1,0.1
	c-0.3,0.1-0.5,0.2-0.8,0.4c-0.2,0.2-0.4,0.4-0.6,0.6c-0.2,0.2-0.4,0.5-0.6,0.8l-1-1c0.2-0.2,0.4-0.4,0.6-0.6
	c0.2-0.2,0.5-0.4,0.8-0.5c0.3-0.2,0.7-0.3,1.1-0.4C118.3,26.8,118.8,26.8,119.4,26.8z M121.7,33c-0.1-0.2-0.2-0.3-0.3-0.6
	c-0.1-0.2-0.3-0.4-0.5-0.6c-0.2-0.2-0.4-0.4-0.7-0.5c-0.3-0.1-0.6-0.2-1-0.2c-0.4,0-0.7,0.1-1.1,0.2c-0.3,0.1-0.6,0.3-0.8,0.6
	c-0.2,0.2-0.4,0.5-0.5,0.9c-0.1,0.3-0.2,0.7-0.2,1c0,0.4,0.1,0.8,0.2,1.1c0.2,0.3,0.4,0.6,0.6,0.8c0.2,0.2,0.5,0.4,0.8,0.5
	c0.3,0.1,0.6,0.2,0.8,0.2c0.3,0,0.5,0,0.8-0.1c0.3-0.1,0.5-0.2,0.7-0.4c0.2-0.2,0.5-0.4,0.6-0.6c0.2-0.2,0.3-0.5,0.5-0.7V33z"/>
<path d="M129.3,37h1.7v-9.2h4V27h-9.7v0.8h4V37z"/>
<path d="M137,42h1.7v-6.6h0.1c0.1,0.3,0.3,0.6,0.5,0.9c0.2,0.2,0.5,0.4,0.8,0.6c0.3,0.1,0.6,0.3,0.9,0.3c0.3,0.1,0.6,0.1,1,0.1
	c0.7,0,1.3-0.1,1.8-0.4c0.6-0.3,1-0.6,1.4-1.1c0.4-0.5,0.7-1,1-1.6c0.2-0.7,0.3-1.4,0.3-2.2c0-0.8-0.1-1.5-0.3-2.2
	c-0.2-0.6-0.5-1.2-1-1.6c-0.4-0.5-0.9-0.8-1.4-1.1c-0.6-0.3-1.2-0.4-1.8-0.4c-1.6,0-2.6,0.6-3.1,1.8h-0.1V27H137V42z M138.7,31
	c0-0.4,0.1-0.9,0.2-1.2c0.1-0.4,0.3-0.7,0.6-1c0.3-0.3,0.5-0.5,0.9-0.7c0.3-0.2,0.7-0.3,1.1-0.3c0.4,0,0.8,0.1,1.2,0.2
	c0.4,0.1,0.7,0.4,1,0.7c0.3,0.3,0.5,0.8,0.7,1.3c0.2,0.5,0.3,1.2,0.3,1.9c0,0.8-0.1,1.4-0.3,1.9c-0.2,0.5-0.4,1-0.7,1.3
	c-0.3,0.3-0.6,0.6-1,0.7c-0.4,0.1-0.8,0.2-1.2,0.2c-0.4,0-0.7-0.1-1.1-0.2c-0.3-0.2-0.6-0.4-0.9-0.7c-0.3-0.3-0.5-0.7-0.6-1.1
	c-0.1-0.4-0.2-0.9-0.2-1.5V31z"/>
<path d="M149.1,27v10h5.3c0.4,0,0.7-0.1,1.1-0.2c0.4-0.1,0.7-0.3,0.9-0.5c0.3-0.2,0.5-0.5,0.6-0.8c0.2-0.3,0.3-0.7,0.3-1.1
	c0-0.7-0.2-1.2-0.5-1.6c-0.3-0.4-0.7-0.6-1.1-0.8c-0.4-0.2-0.9-0.3-1.3-0.3c-0.5,0-0.9-0.1-1.2-0.1h-2.4V27H149.1z M159.4,27v10h1.7
	V27H159.4z M150.8,36.2v-4h2.3c0.1,0,0.3,0,0.6,0c0.3,0,0.5,0.1,0.8,0.3c0.3,0.1,0.5,0.3,0.7,0.6c0.2,0.3,0.3,0.7,0.3,1.2
	c0,0.6-0.2,1.1-0.6,1.4c-0.4,0.3-0.8,0.5-1.4,0.5H150.8z"/>
</svg>
