<?xml version="1.0" encoding="utf-8"?>
<!-- Generator: Adobe Illustrator 20.1.0, SVG Export Plug-In . SVG Version: 6.00 Build 0)  -->
<svg version="1.1" id="Слой_1" xmlns="http://www.w3.org/2000/svg" xmlns:xlink="http://www.w3.org/1999/xlink" x="0px" y="0px"
	 width="190px" height="42px" viewBox="0 0 190 42" enable-background="new 0 0 190 42" xml:space="preserve">
<g>
	<defs>
		<rect id="SVGID_1_" width="190" height="42"/>
	</defs>
	<clipPath id="SVGID_2_">
		<use xlink:href="#SVGID_1_"  overflow="visible"/>
	</clipPath>
	<g clip-path="url(#SVGID_2_)">
		<path fill="#FFFFFF" d="M122.5,19.1c0,0.2,0,0.3,0,0.5c-3.7,0-7.3,0-11,0c0-0.2,0-0.3,0-0.4c0.5-0.1,1.1-0.1,1.6-0.2
			c1.3-0.3,1.9-0.9,1.9-2.2c0-1.7,0-3.5,0-5.2c0-2.5,0-5,0-7.5c0-0.3,0-0.5,0-0.8c-0.1-1.1-0.6-1.7-1.7-2c-0.6-0.1-1.1-0.2-1.8-0.3
			c0-0.1,0-0.3,0-0.4c3.7,0,7.3,0,11,0c0.2,0.4,0,0.5-0.4,0.5c-0.5,0-1.1,0.1-1.6,0.3c-0.9,0.2-1.4,0.9-1.5,1.8
			c0,0.4-0.1,0.7-0.1,1.1c0,2.8,0,5.6,0,8.4c0,0.1,0,0.2,0,0.4c0.2-0.2,0.3-0.3,0.4-0.4c3-3,6.1-5.9,9.1-8.9
			c0.3-0.2,0.3-0.5,0.3-0.8c-0.2-0.9-0.8-1.5-1.7-1.7c-0.4-0.1-0.9-0.2-1.4-0.2c-0.3,0-0.5-0.1-0.4-0.5c7.6,0,15.2,0,22.8,0
			c0.2,0.4,0,0.5-0.4,0.5c-0.7,0.1-1.5,0.2-2.2,0.4c-0.9,0.3-1.2,0.8-1,1.7c0.1,0.5,0.3,0.9,0.4,1.3c1.4,3.2,2.7,6.4,4.1,9.6
			c0,0.1,0.1,0.2,0.1,0.3c0.1-0.1,0.1-0.1,0.1-0.1c1.1-2.7,2.2-5.4,3.3-8.1c0.3-0.7,0.4-1.4,0.6-2.2c0.3-1.3-0.4-2.2-1.7-2.6
			c-0.5-0.1-1-0.2-1.6-0.3c-0.4-0.1-0.4-0.1-0.4-0.5c0.2,0,0.4,0,0.6,0c5.8,0,11.6,0,17.4,0c0.4,0,0.6,0.1,0.8,0.5
			c2.1,4.3,4.2,8.6,6.2,12.8c0.1,0.1,0.1,0.2,0.2,0.5c0.1-0.2,0.2-0.3,0.3-0.5c2.1-4.3,4.2-8.5,6.3-12.8c0.2-0.4,0.4-0.5,0.9-0.5
			c2.4,0,4.7,0,7.1,0c0.2,0,0.3,0,0.5,0c0,0.2,0,0.3,0,0.5c-0.5,0.1-0.9,0.1-1.4,0.2c-1.4,0.3-2,0.9-2.1,2.4c0,1.1,0,2.2,0,3.3
			c0,3.1,0,6.3,0,9.4c0,0.2,0,0.4,0,0.7c0.1,1.1,0.7,1.8,1.8,2.1c0.5,0.1,1.1,0.2,1.7,0.3c0,0.1,0,0.3,0,0.4c-3.7,0-7.3,0-11,0
			c0-0.2,0-0.3,0-0.4c0.5-0.1,1.1-0.1,1.6-0.2c1.2-0.3,1.7-0.9,1.9-2c0-0.3,0.1-0.6,0.1-0.9c0-3.6,0-7.3,0-10.9c0-0.1,0-0.2-0.1-0.4
			c-0.1,0.1-0.2,0.3-0.2,0.4c-2.2,4.7-4.6,9.4-6.8,14.1c-0.2,0.4-0.4,0.4-0.8,0.5c-0.9,0.1-1.4-0.2-1.7-1.1c-2.2-4.5-4.4-9-6.6-13.6
			c-0.1-0.1-0.1-0.2-0.3-0.3c0,0.2,0,0.3,0,0.4c0,3.5,0,7.1,0,10.6c0,0.4,0,0.8,0,1.2c0.1,1.1,0.7,1.8,1.8,2
			c0.5,0.1,1.1,0.2,1.7,0.3c0,0.1,0,0.3,0,0.4c-3.1,0-6.1,0-9.2,0c0-0.2,0-0.3,0-0.4c0.5-0.1,1.1-0.1,1.6-0.2c1.2-0.3,1.7-0.8,1.9-2
			c0-0.3,0.1-0.5,0.1-0.8c0-4.1,0-8.1,0-12.2c0-0.3,0-0.6-0.1-0.9c-0.1-0.8-0.6-1.4-1.5-1.7c-2.3-0.8-4.5,0-5.5,2.1
			c-0.9,1.7-1.6,3.6-2.4,5.3c-1.5,3.5-2.9,6.9-4.5,10.4c-0.6,1.5-1.4,2.8-2.5,4c-1.7,1.7-3.8,2.2-6.1,1.6c-1.8-0.5-2.6-2.5-1.7-4.1
			c0.7-1.2,2.7-1.6,3.8-0.8c0.8,0.5,0.9,1.4,0.3,2c-0.1-0.1-0.1-0.2-0.2-0.3c-0.3-0.5-1.1-0.8-1.6-0.5c-0.5,0.3-0.7,1-0.4,1.6
			c0.3,0.5,0.7,0.7,1.2,0.7c1.3,0.1,2.3-0.3,3-1.3c0.6-0.8,1-1.7,1.5-2.6c0.1-0.1,0-0.4,0-0.5c-2.2-5-4.5-10-6.6-15.1
			c-1-2.4-4.1-3.1-6-2.4c-0.9,0.3-1.3,1-1.4,1.9c0,0.3,0,0.6,0,0.8c0,4,0,8,0,12c0,2.1,0.7,2.8,2.8,3c0.2,0,0.4,0,0.7,0.1
			c0,0.2,0,0.3,0,0.5c-3.6,0-7.3,0-11,0c0-0.2,0-0.3,0-0.4c0.6-0.1,1.1-0.2,1.7-0.3c1.1-0.2,1.7-0.8,1.8-2c0-0.3,0.1-0.6,0.1-0.9
			c0-3,0-6,0-9c0-0.1,0-0.2,0-0.4c-0.2,0.2-0.3,0.2-0.4,0.4c-3.1,3-6.1,6-9.2,9c-0.2,0.2-0.3,0.5-0.3,0.7c0.1,1.4,0.7,2,2.2,2.2
			C121.6,19,122.1,19,122.5,19.1z"/>
		<path fill="#FFFFFF" d="M86.5,0.4c2.3,0,4.7,0,7,0c0,1.2,0,2.4,0,3.5c0,0,0.1,0,0.1,0c0.1-0.2,0.3-0.4,0.4-0.5
			c1.1-1.6,2.6-2.9,4.6-3.2c3.6-0.7,7.7,0.3,9.5,4.9c1.4,3.5,1.4,7.1-0.3,10.5c-2.1,4.2-6.7,5.1-10.3,3.8c-1.4-0.5-2.4-1.5-3.2-2.6
			c-0.1-0.1-0.2-0.3-0.3-0.5c0,0.2,0,0.3,0,0.4c0,1.6,0,3.3,0,4.9c0,0.3,0,0.6,0.1,0.8c0.2,0.9,0.7,1.5,1.6,1.7
			c0.6,0.1,1.1,0.2,1.7,0.3c0.2,0,0.3,0,0.5,0c0,0.2,0,0.3,0,0.5c-3.8,0-7.6,0-11.3,0c-0.1-0.4,0-0.5,0.3-0.5c0.4,0,0.8-0.1,1.2-0.2
			c1.3-0.3,1.8-0.9,1.9-2.2c0-0.3,0-0.6,0-0.9c0-5.6,0-11.1,0-16.7C90,3.9,90,3.5,90,3c-0.1-1-0.7-1.6-1.6-1.8
			c-0.5-0.1-1-0.2-1.4-0.2C86.5,0.9,86.4,0.8,86.5,0.4z M104.5,9.4c-0.1-0.6-0.3-1.8-0.6-3c-0.4-1.5-1.3-2.8-2.9-3.4
			c-2.6-1-5.2,0.2-6.3,2.8c-0.8,1.8-0.9,3.6-0.7,5.5c0.1,1.4,0.6,2.7,1.4,3.9c2.1,2.9,6.6,2.8,8.2-0.7
			C104.3,13,104.5,11.6,104.5,9.4z"/>
		<path fill="#FFFFFF" d="M66.2,19.1c0,0.2,0,0.3,0,0.6c-1.4-0.1-2.8-0.1-4.1-0.3c-1.6-0.2-2.6-1.4-3-2.9c0-0.1-0.1-0.3-0.1-0.5
			c-0.3,0.4-0.5,0.7-0.8,1c-1.7,2.1-4,2.9-6.7,2.9c-1.1,0-2.1-0.2-3.1-0.6c-2.3-0.9-3.5-3.2-2.9-5.8c0.5-2.4,2.1-3.7,4.3-4.3
			c1.7-0.5,3.5-0.7,5.2-1.1c1.1-0.2,2.2-0.5,3.3-0.8c0.4-0.1,0.6-0.4,0.5-0.8c-0.1-0.4,0-0.7-0.1-1.1C58.4,4,57.6,3,56.1,2.7
			C54,2.2,51.9,2.3,49.9,3c-1,0.3-1.8,0.9-1.8,2.1c-0.1,1.2,0.9,1.8,2,1.4c0.5-0.2,0.7-0.6,0.6-1.3c0-0.2-0.1-0.3-0.2-0.4
			c0.5,0,0.8,0.3,0.9,0.8c0.1,0.7-0.2,1.5-0.9,1.8c-1.1,0.5-2.2,0.6-3.2,0c-1-0.6-1.4-1.5-1.4-2.7c0.1-1.4,0.8-2.4,1.9-3.2
			c1.1-0.7,2.3-1,3.5-1.2c2.2-0.4,4.3-0.3,6.4,0.2c3.2,0.7,4.8,2.7,4.9,6.1c0.1,3,0,6,0,9c0,0.5,0.1,1,0.2,1.5
			c0.3,1.1,1.1,1.8,2.2,1.9C65.4,19,65.8,19,66.2,19.1z M58.7,8.9c-1.8,1-3.9,1.2-5.8,1.7c-0.6,0.2-1.2,0.4-1.7,0.6
			c-1.2,0.6-1.8,2-1.5,3.4c0.2,1.1,1,2,2.3,2.2c2.6,0.5,5.4-0.7,6.4-3.6C58.8,11.9,58.7,10.5,58.7,8.9z"/>
		<path fill="#FFFFFF" d="M41.6,10.3c-5,0-10,0-14.9,0c-0.1,1,0,1.9,0.3,2.9c0.7,2.4,2.7,4.1,5.3,4.4c1.5,0.2,3,0.1,4.5-0.5
			c2.1-0.8,3.5-2.3,4.2-4.5c0.1-0.2,0.1-0.6,0.6-0.4c-0.5,3.1-1.9,5.7-5.1,6.9c-3.3,1.3-6.7,1.1-9.9-0.5c-1.8-0.9-3.1-2.4-3.8-4.3
			c-1-2.6-1.1-5.3-0.1-8c1.4-3.7,4.1-5.7,8.1-6.2c2.3-0.3,4.6,0,6.6,1.2c2.6,1.6,3.9,4.1,4.2,7.1C41.5,9,41.5,9.6,41.6,10.3z
			 M37.1,8c-0.2-2.1-0.7-4-2.7-5.1c-1.9-1-3.8-0.8-5.5,0.4c-1.6,1.1-2.1,2.8-2.3,4.7C30.2,8,33.6,8,37.1,8z"/>
		<path fill="#FFFFFF" d="M7.9,2.5c-1.6,0-3.1-0.1-4.6,0.4C2.1,3.3,1.5,4.3,1,5.4C0.8,6,0.7,6.6,0.6,7.2C0.5,7.7,0.5,7.7,0,7.6
			c0-2.4,0-4.8,0-7.2c6.6,0,13.2,0,19.8,0c0,2.4,0,4.8,0,7.2c-0.1,0-0.3,0-0.4,0c0-0.1-0.1-0.1-0.1-0.1C19.1,7,19,6.4,18.9,5.9
			c-0.5-1.9-1.7-3.1-3.8-3.3c-1-0.1-2.1-0.1-3.2-0.2c0,0.2,0,0.4,0,0.5c0,4.2,0,8.5,0,12.7c0,0.5,0,1,0.1,1.5
			c0.1,0.7,0.6,1.3,1.4,1.5c0.7,0.2,1.5,0.3,2.3,0.5c0,0.1,0,0.2,0,0.4c-3.8,0-7.7,0-11.5,0c0-0.2,0-0.3,0-0.4
			c0.6-0.1,1.2-0.2,1.7-0.3c1.3-0.3,1.8-0.8,2-2.1c0-0.3,0-0.7,0-1c0-4.2,0-8.5,0-12.7C7.9,2.9,7.9,2.7,7.9,2.5z"/>
		<path fill="#FFFFFF" d="M85.7,7.6c-0.1,0-0.2,0-0.3,0c-0.1,0-0.1,0-0.2,0C85.1,7,85,6.5,84.9,6c-0.5-2-1.8-3.3-4-3.4
			c-1-0.1-2,0-3.1,0c0,0.1,0,0.3,0,0.5c0,4.2,0,8.4,0,12.6c0,0.4,0,0.8,0.1,1.3c0.1,0.9,0.6,1.6,1.6,1.8c0.7,0.2,1.4,0.2,2.1,0.4
			c0,0.1,0,0.2,0,0.4c-3.9,0-7.7,0-11.6,0c0-0.2,0-0.3,0-0.4c0.6-0.1,1.1-0.2,1.7-0.2c1.4-0.3,2-0.9,2.1-2.2c0-0.3,0-0.7,0-1
			c0-4.2,0-8.4,0-12.6c0-0.2,0-0.3,0-0.5c-1.7,0-3.3-0.1-4.9,0.5c-1,0.4-1.5,1.2-1.9,2.1c-0.3,0.8-0.5,1.6-0.8,2.5
			c-0.1,0-0.2,0-0.4,0c0-2.4,0-4.8,0-7.2c6.6,0,13.1,0,19.7,0C85.7,2.8,85.7,5.2,85.7,7.6z"/>
		<path fill="#FFFFFF" d="M47.8,41.9h-1.1v-3h-3.1v3h-1.1v-6.6h1.1V38h3.1v-2.7h1.1V41.9z"/>
		<path fill="#FFFFFF" d="M56.1,41.9l-0.7-1.8h-2.6l-0.7,1.8H51l2.5-6.6h1.2l2.5,6.6H56.1z M55.1,39.1l-0.6-1.8
			c0-0.1-0.1-0.3-0.2-0.6c-0.1-0.3-0.1-0.5-0.2-0.6c-0.1,0.4-0.2,0.8-0.4,1.2l-0.6,1.7H55.1z"/>
		<path fill="#FFFFFF" d="M68.1,36.1c-0.6,0-1.1,0.2-1.5,0.7c-0.4,0.4-0.5,1-0.5,1.8c0,0.8,0.2,1.4,0.5,1.8c0.3,0.4,0.9,0.6,1.5,0.6
			c0.3,0,0.6,0,0.8-0.1c0.3-0.1,0.5-0.1,0.8-0.2v0.9C69.2,41.9,68.6,42,68,42c-1,0-1.8-0.3-2.3-0.9c-0.5-0.6-0.8-1.4-0.8-2.5
			c0-0.7,0.1-1.3,0.4-1.8c0.3-0.5,0.6-0.9,1.1-1.2c0.5-0.3,1.1-0.4,1.7-0.4c0.7,0,1.3,0.2,1.9,0.4l-0.4,0.9
			c-0.2-0.1-0.5-0.2-0.7-0.3C68.6,36.2,68.4,36.1,68.1,36.1z"/>
		<path fill="#FFFFFF" d="M77.3,41.9h-3.8v-6.6h3.8v0.9h-2.7V38h2.6v0.9h-2.6V41h2.7V41.9z"/>
		<path fill="#FFFFFF" d="M85.6,37.3c0,0.7-0.2,1.2-0.7,1.6c-0.5,0.4-1.1,0.5-2,0.5h-0.7v2.5h-1.1v-6.6h2c0.9,0,1.5,0.2,1.9,0.5
			C85.4,36.1,85.6,36.6,85.6,37.3z M82.2,38.5h0.6c0.6,0,1-0.1,1.3-0.3c0.3-0.2,0.4-0.5,0.4-0.9c0-0.4-0.1-0.7-0.3-0.8
			c-0.2-0.2-0.6-0.3-1.1-0.3h-0.8L82.2,38.5L82.2,38.5z"/>
		<path fill="#FFFFFF" d="M94.4,41.9h-1.1v-5.7h-3v5.7h-1.1v-6.6h5.2V41.9z"/>
		<path fill="#FFFFFF" d="M103.7,35.3l-2.1,4.7c-0.3,0.6-0.5,1-0.7,1.2c-0.2,0.3-0.5,0.5-0.8,0.6c-0.3,0.1-0.6,0.2-1,0.2
			c-0.3,0-0.7,0-1-0.1v-1c0.3,0.1,0.6,0.2,1,0.2c0.3,0,0.5-0.1,0.7-0.2c0.2-0.1,0.4-0.4,0.5-0.7l-2.5-4.8h1.2l1.6,3.3
			c0.2,0.3,0.2,0.5,0.3,0.6h0c0-0.1,0.1-0.2,0.1-0.4l1.5-3.6H103.7z"/>
		<path fill="#FFFFFF" d="M111.8,41.9h-1.3l-1.7-2.7l-1.7,2.7H106l2.2-3.4l-2.1-3.2h1.2l1.6,2.5l1.6-2.5h1.2l-2.1,3.2L111.8,41.9z"
			/>
		<path fill="#FFFFFF" d="M121.1,38.6c0,1.1-0.3,1.9-0.8,2.5c-0.5,0.6-1.3,0.9-2.3,0.9c-1,0-1.8-0.3-2.4-0.9
			c-0.5-0.6-0.8-1.4-0.8-2.5c0-1.1,0.3-1.9,0.8-2.5c0.5-0.6,1.3-0.9,2.4-0.9c1,0,1.8,0.3,2.3,0.9C120.8,36.7,121.1,37.5,121.1,38.6z
			 M115.9,38.6c0,0.8,0.2,1.4,0.5,1.9c0.3,0.4,0.8,0.6,1.5,0.6c0.7,0,1.2-0.2,1.5-0.6c0.3-0.4,0.5-1,0.5-1.9c0-0.8-0.2-1.4-0.5-1.9
			c-0.3-0.4-0.8-0.6-1.5-0.6c-0.7,0-1.2,0.2-1.5,0.6C116,37.2,115.9,37.8,115.9,38.6z"/>
		<path fill="#FFFFFF" d="M124.8,35.3h2c0.9,0,1.6,0.1,2,0.4c0.4,0.3,0.6,0.7,0.6,1.3c0,0.4-0.1,0.7-0.3,1c-0.2,0.3-0.5,0.4-0.9,0.5
			v0c0.5,0.1,0.8,0.3,1,0.5c0.2,0.3,0.3,0.6,0.3,1c0,0.6-0.2,1.1-0.6,1.4c-0.4,0.3-1,0.5-1.8,0.5h-2.4L124.8,35.3L124.8,35.3z
			 M125.9,38h1.1c0.5,0,0.8-0.1,1-0.2c0.2-0.2,0.3-0.4,0.3-0.7c0-0.3-0.1-0.5-0.3-0.7c-0.2-0.1-0.6-0.2-1.1-0.2h-1L125.9,38
			L125.9,38z M125.9,38.9V41h1.2c0.5,0,0.8-0.1,1-0.3c0.2-0.2,0.3-0.5,0.3-0.8c0-0.3-0.1-0.6-0.4-0.8c-0.2-0.2-0.6-0.2-1.1-0.2
			L125.9,38.9L125.9,38.9z"/>
		<path fill="#FFFFFF" d="M138.5,41.9h-1.3l-2.8-3.3v3.3h-1.1v-6.6h1.1v3.2l2.8-3.2h1.2l-2.7,3.2L138.5,41.9z"/>
		<path fill="#FFFFFF" d="M145.6,41.9h-3.8v-6.6h3.8v0.9h-2.7V38h2.6v0.9h-2.6V41h2.7V41.9z"/>
	</g>
</g>
</svg>
