<?xml version="1.0" encoding="utf-8"?>
<!-- Generator: Adobe Illustrator 20.1.0, SVG Export Plug-In . SVG Version: 6.00 Build 0)  -->
<svg version="1.1" id="Layer_1" xmlns="http://www.w3.org/2000/svg" xmlns:xlink="http://www.w3.org/1999/xlink" x="0px" y="0px"
	 width="115.3px" height="59.8px" viewBox="0 0 115.3 59.8" enable-background="new 0 0 115.3 59.8" xml:space="preserve">
<g>
	<g>
		<path fill="#FFFFFF" d="M13.2,5L13,4.3c-0.1-0.7-0.5-1.7-1.1-2.2C11.2,1.5,10,1.4,9.2,1.4H8.1v9.1c0,0.4,0,1.2,0.5,1.7
			c0.4,0.4,1.3,0.5,1.8,0.5h0.4V13H2.9v-0.3h0.4c0.5-0.1,1.4-0.2,1.8-0.5c0.5-0.4,0.5-1.2,0.5-1.7V1.4H4.5c-0.8,0-2,0.1-2.7,0.7
			C1,2.6,0.6,3.6,0.5,4.3L0.4,5H0V0h13.5v5H13.2z"/>
		<path fill="#FFFFFF" d="M18.8,6.8c0,1.2,0.2,2.5,1.1,3.6c1.1,1.2,2.5,1.4,3.6,1.4c1.2,0,2.4-0.3,3.4-1c0.7-0.6,1.5-1.4,1.8-2.7H29
			c-0.2,1.5-0.9,2.9-1.8,3.7c-0.7,0.7-2.2,1.6-4.6,1.6c-2.6,0-4.3-1-5.2-1.9c-1.1-1.1-1.8-2.8-1.8-4.9c0-2,0.8-3.7,1.8-4.8
			c0.9-1,2.6-2,5.1-2c2.2,0,3.8,0.8,4.8,2C28.1,2.5,29,4,29,6.4v0.3L18.8,6.8z M26,5.2c0-0.9-0.3-2-0.9-2.8
			c-0.4-0.5-1.2-1.1-2.5-1.1s-2.2,0.5-2.6,1c-0.6,0.7-1.1,1.8-1.1,2.8L26,5.2z"/>
		<path fill="#FFFFFF" d="M46.1,13.1h-2c-0.6,0-1.3-0.2-1.7-0.4c-0.8-0.4-1.1-1.2-1.3-2c-0.6,1-1.4,1.6-1.8,1.9
			c-0.9,0.6-2,0.8-3.2,0.8c-1.5,0-2.5-0.4-3-0.8c-0.5-0.4-1.3-1.2-1.3-2.6c0-1,0.3-1.8,0.8-2.5c0.8-1,1.9-1.3,2.9-1.5
			c1.3-0.3,2.2-0.4,3.9-0.7c0.6-0.1,1-0.2,1.6-0.6V4.2c0-0.6,0-1.6-0.9-2.3c-0.5-0.3-1.2-0.5-2.4-0.5c-1.4,0-2.3,0.2-2.8,0.4
			c-0.7,0.3-1.2,0.8-1.2,1.5c0,0.4,0.1,0.9,0.9,0.9c0.7,0,0.9-0.4,0.9-0.7c0-0.1,0-0.4-0.2-0.6c0.3,0,0.5,0.2,0.5,0.3
			C36,3.4,36,3.6,36,3.8c0,0.4-0.2,0.7-0.6,1c-0.5,0.3-1,0.3-1.2,0.3c-0.5,0-1-0.2-1.4-0.6s-0.6-0.9-0.6-1.4c0-0.8,0.3-2.1,2.2-2.8
			c1-0.4,2.5-0.6,3.6-0.6c1.4,0,3.2,0.2,4.3,1.1c1.4,1,1.5,2.5,1.5,3.5v5.6c0,0.8,0,1.6,0.5,2.2c0.5,0.5,1,0.6,1.6,0.7h0.3
			L46.1,13.1L46.1,13.1z M40.9,5.8c-0.8,0.5-1.4,0.6-2.2,0.8c-1.9,0.4-2.7,0.6-3.3,1c-0.7,0.6-0.8,1.2-0.8,1.7
			c0,0.6,0.1,1.1,0.6,1.5s1.1,0.5,1.6,0.5c2.2,0,3.2-1.4,3.6-2.1c0.4-0.7,0.4-1.6,0.4-2.4v-1C40.8,5.8,40.9,5.8,40.9,5.8z"/>
		<path fill="#FFFFFF" d="M59.5,5l-0.1-0.7c-0.1-0.7-0.5-1.7-1.1-2.2c-0.7-0.6-1.9-0.7-2.7-0.7h-1.1v9.1c0,0.4,0,1.2,0.5,1.7
			c0.4,0.4,1.3,0.5,1.8,0.5h0.4V13h-7.9v-0.3h0.4c0.5-0.1,1.4-0.2,1.8-0.5C52,11.8,52,11,52,10.5V1.4h-1.1c-0.8,0-2,0.1-2.7,0.7
			c-0.6,0.5-1,1.5-1.1,2.2L46.7,5h-0.4V0h13.5v5H59.5z"/>
		<path fill="#FFFFFF" d="M66.3,2.6c0.5-0.8,1.2-1.7,2-2.1c0.9-0.6,1.9-0.7,2.7-0.7c3.3,0,4.6,2,5.1,3.2c0.5,1.1,0.8,2.3,0.8,3.6
			c0,2.3-0.6,4-1.8,5.2c-0.8,0.8-2.1,1.6-3.9,1.6c-1.1,0-2-0.2-2.6-0.6c-0.7-0.4-1.5-1.1-1.9-2v3.4c0,0.5,0,1.2,0.4,1.7
			c0.2,0.2,0.7,0.5,1.8,0.5h0.5v0.3h-7.8v-0.3H62c0.7-0.1,1.3-0.2,1.6-0.5c0.5-0.4,0.4-1.2,0.4-1.7V2.6c0-0.5,0-1.2-0.4-1.7
			c-0.3-0.3-0.9-0.5-1.6-0.5h-0.4V0h4.9v2.6H66.3z M67.4,9.9c0.8,1.3,2,1.6,2.7,1.6c1.3,0,2.2-0.6,2.8-1.6c0.7-1.2,0.8-2.6,0.8-3.4
			c0-0.7-0.1-2.1-0.8-3.4c-0.6-1-1.5-1.6-2.8-1.6C69,1.6,68,2,67.3,3.2c-0.7,1.1-0.8,2.4-0.8,3.2C66.5,7.3,66.6,8.7,67.4,9.9z"/>
	</g>
	<g>
		<path fill="#FFFFFF" d="M13.2,26.3L13,25.6c-0.1-0.7-0.5-1.7-1.1-2.2c-0.7-0.6-1.9-0.7-2.7-0.7H8.1v9.1c0,0.4,0,1.2,0.5,1.7
			C9,33.9,9.8,34,10.4,34h0.4v0.3H2.9V34h0.4c0.4,0,1.3-0.1,1.7-0.5c0.5-0.4,0.5-1.2,0.5-1.7v-9.1H4.3c-0.8,0-2,0.1-2.7,0.7
			c-0.6,0.5-1,1.5-1.1,2.2l-0.1,0.7H0v-5h13.5v5C13.5,26.3,13.2,26.3,13.2,26.3z"/>
		<path fill="#FFFFFF" d="M18.8,28.1c0,1.2,0.2,2.5,1.1,3.6c1.1,1.2,2.5,1.4,3.6,1.4c1.2,0,2.4-0.3,3.4-1c0.7-0.6,1.5-1.4,1.8-2.7
			H29c-0.2,1.5-0.9,2.9-1.8,3.7c-0.7,0.7-2.2,1.6-4.6,1.6c-2.6,0-4.3-1-5.2-1.9c-1.1-1.1-1.8-2.8-1.8-4.9c0-2,0.8-3.7,1.8-4.8
			c0.9-1,2.6-2,5.1-2c2.2,0,3.8,0.8,4.8,2c0.7,0.8,1.6,2.3,1.6,4.7v0.3L18.8,28.1z M26,26.5c0-0.9-0.3-2-0.9-2.8
			c-0.4-0.5-1.2-1.1-2.5-1.1s-2.2,0.5-2.6,1c-0.6,0.7-1.1,1.8-1.1,2.8L26,26.5z"/>
		<path fill="#FFFFFF" d="M35.3,23.9c0.5-0.8,1.2-1.7,2-2.1c0.9-0.6,1.9-0.7,2.7-0.7c3.3,0,4.6,2,5.1,3.2c0.5,1.1,0.8,2.3,0.8,3.6
			c0,2.3-0.6,4-1.8,5.2c-0.8,0.8-2.1,1.6-3.9,1.6c-1.1,0-2-0.2-2.6-0.6c-0.7-0.4-1.5-1.1-1.9-2v3.4c0,0.5,0,1.2,0.4,1.7
			c0.2,0.2,0.7,0.5,1.8,0.5h0.5V38h-7.8v-0.3H31c0.7-0.1,1.3-0.2,1.6-0.5c0.5-0.4,0.4-1.2,0.4-1.7V23.9c0-0.5,0-1.2-0.4-1.7
			c-0.3-0.3-0.9-0.5-1.6-0.5h-0.4v-0.3h4.9v2.5H35.3z M36.4,31.2c0.8,1.3,2,1.6,2.7,1.6c1.3,0,2.2-0.6,2.8-1.6
			c0.7-1.2,0.8-2.6,0.8-3.4c0-0.7-0.1-2.1-0.8-3.4c-0.6-1-1.5-1.6-2.8-1.6c-1.1,0-2.1,0.5-2.8,1.6s-0.8,2.4-0.8,3.2
			C35.5,28.6,35.6,30.1,36.4,31.2z"/>
		<path fill="#FFFFFF" d="M51.8,28.1c0,1.2,0.2,2.5,1.1,3.6c1.1,1.2,2.5,1.4,3.6,1.4c1.2,0,2.4-0.3,3.4-1c0.7-0.6,1.5-1.4,1.8-2.7
			H62c-0.2,1.5-0.9,2.9-1.8,3.7c-0.7,0.7-2.2,1.6-4.6,1.6c-2.6,0-4.3-1-5.2-1.9c-1.1-1.1-1.8-2.8-1.8-4.9c0-2,0.8-3.7,1.8-4.8
			c0.9-1,2.6-2,5.1-2c2.2,0,3.8,0.8,4.8,2c0.7,0.8,1.6,2.3,1.6,4.7v0.3L51.8,28.1z M59,26.5c0-0.9-0.3-2-0.9-2.8
			c-0.4-0.5-1.2-1.1-2.5-1.1s-2.2,0.5-2.6,1c-0.6,0.7-1.1,1.8-1.1,2.8L59,26.5z"/>
		<path fill="#FFFFFF" d="M70.1,26.9c0.5,0,1.5-0.1,2.1-0.6c0.4-0.3,0.6-1,0.6-1.6s-0.3-1.2-0.8-1.6c-0.6-0.5-1.5-0.6-1.8-0.6
			c-1.1,0-2.2,0.3-3.2,1.1c-1.2,1-1.5,2.1-1.6,2.8H65V21h0.4l0.8,1.3c0.4-0.4,0.8-0.6,1.3-0.8c1.1-0.4,2.2-0.5,3.1-0.5
			c1.9,0,2.9,0.4,3.5,0.7c1.4,0.8,1.8,2,1.8,2.8c0,0.7-0.2,1.4-0.6,1.8s-1,0.9-1.8,1.1c0.8,0.1,1.6,0.5,2.2,1
			c0.6,0.6,0.9,1.4,0.9,2.2c0,1.7-1,2.6-2,3.2c-1.1,0.6-2.9,0.8-4.5,0.8c-1.2,0-3-0.2-4.3-1.1c-0.9-0.7-1.4-1.6-1.4-2.4
			c0-0.6,0.2-1.3,0.6-1.8c0.4-0.4,0.9-0.6,1.6-0.6c0.8,0,1.9,0.5,1.9,1.5c0,0.7-0.4,1.1-0.9,1.2c0.2-0.6,0.1-1.4-0.7-1.4
			c-0.6,0-0.8,0.3-0.8,0.8c0,0.6,0.4,1.1,0.9,1.4c0.9,0.6,2,0.7,2.9,0.7c0.6,0,1.9-0.1,2.7-0.9c0.5-0.5,0.7-1.2,0.7-1.8
			c0-0.7-0.3-1.2-0.7-1.5c-0.5-0.5-1.3-0.7-2.3-0.7h-1.5v-1.3h1.3V26.9z"/>
		<path fill="#FFFFFF" d="M86.3,26.8c1.6,0,3.2,0,4.4,0.9c0.5,0.4,1.5,1.3,1.5,3c0,1.6-0.8,2.5-1.3,2.9c-0.9,0.7-2.2,0.8-3.3,0.8H78
			v-0.3h0.4c0.7-0.1,1.3-0.2,1.6-0.5c0.4-0.4,0.4-1.1,0.4-1.7v-8c0-0.5,0-1.2-0.4-1.7c-0.3-0.3-0.9-0.5-1.6-0.5H78v-0.3h7.5v0.3
			h-0.4c-0.7,0.1-1.3,0.2-1.6,0.5c-0.4,0.4-0.4,1.1-0.4,1.7v2.9L86.3,26.8z M86.2,33c0.5,0,1.6,0,2.2-0.5c0.3-0.2,0.7-0.7,0.7-1.9
			c0-0.5-0.1-1.2-0.6-1.8c-0.7-0.7-1.9-0.7-2.5-0.7h-2.9V33H86.2z M99.8,21.3v0.3h-0.4c-0.7,0.1-1.3,0.2-1.6,0.5
			c-0.4,0.4-0.4,1.1-0.4,1.7v8c0,0.5,0,1.2,0.4,1.7c0.3,0.3,0.9,0.5,1.6,0.5h0.4v0.3h-7.3V34h0.4c0.5,0,1.1-0.2,1.4-0.5
			c0.4-0.4,0.4-1,0.4-1.7v-8c0-0.5,0-1.2-0.4-1.7c-0.3-0.3-0.9-0.5-1.6-0.5h-0.4v-0.3H99.8z"/>
	</g>
	<g>
		<path fill="#FFFFFF" d="M0.2,54.9c0.9-0.1,1.5-0.5,1.7-0.6c0.5-0.3,0.7-0.6,0.9-1.1C3,52.8,3.3,52,3.5,50.4
			C3.7,49.3,4,46.6,4,45.2v-0.4c0-1.8-1.2-2-2.2-2.1l-0.4-0.1v-0.3h13.2v0.3h-0.4c-0.7,0.1-1.3,0.2-1.6,0.5
			c-0.4,0.4-0.4,1.1-0.4,1.7v8c0,0.5,0,1.2,0.4,1.7c0.3,0.3,0.9,0.5,1.6,0.5h0.4v4.8h-0.4L14,59.1c-0.2-0.7-0.7-2-1.1-2.5
			c-0.4-0.6-1.1-1.2-2.1-1.2H4c-0.8,0-1.7,0.2-2.5,1.2c-0.4,0.5-1,1.9-1.1,2.5l-0.2,0.7H0V55L0.2,54.9z M9.4,43.7H5.7l-0.2,3.1
			c-0.1,1.4-0.1,2.7-0.5,4.6c-0.2,0.9-0.4,1.6-0.7,2.5h5.1V43.7z"/>
		<path fill="#FFFFFF" d="M24.2,42.2v0.3h-0.4c-1.1,0.1-2.1,0.3-2.1,1.1c0,0.2,0.1,0.4,0.1,0.7c0.1,0.2,0.2,0.5,0.3,0.7l2.9,6.7
			l2.1-5.1c0.2-0.6,0.4-1,0.5-1.4s0.2-0.7,0.2-1.1c0-0.7-0.4-1.1-0.6-1.2c-0.2-0.2-0.6-0.3-1.5-0.4l-0.4-0.1v-0.3h7.6v0.3h-0.4
			c-1.1,0.1-1.7,0.4-2.2,1.1c-0.4,0.5-0.6,1.1-1,2l-3.6,8.6c-1.1,2.6-2,3.5-2.6,4c-0.9,0.7-1.9,0.8-2.5,0.8c-1.8,0-2.5-1-2.5-2
			c0-0.7,0.3-1.1,0.5-1.3c0.4-0.4,0.9-0.4,1.3-0.4c0.3,0,0.8,0,1.1,0.3c0.2,0.2,0.4,0.4,0.4,0.7s-0.2,0.5-0.3,0.6
			c-0.1-0.4-0.4-0.7-0.9-0.7c-0.6,0-0.7,0.5-0.7,0.8c0,0.2,0.1,0.5,0.4,0.7c0.2,0.2,0.5,0.2,0.8,0.2c0.6,0,1.2-0.2,1.7-0.7
			s1-1.5,1.2-2.2l-4.5-10.2c-0.2-0.6-0.5-1-0.8-1.4c-0.5-0.4-1.4-0.7-2.2-0.8v-0.3L24.2,42.2z"/>
		<path fill="#FFFFFF" d="M37,44.8c0.5-0.8,1.2-1.7,2-2.1c0.9-0.6,1.9-0.7,2.7-0.7c3.3,0,4.6,2,5.1,3.2c0.5,1.1,0.8,2.3,0.8,3.6
			c0,2.3-0.6,4-1.8,5.2c-0.8,0.8-2.1,1.6-3.9,1.6c-1.1,0-2-0.2-2.6-0.6c-0.7-0.4-1.5-1.1-1.9-2v3.4c0,0.5,0,1.2,0.4,1.7
			c0.2,0.2,0.7,0.5,1.8,0.5h0.5V59h-7.8v-0.3h0.4c0.7-0.1,1.3-0.2,1.6-0.5c0.5-0.4,0.4-1.2,0.4-1.7V44.9c0-0.5,0-1.2-0.4-1.7
			c-0.3-0.3-0.9-0.5-1.6-0.5h-0.4v-0.3h4.9v2.4C37.2,44.8,37,44.8,37,44.8z M38.2,52.2c0.8,1.3,2,1.6,2.7,1.6c1.3,0,2.2-0.6,2.8-1.6
			c0.7-1.2,0.8-2.6,0.8-3.4c0-0.7-0.1-2.1-0.8-3.4c-0.6-1-1.5-1.6-2.8-1.6c-1.1,0-2.1,0.5-2.8,1.6s-0.8,2.4-0.8,3.2
			C37.3,49.6,37.4,51,38.2,52.2z"/>
		<path fill="#FFFFFF" d="M62.5,53.8c-1.5,1.4-3.4,1.8-5.1,1.8c-1.8,0-3.6-0.4-5.1-1.8c-1.7-1.6-2-3.4-2-5s0.3-3.5,2-5
			c1.1-0.9,2.7-1.8,5.1-1.8c2.4,0,4.1,0.8,5.1,1.8c1.7,1.5,2,3.4,2,5C64.5,50.4,64.2,52.2,62.5,53.8z M54.4,45.2
			c-0.8,1-0.9,2.4-0.9,3.6c0,1.2,0.1,2.5,0.9,3.6c0.5,0.7,1.5,1.5,3,1.5c1.6,0,2.5-0.7,3-1.5c0.8-1.1,0.9-2.4,0.9-3.6
			c0-1.2-0.1-2.6-0.9-3.6c-0.6-0.8-1.7-1.4-3-1.4C56.1,43.8,55,44.4,54.4,45.2z"/>
		<path fill="#FFFFFF" d="M75.3,42.2c0.6,0,2,0.1,3,0.8s1.3,1.7,1.3,2.5c0,1.1-0.5,1.8-1,2.2s-1.1,0.6-1.6,0.7
			c0.9,0.2,1.6,0.6,2,0.9c0.7,0.6,1.1,1.4,1.1,2.4c0,1.4-0.6,2.3-1.3,2.8c-0.9,0.7-2.1,0.8-3.1,0.8h-9.8V55h0.4
			c0.7-0.1,1.3-0.2,1.6-0.5c0.4-0.4,0.4-1.1,0.4-1.7v-8c0-0.5,0-1.2-0.4-1.7c-0.3-0.3-0.9-0.5-1.6-0.5h-0.4v-0.3L75.3,42.2z
			 M73.8,48c0.2,0,1.6,0,2.2-0.6c0.3-0.3,0.5-0.9,0.5-1.6c0-0.6-0.2-1.2-0.7-1.7c-0.4-0.3-1.1-0.5-1.8-0.5h-3V48H73.8z M74.6,54
			c0.6,0,1.3,0,1.9-0.6c0.5-0.5,0.6-1.3,0.6-1.8s-0.1-1.4-0.9-1.9c-0.6-0.4-1.5-0.4-2.2-0.4h-3V54H74.6z"/>
		<path fill="#FFFFFF" d="M94.9,53.8c-1.5,1.4-3.4,1.8-5.1,1.8c-1.8,0-3.6-0.4-5.1-1.8c-1.7-1.6-2-3.4-2-5s0.3-3.5,2-5
			c1.1-0.9,2.7-1.8,5.1-1.8s4.1,0.8,5.1,1.8c1.7,1.5,2,3.4,2,5C96.9,50.4,96.6,52.2,94.9,53.8z M86.7,45.2c-0.8,1-0.9,2.4-0.9,3.6
			c0,1.2,0.1,2.5,0.9,3.6c0.5,0.7,1.5,1.5,3,1.5c1.6,0,2.5-0.7,3-1.5c0.8-1.1,0.9-2.4,0.9-3.6c0-1.2-0.1-2.6-0.9-3.6
			c-0.6-0.8-1.7-1.4-3-1.4C88.5,43.8,87.4,44.4,86.7,45.2z"/>
		<path fill="#FFFFFF" d="M103.4,53.1c0,0.8,0.3,1.2,0.4,1.3c0.4,0.3,0.9,0.5,1.6,0.5h0.4v0.3h-7.5V55h0.4c0.7-0.1,1.3-0.2,1.6-0.5
			c0.4-0.4,0.4-1.1,0.4-1.7v-8c0-0.5,0-1.2-0.4-1.7c-0.3-0.3-0.9-0.5-1.6-0.5h-0.4v-0.3h7.5v0.3h-0.4c-0.7,0.1-1.3,0.2-1.6,0.5
			c-0.4,0.4-0.4,1.1-0.4,1.7v6.1l6.7-6.6c0-0.5-0.2-0.8-0.4-1.1c-0.4-0.3-0.9-0.5-1.6-0.5h-0.4v-0.3h7.5v0.3h-0.4
			c-0.7,0.1-1.3,0.2-1.6,0.5c-0.4,0.4-0.4,1.1-0.4,1.7v8c0,0.5,0,1.2,0.4,1.7c0.3,0.3,0.9,0.5,1.6,0.5h0.4v0.3h-7.5V55h0.4
			c0.7-0.1,1.3-0.2,1.6-0.5c0.4-0.4,0.4-1.1,0.4-1.7v-6.3L103.4,53.1z M105.3,40.9c-0.5,0-1.6-0.1-2.3-0.6c-0.3-0.3-0.8-0.8-0.8-1.7
			c0-0.5,0.1-0.9,0.4-1.3c0.4-0.5,1-0.8,1.7-0.8c-0.2,0.1-0.5,0.2-0.6,0.4c-0.3,0.3-0.3,0.5-0.3,0.8s0,0.5,0.3,0.7
			c0.4,0.3,1,0.3,1.5,0.3h3c0.5,0,1.1,0,1.5-0.3c0.3-0.2,0.3-0.5,0.3-0.7c0-0.3,0-0.6-0.3-0.8c-0.2-0.2-0.4-0.3-0.6-0.4
			c0.7,0,1.3,0.3,1.7,0.8c0.3,0.4,0.4,0.8,0.4,1.3c0,0.9-0.4,1.4-0.8,1.7c-0.7,0.6-1.8,0.6-2.3,0.6H105.3z"/>
	</g>
</g>
</svg>
