<?xml version="1.0" encoding="utf-8"?>
<!-- Generator: Adobe Illustrator 20.1.0, SVG Export Plug-In . SVG Version: 6.00 Build 0)  -->
<svg version="1.1" id="Слой_1" xmlns="http://www.w3.org/2000/svg" xmlns:xlink="http://www.w3.org/1999/xlink" x="0px" y="0px"
	 width="166px" height="43px" viewBox="0 0 166 43" enable-background="new 0 0 166 43" xml:space="preserve">
<path d="M107,16.7c0,0.1,0,0.2,0,0.4c-3.2,0-6.4,0-9.6,0c0-0.1,0-0.3,0-0.4c0.5-0.1,0.9-0.1,1.4-0.2c1.1-0.2,1.6-0.8,1.7-1.9
	c0-1.5,0-3,0-4.5c0-2.2,0-4.4,0-6.6c0-0.2,0-0.5,0-0.7C100.4,1.8,99.9,1.3,99,1c-0.5-0.1-1-0.2-1.5-0.3c0-0.1,0-0.2,0-0.4
	c3.2,0,6.4,0,9.6,0c0.1,0.3,0,0.4-0.3,0.5c-0.5,0-0.9,0.1-1.4,0.2c-0.8,0.2-1.2,0.8-1.3,1.6c0,0.3-0.1,0.6-0.1,0.9
	c0,2.5,0,4.9,0,7.4c0,0.1,0,0.2,0,0.4c0.2-0.1,0.3-0.2,0.4-0.3c2.7-2.6,5.3-5.2,8-7.8c0.2-0.2,0.3-0.4,0.2-0.7
	c-0.2-0.8-0.7-1.3-1.5-1.5c-0.4-0.1-0.8-0.1-1.2-0.2c-0.3,0-0.5-0.1-0.3-0.5c6.6,0,13.3,0,19.9,0c0.1,0.3,0,0.4-0.3,0.5
	c-0.6,0.1-1.3,0.1-1.9,0.3c-0.8,0.2-1,0.7-0.9,1.5c0.1,0.4,0.2,0.8,0.4,1.2c1.2,2.8,2.4,5.6,3.6,8.4c0,0.1,0.1,0.1,0.1,0.2
	c0.1,0,0.1-0.1,0.1-0.1c1-2.4,1.9-4.7,2.9-7.1c0.2-0.6,0.4-1.3,0.5-1.9c0.2-1.1-0.3-2-1.5-2.2c-0.5-0.1-0.9-0.2-1.4-0.2
	c-0.4,0-0.4,0-0.3-0.5c0.2,0,0.3,0,0.5,0c5.1,0,10.2,0,15.2,0c0.4,0,0.6,0.1,0.7,0.4c1.8,3.7,3.6,7.5,5.4,11.2
	c0.1,0.1,0.1,0.2,0.2,0.4c0.1-0.2,0.2-0.3,0.2-0.4c1.8-3.7,3.7-7.5,5.5-11.2c0.2-0.3,0.4-0.5,0.7-0.5c2.1,0,4.1,0,6.2,0
	c0.2,0,0.3,0,0.5,0c0,0.2,0,0.3,0,0.4c-0.4,0-0.8,0.1-1.3,0.2c-1.3,0.3-1.8,0.8-1.8,2.1c0,1,0,1.9,0,2.9c0,2.7,0,5.5,0,8.2
	c0,0.2,0,0.4,0,0.6c0.1,1,0.6,1.6,1.6,1.8c0.5,0.1,1,0.2,1.5,0.2c0,0.1,0,0.2,0,0.4c-3.2,0-6.4,0-9.6,0c0-0.1,0-0.2,0-0.4
	c0.5-0.1,0.9-0.1,1.4-0.2c1-0.2,1.5-0.8,1.6-1.8c0-0.3,0.1-0.5,0.1-0.8c0-3.2,0-6.4,0-9.5c0-0.1,0-0.2-0.1-0.3
	c-0.1,0.1-0.1,0.2-0.2,0.3c-2,4.1-4,8.2-6,12.4c-0.2,0.3-0.4,0.4-0.7,0.4c-0.8,0.1-1.2-0.2-1.5-0.9c-1.9-4-3.8-7.9-5.8-11.9
	c-0.1-0.1-0.1-0.2-0.3-0.3c0,0.1,0,0.2,0,0.4c0,3.1,0,6.2,0,9.3c0,0.3,0,0.7,0,1c0.1,1,0.6,1.5,1.6,1.8c0.5,0.1,1,0.2,1.5,0.2
	c0,0.1,0,0.2,0,0.4c-2.7,0-5.4,0-8.1,0c0-0.1,0-0.2,0-0.4c0.5-0.1,0.9-0.1,1.4-0.2c1-0.2,1.5-0.7,1.6-1.8c0-0.2,0.1-0.5,0.1-0.7
	c0-3.6,0-7.1,0-10.7c0-0.3,0-0.5-0.1-0.8c-0.1-0.7-0.5-1.2-1.3-1.5c-2-0.7-3.9,0-4.8,1.8c-0.8,1.5-1.4,3.1-2.1,4.7
	c-1.3,3-2.6,6.1-3.9,9.1c-0.6,1.3-1.2,2.5-2.2,3.5c-1.5,1.5-3.3,1.9-5.3,1.4c-1.6-0.4-2.3-2.2-1.5-3.6c0.6-1,2.4-1.4,3.4-0.7
	c0.7,0.5,0.8,1.3,0.2,1.7c-0.1-0.1-0.1-0.2-0.2-0.3c-0.3-0.5-0.9-0.7-1.4-0.4c-0.5,0.2-0.6,0.9-0.4,1.4c0.2,0.4,0.6,0.6,1.1,0.6
	c1.1,0.1,2-0.3,2.6-1.2c0.5-0.7,0.9-1.5,1.3-2.3c0.1-0.1,0-0.3,0-0.5c-1.9-4.4-3.9-8.8-5.8-13.2c-0.9-2.1-3.5-2.7-5.2-2.1
	c-0.8,0.3-1.2,0.9-1.3,1.7c0,0.2,0,0.5,0,0.7c0,3.5,0,7,0,10.5c0,1.8,0.6,2.4,2.5,2.6c0.2,0,0.4,0,0.6,0c0,0.1,0,0.3,0,0.4
	c-3.2,0-6.4,0-9.6,0c0-0.1,0-0.2,0-0.4c0.5-0.1,1-0.1,1.5-0.2c1-0.2,1.5-0.7,1.6-1.7c0-0.3,0-0.5,0-0.8c0-2.6,0-5.2,0-7.8
	c0-0.1,0-0.2,0-0.3c-0.2,0.1-0.3,0.2-0.3,0.3c-2.7,2.6-5.3,5.2-8,7.9c-0.1,0.1-0.2,0.4-0.2,0.6c0.1,1.2,0.6,1.7,1.9,1.9
	C106.3,16.6,106.6,16.7,107,16.7z"/>
<path d="M75.6,0.4c2,0,4.1,0,6.1,0c0,1,0,2.1,0,3.1c0,0,0.1,0,0.1,0C81.9,3.4,82,3.2,82.2,3c1-1.4,2.2-2.5,4-2.8
	c3.2-0.6,6.7,0.3,8.3,4.2c1.2,3.1,1.2,6.2-0.3,9.2c-1.8,3.7-5.8,4.5-9,3.3c-1.2-0.4-2.1-1.3-2.8-2.3c-0.1-0.1-0.2-0.2-0.3-0.4
	c0,0.2,0,0.3,0,0.3c0,1.4,0,2.9,0,4.3c0,0.2,0,0.5,0.1,0.7c0.1,0.8,0.6,1.3,1.4,1.5c0.5,0.1,1,0.1,1.5,0.2c0.2,0,0.3,0,0.5,0
	c0,0.1,0,0.3,0,0.4c-3.3,0-6.6,0-9.9,0c-0.1-0.3,0-0.4,0.3-0.4c0.4,0,0.7-0.1,1-0.1c1.1-0.3,1.6-0.8,1.7-1.9c0-0.3,0-0.5,0-0.8
	c0-4.9,0-9.7,0-14.6c0-0.4,0-0.8-0.1-1.2c-0.1-0.8-0.6-1.4-1.4-1.6c-0.4-0.1-0.8-0.2-1.3-0.2C75.6,0.8,75.5,0.7,75.6,0.4z M91.3,8.3
	c-0.1-0.5-0.2-1.6-0.5-2.6c-0.4-1.3-1.1-2.4-2.5-3c-2.2-0.9-4.5,0.2-5.5,2.4c-0.7,1.6-0.7,3.2-0.6,4.8c0.1,1.2,0.5,2.4,1.2,3.4
	c1.8,2.6,5.7,2.5,7.1-0.6C91.1,11.4,91.3,10.1,91.3,8.3z"/>
<path d="M57.9,16.7c0,0.1,0,0.3,0,0.5c-1.2-0.1-2.4-0.1-3.6-0.2c-1.4-0.2-2.3-1.2-2.6-2.5c0-0.1-0.1-0.2-0.1-0.4
	c-0.2,0.3-0.4,0.6-0.7,0.9c-1.5,1.8-3.5,2.5-5.8,2.5c-0.9,0-1.9-0.1-2.7-0.5c-2-0.8-3-2.8-2.6-5c0.4-2.1,1.8-3.3,3.8-3.8
	c1.5-0.4,3-0.6,4.5-0.9c1-0.2,1.9-0.5,2.8-0.7c0.4-0.1,0.5-0.3,0.5-0.7c-0.1-0.3,0-0.6-0.1-0.9c-0.2-1.3-0.9-2.1-2.2-2.4
	C47.2,2,45.4,2,43.6,2.7C42.8,3,42.1,3.5,42,4.5c-0.1,1,0.8,1.6,1.7,1.2c0.4-0.2,0.6-0.6,0.5-1.1c0-0.1-0.1-0.2-0.1-0.4
	c0.4,0,0.7,0.3,0.8,0.7c0.1,0.6-0.2,1.3-0.8,1.6c-0.9,0.5-1.9,0.5-2.8,0C40.4,6,40,5.2,40.1,4.1c0.1-1.2,0.7-2.1,1.7-2.8
	c0.9-0.6,2-0.9,3.1-1.1c1.9-0.3,3.8-0.3,5.6,0.1c2.8,0.6,4.2,2.4,4.3,5.3c0.1,2.6,0,5.2,0,7.9c0,0.4,0.1,0.9,0.2,1.3
	c0.3,1,0.9,1.5,2,1.7C57.2,16.6,57.5,16.7,57.9,16.7z M51.3,7.8c-1.6,0.9-3.4,1-5.1,1.5c-0.5,0.1-1,0.3-1.5,0.6
	c-1,0.6-1.6,1.7-1.3,3c0.2,1,0.9,1.8,2,1.9c2.3,0.4,4.7-0.6,5.6-3.1C51.4,10.5,51.3,9.2,51.3,7.8z"/>
<path d="M36.4,9c-4.4,0-8.7,0-13,0c-0.1,0.9,0,1.7,0.2,2.5c0.6,2.1,2.4,3.6,4.6,3.8c1.3,0.1,2.7,0.1,3.9-0.4c1.8-0.7,3.1-2,3.7-3.9
	c0.1-0.2,0.1-0.5,0.5-0.3c-0.4,2.7-1.7,5-4.4,6c-2.9,1.1-5.8,1-8.6-0.5c-1.6-0.8-2.7-2.1-3.3-3.8c-0.9-2.3-1-4.7-0.1-7
	c1.2-3.2,3.6-5,7-5.4c2-0.2,4,0,5.7,1.1c2.3,1.4,3.4,3.6,3.7,6.2C36.3,7.9,36.3,8.4,36.4,9z M32.5,7c-0.2-1.9-0.6-3.5-2.4-4.4
	c-1.6-0.9-3.3-0.7-4.8,0.3c-1.4,1-1.8,2.5-2,4.1C26.4,7,29.4,7,32.5,7z"/>
<path d="M7,2.2c-1.4,0-2.7-0.1-4,0.4C1.9,3,1.4,3.8,1,4.8C0.8,5.3,0.7,5.8,0.6,6.3C0.5,6.7,0.5,6.7,0.1,6.7c0-2.1,0-4.2,0-6.3
	c5.7,0,11.5,0,17.2,0c0,2.1,0,4.2,0,6.3c-0.1,0-0.3,0-0.4,0c0,0-0.1-0.1-0.1-0.1c-0.1-0.5-0.2-0.9-0.3-1.4c-0.4-1.7-1.5-2.7-3.3-2.9
	c-0.9-0.1-1.8-0.1-2.8-0.1c0,0.2,0,0.3,0,0.5c0,3.7,0,7.4,0,11.1c0,0.4,0,0.9,0.1,1.3c0.1,0.6,0.5,1.1,1.2,1.3
	c0.6,0.2,1.3,0.3,2,0.4c0,0.1,0,0.2,0,0.3c-3.4,0-6.7,0-10.1,0c0-0.1,0-0.3,0-0.4c0.5-0.1,1-0.1,1.5-0.2c1.2-0.2,1.6-0.7,1.8-1.9
	c0-0.3,0-0.6,0-0.9c0-3.7,0-7.4,0-11.1C7,2.5,7,2.4,7,2.2z"/>
<path d="M74.9,6.7c-0.1,0-0.2,0-0.2,0c-0.1,0-0.1,0-0.2,0c-0.1-0.5-0.2-0.9-0.3-1.4c-0.5-1.8-1.6-2.9-3.5-3c-0.9,0-1.7,0-2.7,0
	c0,0.1,0,0.3,0,0.4c0,3.7,0,7.4,0,11c0,0.4,0,0.7,0.1,1.1c0.1,0.8,0.6,1.4,1.4,1.6c0.6,0.1,1.2,0.2,1.9,0.3c0,0.1,0,0.2,0,0.4
	c-3.4,0-6.7,0-10.1,0c0-0.1,0-0.2,0-0.4c0.5-0.1,1-0.1,1.5-0.2c1.2-0.2,1.7-0.8,1.8-2c0-0.3,0-0.6,0-0.9c0-3.7,0-7.3,0-11
	c0-0.1,0-0.3,0-0.4c-1.5,0-2.9-0.1-4.2,0.4c-0.8,0.3-1.3,1-1.6,1.8c-0.3,0.7-0.4,1.4-0.7,2.2c-0.1,0-0.2,0-0.4,0c0-2.1,0-4.2,0-6.3
	c5.7,0,11.5,0,17.2,0C74.9,2.5,74.9,4.6,74.9,6.7z"/>
<path d="M35.9,35.6h3.5v3.3h1.2V32h-1.2v3.1h-3.5V32h-1.2v6.8h1.2V35.6z"/>
<path d="M45.2,31.9c0.7,0,1.2,0.1,1.5,0.3c0.4,0.2,0.6,0.4,0.8,0.7c0.2,0.3,0.3,0.6,0.3,1c0,0.4,0,0.8,0,1.2v3.7h-1.1v-0.7
	c-0.3,0.3-0.6,0.5-1,0.6C45.4,39,45,39,44.6,39c-0.4,0-0.7-0.1-1-0.2c-0.3-0.1-0.6-0.3-0.8-0.5c-0.2-0.2-0.4-0.5-0.5-0.7
	c-0.1-0.3-0.2-0.6-0.2-0.8c0-0.3,0.1-0.6,0.2-0.9c0.1-0.3,0.3-0.6,0.5-0.8c0.2-0.2,0.5-0.4,0.8-0.6c0.3-0.1,0.7-0.2,1.1-0.2
	c0.4,0,0.8,0.1,1.2,0.2c0.4,0.2,0.7,0.4,0.9,0.7v-0.6c0-0.7-0.1-1.3-0.3-1.7c-0.2-0.4-0.6-0.5-1.2-0.5c-0.3,0-0.5,0-0.7,0.1
	c-0.2,0.1-0.4,0.2-0.5,0.3c-0.1,0.1-0.3,0.3-0.4,0.4c-0.1,0.2-0.3,0.4-0.4,0.6L42.5,33c0.1-0.1,0.3-0.3,0.4-0.4
	c0.1-0.1,0.3-0.3,0.5-0.4c0.2-0.1,0.5-0.2,0.7-0.3C44.5,31.9,44.8,31.9,45.2,31.9z M46.8,36.2c0-0.1-0.1-0.2-0.2-0.4
	c-0.1-0.1-0.2-0.3-0.3-0.4c-0.1-0.1-0.3-0.3-0.5-0.3c-0.2-0.1-0.4-0.2-0.7-0.2c-0.3,0-0.5,0.1-0.7,0.2c-0.2,0.1-0.4,0.2-0.6,0.4
	c-0.1,0.2-0.3,0.4-0.3,0.6c-0.1,0.2-0.1,0.5-0.1,0.7c0,0.3,0,0.5,0.2,0.8c0.1,0.2,0.2,0.4,0.4,0.5c0.2,0.1,0.3,0.3,0.5,0.3
	c0.2,0.1,0.4,0.1,0.6,0.1c0.2,0,0.3,0,0.5-0.1c0.2-0.1,0.4-0.2,0.5-0.3c0.2-0.1,0.3-0.3,0.4-0.4c0.1-0.2,0.2-0.3,0.3-0.5V36.2z"/>
<path d="M58.3,38.3c-0.3,0-0.6-0.1-1-0.2c-0.3-0.1-0.6-0.3-0.8-0.5c-0.2-0.2-0.4-0.5-0.6-0.9c-0.1-0.4-0.2-0.8-0.2-1.4
	c0-0.6,0.1-1,0.2-1.4c0.2-0.4,0.3-0.7,0.6-0.9c0.2-0.2,0.5-0.4,0.8-0.5c0.3-0.1,0.6-0.2,0.8-0.2c0.4,0,0.8,0.1,1.1,0.3
	c0.3,0.2,0.5,0.5,0.6,0.8h0.9c-0.1-0.3-0.2-0.6-0.4-0.8c-0.2-0.2-0.4-0.4-0.7-0.5c-0.3-0.1-0.5-0.2-0.8-0.3
	c-0.3-0.1-0.6-0.1-0.8-0.1c-0.6,0-1.1,0.1-1.5,0.3c-0.4,0.2-0.8,0.4-1.1,0.8c-0.3,0.3-0.5,0.7-0.7,1.1c-0.1,0.4-0.2,0.9-0.2,1.4
	c0,0.5,0.1,1,0.2,1.4c0.2,0.4,0.4,0.8,0.7,1.1c0.3,0.3,0.7,0.6,1.1,0.8c0.4,0.2,0.9,0.3,1.4,0.3c0.6,0,1.1-0.1,1.6-0.3
	c0.5-0.2,0.8-0.4,1.1-0.7l-0.4-0.5c-0.3,0.3-0.6,0.5-1,0.6C59,38.3,58.7,38.3,58.3,38.3z"/>
<path d="M68.3,35.8v-0.3c0-0.6-0.1-1.1-0.3-1.6c-0.2-0.4-0.4-0.8-0.7-1.1c-0.3-0.3-0.6-0.5-1-0.7c-0.4-0.1-0.8-0.2-1.2-0.2
	c-0.5,0-0.9,0.1-1.3,0.2c-0.4,0.2-0.7,0.4-1,0.7c-0.3,0.3-0.5,0.7-0.7,1.1c-0.2,0.4-0.2,0.9-0.2,1.5c0,0.5,0.1,0.9,0.2,1.3
	c0.1,0.4,0.4,0.8,0.6,1.2c0.3,0.3,0.7,0.6,1.1,0.8c0.4,0.2,1,0.3,1.6,0.3c0.6,0,1.1-0.1,1.6-0.3c0.5-0.2,0.9-0.5,1.3-0.9l-0.4-0.4
	c-0.2,0.2-0.4,0.3-0.5,0.5c-0.2,0.1-0.3,0.3-0.5,0.3c-0.2,0.1-0.4,0.2-0.5,0.2c-0.2,0-0.4,0.1-0.6,0.1c-0.3,0-0.5,0-0.8-0.1
	c-0.3-0.1-0.5-0.2-0.8-0.4c-0.2-0.2-0.5-0.5-0.6-0.8c-0.2-0.4-0.2-0.8-0.2-1.4H68.3z M63.1,35.2c0-0.4,0-0.7,0.1-1.1
	c0.1-0.3,0.2-0.7,0.4-0.9c0.2-0.3,0.4-0.5,0.6-0.6c0.2-0.2,0.5-0.2,0.9-0.2c0.6,0,1.1,0.3,1.5,0.8c0.4,0.5,0.5,1.2,0.5,2.1H63.1z"/>
<path d="M70.1,42.3h1.2v-4.5h0.1c0.1,0.2,0.2,0.4,0.4,0.6c0.2,0.2,0.3,0.3,0.5,0.4c0.2,0.1,0.4,0.2,0.6,0.2c0.2,0,0.4,0.1,0.7,0.1
	c0.5,0,0.9-0.1,1.3-0.2c0.4-0.2,0.7-0.4,1-0.7c0.3-0.3,0.5-0.7,0.7-1.1c0.2-0.4,0.2-0.9,0.2-1.5c0-0.5-0.1-1-0.2-1.5
	c-0.2-0.4-0.4-0.8-0.7-1.1c-0.3-0.3-0.6-0.6-1-0.7c-0.4-0.2-0.8-0.3-1.3-0.3c-1.1,0-1.8,0.4-2.1,1.3h-0.1V32h-1.2V42.3z M71.3,34.8
	c0-0.3,0-0.6,0.1-0.8c0.1-0.3,0.2-0.5,0.4-0.7c0.2-0.2,0.4-0.4,0.6-0.5c0.2-0.1,0.5-0.2,0.8-0.2c0.3,0,0.6,0.1,0.8,0.2
	c0.3,0.1,0.5,0.3,0.7,0.5c0.2,0.2,0.3,0.5,0.5,0.9c0.1,0.4,0.2,0.8,0.2,1.3c0,0.5-0.1,1-0.2,1.3c-0.1,0.4-0.3,0.7-0.5,0.9
	c-0.2,0.2-0.4,0.4-0.7,0.5c-0.3,0.1-0.5,0.2-0.8,0.2c-0.3,0-0.5-0.1-0.7-0.2c-0.2-0.1-0.4-0.3-0.6-0.5c-0.2-0.2-0.3-0.5-0.4-0.8
	c-0.1-0.3-0.2-0.6-0.2-1V34.8z"/>
<path d="M79.5,32.6h3.2v6.3h1.2V32h-5.5v6.8h1.2V32.6z"/>
<path d="M88.8,37.3L86.5,32h-1.2l3.1,6.7l-0.7,1.8c-0.1,0.2-0.2,0.4-0.3,0.5c-0.1,0.1-0.3,0.2-0.5,0.2c-0.2,0-0.3-0.1-0.5-0.2
	C86.1,41,86,40.9,86,40.7l-0.6,1.1c0.2,0.2,0.4,0.3,0.6,0.3c0.2,0.1,0.4,0.1,0.6,0.1c0.3,0,0.5-0.1,0.7-0.2c0.2-0.1,0.4-0.3,0.5-0.5
	c0.1-0.2,0.3-0.4,0.4-0.7c0.1-0.2,0.2-0.5,0.3-0.7l3.3-8.1H91L88.8,37.3L88.8,37.3z"/>
<path d="M95.3,36l2.1,2.8h1.4L96,35.1l2.3-3.1h-0.8l-1.9,2.6L93.7,32h-1.4l2.6,3.5l-2.5,3.4h0.8L95.3,36z"/>
<path d="M107,35.5c0,0.5-0.1,0.9-0.2,1.4c-0.2,0.4-0.4,0.8-0.7,1.1c-0.3,0.3-0.7,0.6-1.1,0.8c-0.4,0.2-0.9,0.3-1.4,0.3
	c-0.5,0-1-0.1-1.5-0.3c-0.4-0.2-0.8-0.5-1.1-0.8c-0.3-0.3-0.5-0.7-0.7-1.1c-0.2-0.4-0.2-0.9-0.2-1.4c0-0.5,0.1-0.9,0.2-1.4
	c0.2-0.4,0.4-0.8,0.7-1.1c0.3-0.3,0.7-0.6,1.1-0.8c0.4-0.2,0.9-0.3,1.5-0.3c0.5,0,1,0.1,1.4,0.3c0.4,0.2,0.8,0.5,1.1,0.8
	c0.3,0.3,0.5,0.7,0.7,1.1C106.9,34.5,107,35,107,35.5z M105.7,35.5c0-0.6-0.1-1.2-0.2-1.5c-0.1-0.4-0.3-0.7-0.5-0.9
	c-0.2-0.2-0.5-0.4-0.7-0.4c-0.3-0.1-0.5-0.1-0.8-0.1c-0.2,0-0.5,0-0.8,0.1c-0.3,0.1-0.5,0.2-0.7,0.4c-0.2,0.2-0.4,0.5-0.5,0.9
	c-0.1,0.4-0.2,0.9-0.2,1.5c0,0.6,0.1,1.1,0.2,1.5c0.1,0.4,0.3,0.7,0.5,0.9c0.2,0.2,0.5,0.4,0.7,0.5c0.3,0.1,0.5,0.1,0.8,0.1
	c0.2,0,0.5,0,0.8-0.1c0.3-0.1,0.5-0.2,0.7-0.5c0.2-0.2,0.4-0.5,0.5-0.9C105.6,36.6,105.7,36.1,105.7,35.5z"/>
<path d="M108.7,32v6.8h3.1c0.4,0,0.8,0,1.1-0.2c0.3-0.1,0.6-0.2,0.8-0.4c0.2-0.2,0.3-0.4,0.4-0.6c0.1-0.2,0.1-0.4,0.1-0.7
	c0-0.3-0.1-0.6-0.2-0.9c-0.1-0.2-0.3-0.4-0.5-0.5c-0.2-0.1-0.4-0.2-0.7-0.3c-0.2-0.1-0.4-0.1-0.6-0.1v-0.1c0.2,0,0.4-0.1,0.5-0.2
	c0.2-0.1,0.3-0.2,0.5-0.3c0.1-0.1,0.3-0.3,0.3-0.5c0.1-0.2,0.1-0.4,0.1-0.6c0-0.1,0-0.3-0.1-0.5c0-0.2-0.1-0.4-0.3-0.5
	c-0.2-0.2-0.4-0.3-0.7-0.4c-0.3-0.1-0.7-0.2-1.2-0.2H108.7z M109.9,38.3v-2.7h1.2c0.1,0,0.3,0,0.5,0c0.2,0,0.4,0.1,0.7,0.2
	c0.2,0.1,0.4,0.2,0.5,0.4c0.2,0.2,0.2,0.5,0.2,0.8c0,0.3-0.1,0.6-0.2,0.8c-0.1,0.2-0.3,0.3-0.5,0.4c-0.2,0.1-0.4,0.1-0.6,0.2
	c-0.2,0-0.3,0-0.4,0H109.9z M109.9,35.1v-2.6h1.4c0.3,0,0.6,0,0.7,0.1c0.2,0.1,0.3,0.2,0.4,0.3c0.1,0.1,0.2,0.3,0.2,0.4
	c0,0.1,0.1,0.3,0.1,0.4c0,0.2,0,0.4-0.1,0.6c-0.1,0.2-0.2,0.3-0.3,0.4c-0.1,0.1-0.3,0.2-0.5,0.3c-0.2,0.1-0.4,0.1-0.6,0.1H109.9z"/>
<path d="M117.2,35.6V32h-1.2v6.8h1.2v-2.4l0.8-0.8l1.7,2.2c0.1,0.1,0.2,0.3,0.3,0.4c0.1,0.1,0.2,0.3,0.4,0.4
	c0.1,0.1,0.3,0.2,0.4,0.3c0.2,0.1,0.3,0.1,0.5,0.1c0.2,0,0.3,0,0.5-0.1c0.2,0,0.3-0.1,0.4-0.1v-0.5h-0.4c-0.1,0-0.2,0-0.3-0.1
	c-0.1-0.1-0.2-0.1-0.4-0.2c-0.1-0.1-0.2-0.2-0.4-0.3c-0.1-0.1-0.2-0.3-0.3-0.4l-1.8-2.3l2.8-2.9h-0.9L117.2,35.6z"/>
<path d="M129.7,35.8v-0.3c0-0.6-0.1-1.1-0.3-1.6c-0.2-0.4-0.4-0.8-0.7-1.1c-0.3-0.3-0.6-0.5-1-0.7c-0.4-0.1-0.8-0.2-1.2-0.2
	c-0.5,0-0.9,0.1-1.3,0.2c-0.4,0.2-0.7,0.4-1,0.7c-0.3,0.3-0.5,0.7-0.7,1.1c-0.2,0.4-0.2,0.9-0.2,1.5c0,0.5,0.1,0.9,0.2,1.3
	c0.1,0.4,0.4,0.8,0.6,1.2c0.3,0.3,0.7,0.6,1.1,0.8c0.4,0.2,1,0.3,1.6,0.3c0.6,0,1.1-0.1,1.6-0.3c0.5-0.2,0.9-0.5,1.3-0.9l-0.4-0.4
	c-0.2,0.2-0.4,0.3-0.5,0.5c-0.2,0.1-0.3,0.3-0.5,0.3c-0.2,0.1-0.4,0.2-0.5,0.2c-0.2,0-0.4,0.1-0.6,0.1c-0.3,0-0.5,0-0.8-0.1
	c-0.3-0.1-0.5-0.2-0.8-0.4c-0.2-0.2-0.4-0.5-0.6-0.8s-0.2-0.8-0.2-1.4H129.7z M124.5,35.2c0-0.4,0-0.7,0.1-1.1
	c0.1-0.3,0.2-0.7,0.4-0.9c0.2-0.3,0.4-0.5,0.6-0.6c0.2-0.2,0.5-0.2,0.9-0.2c0.6,0,1.1,0.3,1.5,0.8c0.4,0.5,0.5,1.2,0.5,2.1H124.5z"
	/>
</svg>
