<svg width="390" height="398" viewBox="0 0 390 398" fill="none" xmlns="http://www.w3.org/2000/svg">
<circle cx="205.133" cy="60.7604" r="2.52212" fill="#C83956"/>
<circle cx="52.1237" cy="60.7604" r="2.52212" fill="#C83956"/>
<circle cx="52.1237" cy="108.682" r="2.52212" fill="#C83956"/>
<circle cx="234.557" cy="108.682" r="2.52212" fill="#C83956"/>
<circle cx="242.965" cy="195.272" r="2.52212" fill="#C83956"/>
<circle cx="70.6198" cy="195.272" r="2.52212" fill="#C83956"/>
<circle cx="215.221" cy="108.682" r="2.52212" fill="#C83956"/>
<circle cx="223.628" cy="195.272" r="2.52212" fill="#C83956"/>
<circle cx="51.2838" cy="195.272" r="2.52212" fill="#C83956"/>
<circle cx="52.1237" cy="147.354" r="2.52212" fill="#C83956"/>
<circle cx="234.557" cy="147.354" r="2.52212" fill="#C83956"/>
<circle cx="242.965" cy="233.944" r="2.52212" fill="#C83956"/>
<circle cx="70.6198" cy="233.944" r="2.52212" fill="#C83956"/>
<circle cx="215.221" cy="147.354" r="2.52212" fill="#C83956"/>
<circle cx="223.628" cy="233.944" r="2.52212" fill="#C83956"/>
<circle cx="51.2838" cy="233.944" r="2.52212" fill="#C83956"/>
<circle cx="205.133" cy="79.2565" r="2.52212" fill="#C83956"/>
<circle cx="52.1237" cy="79.2565" r="2.52212" fill="#C83956"/>
<circle cx="52.1237" cy="127.178" r="2.52212" fill="#C83956"/>
<circle cx="234.557" cy="127.178" r="2.52212" fill="#C83956"/>
<circle cx="242.965" cy="213.772" r="2.52212" fill="#C83956"/>
<circle cx="70.6198" cy="213.772" r="2.52212" fill="#C83956"/>
<circle cx="215.221" cy="127.178" r="2.52212" fill="#C83956"/>
<circle cx="223.628" cy="213.772" r="2.52212" fill="#C83956"/>
<circle cx="51.2838" cy="213.772" r="2.52212" fill="#C83956"/>
<circle cx="52.1237" cy="165.85" r="2.52212" fill="#C83956"/>
<circle cx="234.557" cy="165.85" r="2.52212" fill="#C83956"/>
<circle cx="242.965" cy="252.444" r="2.52212" fill="#C83956"/>
<circle cx="70.6198" cy="252.444" r="2.52212" fill="#C83956"/>
<circle cx="215.221" cy="165.85" r="2.52212" fill="#C83956"/>
<circle cx="223.628" cy="252.444" r="2.52212" fill="#C83956"/>
<circle cx="51.2838" cy="252.444" r="2.52212" fill="#C83956"/>
<circle cx="224.469" cy="60.7604" r="2.52212" fill="#C83956"/>
<circle cx="71.4596" cy="60.7604" r="2.52212" fill="#C83956"/>
<circle cx="71.4596" cy="108.682" r="2.52212" fill="#C83956"/>
<circle cx="253.893" cy="108.682" r="2.52212" fill="#C83956"/>
<circle cx="262.301" cy="195.272" r="2.52212" fill="#C83956"/>
<circle cx="109.292" cy="195.272" r="2.52212" fill="#C83956"/>
<circle cx="71.4596" cy="147.354" r="2.52212" fill="#C83956"/>
<circle cx="253.893" cy="147.354" r="2.52212" fill="#C83956"/>
<circle cx="262.301" cy="233.944" r="2.52212" fill="#C83956"/>
<circle cx="109.292" cy="233.944" r="2.52212" fill="#C83956"/>
<circle cx="224.469" cy="79.2565" r="2.52212" fill="#C83956"/>
<circle cx="71.4596" cy="79.2565" r="2.52212" fill="#C83956"/>
<circle cx="71.4596" cy="127.178" r="2.52212" fill="#C83956"/>
<circle cx="253.893" cy="127.178" r="2.52212" fill="#C83956"/>
<circle cx="262.301" cy="213.772" r="2.52212" fill="#C83956"/>
<circle cx="109.292" cy="213.772" r="2.52212" fill="#C83956"/>
<circle cx="71.4596" cy="165.85" r="2.52212" fill="#C83956"/>
<circle cx="253.893" cy="165.85" r="2.52212" fill="#C83956"/>
<circle cx="262.301" cy="252.444" r="2.52212" fill="#C83956"/>
<circle cx="109.292" cy="252.444" r="2.52212" fill="#C83956"/>
<circle cx="242.965" cy="60.7604" r="2.52212" fill="#C83956"/>
<circle cx="89.9557" cy="60.7604" r="2.52212" fill="#C83956"/>
<circle cx="89.9557" cy="108.682" r="2.52212" fill="#C83956"/>
<circle cx="272.389" cy="108.682" r="2.52212" fill="#C83956"/>
<circle cx="280.796" cy="195.272" r="2.52212" fill="#C83956"/>
<circle cx="127.788" cy="195.272" r="2.52212" fill="#C83956"/>
<circle cx="89.9557" cy="147.354" r="2.52212" fill="#C83956"/>
<circle cx="272.389" cy="147.354" r="2.52212" fill="#C83956"/>
<circle cx="280.796" cy="233.944" r="2.52212" fill="#C83956"/>
<circle cx="127.788" cy="233.944" r="2.52212" fill="#C83956"/>
<circle cx="242.965" cy="79.2565" r="2.52212" fill="#C83956"/>
<circle cx="89.9557" cy="79.2565" r="2.52212" fill="#C83956"/>
<circle cx="89.9557" cy="127.178" r="2.52212" fill="#C83956"/>
<circle cx="272.389" cy="127.178" r="2.52212" fill="#C83956"/>
<circle cx="280.796" cy="213.772" r="2.52212" fill="#C83956"/>
<circle cx="127.788" cy="213.772" r="2.52212" fill="#C83956"/>
<circle cx="89.9557" cy="165.85" r="2.52212" fill="#C83956"/>
<circle cx="272.389" cy="165.85" r="2.52212" fill="#C83956"/>
<circle cx="280.796" cy="252.444" r="2.52212" fill="#C83956"/>
<circle cx="127.788" cy="252.444" r="2.52212" fill="#C83956"/>
<circle cx="262.301" cy="60.7604" r="2.52212" fill="#C83956"/>
<circle cx="109.292" cy="60.7604" r="2.52212" fill="#C83956"/>
<circle cx="109.292" cy="108.682" r="2.52212" fill="#C83956"/>
<circle cx="291.725" cy="108.682" r="2.52212" fill="#C83956"/>
<circle cx="300.133" cy="195.272" r="2.52212" fill="#C83956"/>
<circle cx="147.124" cy="195.272" r="2.52212" fill="#C83956"/>
<circle cx="109.292" cy="147.354" r="2.52212" fill="#C83956"/>
<circle cx="291.725" cy="147.354" r="2.52212" fill="#C83956"/>
<circle cx="300.133" cy="233.944" r="2.52212" fill="#C83956"/>
<circle cx="147.124" cy="233.944" r="2.52212" fill="#C83956"/>
<circle cx="262.301" cy="79.2565" r="2.52212" fill="#C83956"/>
<circle cx="109.292" cy="79.2565" r="2.52212" fill="#C83956"/>
<circle cx="109.292" cy="127.178" r="2.52212" fill="#C83956"/>
<circle cx="291.725" cy="127.178" r="2.52212" fill="#C83956"/>
<circle cx="300.133" cy="213.772" r="2.52212" fill="#C83956"/>
<circle cx="147.124" cy="213.772" r="2.52212" fill="#C83956"/>
<circle cx="109.292" cy="165.85" r="2.52212" fill="#C83956"/>
<circle cx="291.725" cy="165.85" r="2.52212" fill="#C83956"/>
<circle cx="300.133" cy="252.444" r="2.52212" fill="#C83956"/>
<circle cx="147.124" cy="252.444" r="2.52212" fill="#C83956"/>
<circle cx="281.637" cy="60.7604" r="2.52212" fill="#C83956"/>
<circle cx="128.628" cy="60.7604" r="2.52212" fill="#C83956"/>
<circle cx="128.628" cy="108.682" r="2.52212" fill="#C83956"/>
<circle cx="311.061" cy="108.682" r="2.52212" fill="#C83956"/>
<circle cx="319.469" cy="195.272" r="2.52212" fill="#C83956"/>
<circle cx="166.46" cy="195.272" r="2.52212" fill="#C83956"/>
<circle cx="128.628" cy="147.354" r="2.52212" fill="#C83956"/>
<circle cx="311.061" cy="147.354" r="2.52212" fill="#C83956"/>
<circle cx="319.469" cy="233.944" r="2.52212" fill="#C83956"/>
<circle cx="166.46" cy="233.944" r="2.52212" fill="#C83956"/>
<circle cx="281.637" cy="79.2565" r="2.52212" fill="#C83956"/>
<circle cx="128.628" cy="79.2565" r="2.52212" fill="#C83956"/>
<circle cx="128.628" cy="127.178" r="2.52212" fill="#C83956"/>
<circle cx="311.061" cy="127.178" r="2.52212" fill="#C83956"/>
<circle cx="319.469" cy="213.772" r="2.52212" fill="#C83956"/>
<circle cx="166.46" cy="213.772" r="2.52212" fill="#C83956"/>
<circle cx="128.628" cy="165.85" r="2.52212" fill="#C83956"/>
<circle cx="311.061" cy="165.85" r="2.52212" fill="#C83956"/>
<circle cx="319.469" cy="252.444" r="2.52212" fill="#C83956"/>
<circle cx="166.46" cy="252.444" r="2.52212" fill="#C83956"/>
<circle cx="300.973" cy="60.7604" r="2.52212" fill="#C83956"/>
<circle cx="147.965" cy="60.7604" r="2.52212" fill="#C83956"/>
<circle cx="147.965" cy="108.682" r="2.52212" fill="#C83956"/>
<circle cx="330.399" cy="108.682" r="2.52212" fill="#C83956"/>
<circle cx="338.805" cy="195.272" r="2.52212" fill="#C83956"/>
<circle cx="185.796" cy="195.272" r="2.52212" fill="#C83956"/>
<circle cx="147.965" cy="147.354" r="2.52212" fill="#C83956"/>
<circle cx="330.399" cy="147.354" r="2.52212" fill="#C83956"/>
<circle cx="338.805" cy="233.944" r="2.52212" fill="#C83956"/>
<circle cx="185.796" cy="233.944" r="2.52212" fill="#C83956"/>
<circle cx="300.973" cy="79.2565" r="2.52212" fill="#C83956"/>
<circle cx="147.965" cy="79.2565" r="2.52212" fill="#C83956"/>
<circle cx="147.965" cy="127.178" r="2.52212" fill="#C83956"/>
<circle cx="330.399" cy="127.178" r="2.52212" fill="#C83956"/>
<circle cx="338.805" cy="213.772" r="2.52212" fill="#C83956"/>
<circle cx="185.796" cy="213.772" r="2.52212" fill="#C83956"/>
<circle cx="147.965" cy="165.85" r="2.52212" fill="#C83956"/>
<circle cx="330.399" cy="165.85" r="2.52212" fill="#C83956"/>
<circle cx="338.805" cy="252.444" r="2.52212" fill="#C83956"/>
<circle cx="185.796" cy="252.444" r="2.52212" fill="#C83956"/>
<circle cx="319.469" cy="60.7604" r="2.52212" fill="#C83956"/>
<circle cx="166.46" cy="60.7604" r="2.52212" fill="#C83956"/>
<circle cx="166.46" cy="108.682" r="2.52212" fill="#C83956"/>
<circle cx="348.893" cy="108.682" r="2.52212" fill="#C83956"/>
<circle cx="357.301" cy="195.272" r="2.52212" fill="#C83956"/>
<circle cx="204.292" cy="195.272" r="2.52212" fill="#C83956"/>
<circle cx="166.46" cy="147.354" r="2.52212" fill="#C83956"/>
<circle cx="348.893" cy="147.354" r="2.52212" fill="#C83956"/>
<circle cx="357.301" cy="233.944" r="2.52212" fill="#C83956"/>
<circle cx="204.292" cy="233.944" r="2.52212" fill="#C83956"/>
<circle cx="319.469" cy="79.2565" r="2.52212" fill="#C83956"/>
<circle cx="166.46" cy="79.2565" r="2.52212" fill="#C83956"/>
<circle cx="166.46" cy="127.178" r="2.52212" fill="#C83956"/>
<circle cx="348.893" cy="127.178" r="2.52212" fill="#C83956"/>
<circle cx="357.301" cy="213.772" r="2.52212" fill="#C83956"/>
<circle cx="204.292" cy="213.772" r="2.52212" fill="#C83956"/>
<circle cx="166.46" cy="165.85" r="2.52212" fill="#C83956"/>
<circle cx="348.893" cy="165.85" r="2.52212" fill="#C83956"/>
<circle cx="357.301" cy="252.444" r="2.52212" fill="#C83956"/>
<circle cx="204.292" cy="252.444" r="2.52212" fill="#C83956"/>
<circle cx="195.885" cy="70.0065" r="2.52212" fill="#C83956"/>
<circle cx="42.8756" cy="70.0065" r="2.52212" fill="#C83956"/>
<circle cx="42.8756" cy="117.928" r="2.52212" fill="#C83956"/>
<circle cx="225.309" cy="117.928" r="2.52212" fill="#C83956"/>
<circle cx="233.717" cy="204.522" r="2.52212" fill="#C83956"/>
<circle cx="61.3717" cy="204.522" r="2.52212" fill="#C83956"/>
<circle cx="205.973" cy="117.928" r="2.52212" fill="#C83956"/>
<circle cx="214.382" cy="204.522" r="2.52212" fill="#C83956"/>
<circle cx="42.0358" cy="204.522" r="2.52212" fill="#C83956"/>
<circle cx="42.8756" cy="156.6" r="2.52212" fill="#C83956"/>
<circle cx="225.309" cy="156.6" r="2.52212" fill="#C83956"/>
<circle cx="233.717" cy="243.194" r="2.52212" fill="#C83956"/>
<circle cx="61.3717" cy="243.194" r="2.52212" fill="#C83956"/>
<circle cx="205.973" cy="156.6" r="2.52212" fill="#C83956"/>
<circle cx="214.382" cy="243.194" r="2.52212" fill="#C83956"/>
<circle cx="42.0358" cy="243.194" r="2.52212" fill="#C83956"/>
<circle cx="215.221" cy="70.0065" r="2.52212" fill="#C83956"/>
<circle cx="62.2116" cy="70.0065" r="2.52212" fill="#C83956"/>
<circle cx="62.2116" cy="117.928" r="2.52212" fill="#C83956"/>
<circle cx="244.645" cy="117.928" r="2.52212" fill="#C83956"/>
<circle cx="253.053" cy="204.522" r="2.52212" fill="#C83956"/>
<circle cx="80.7077" cy="204.522" r="2.52212" fill="#C83956"/>
<circle cx="62.2116" cy="156.6" r="2.52212" fill="#C83956"/>
<circle cx="244.645" cy="156.6" r="2.52212" fill="#C83956"/>
<circle cx="253.053" cy="243.194" r="2.52212" fill="#C83956"/>
<circle cx="80.7077" cy="243.194" r="2.52212" fill="#C83956"/>
<circle cx="233.717" cy="70.0065" r="2.52212" fill="#C83956"/>
<circle cx="80.7077" cy="70.0065" r="2.52212" fill="#C83956"/>
<circle cx="80.7077" cy="117.928" r="2.52212" fill="#C83956"/>
<circle cx="263.141" cy="117.928" r="2.52212" fill="#C83956"/>
<circle cx="271.549" cy="204.522" r="2.52212" fill="#C83956"/>
<circle cx="118.54" cy="204.522" r="2.52212" fill="#C83956"/>
<circle cx="80.7077" cy="156.6" r="2.52212" fill="#C83956"/>
<circle cx="263.141" cy="156.6" r="2.52212" fill="#C83956"/>
<circle cx="271.549" cy="243.194" r="2.52212" fill="#C83956"/>
<circle cx="118.54" cy="243.194" r="2.52212" fill="#C83956"/>
<circle cx="253.053" cy="70.0065" r="2.52212" fill="#C83956"/>
<circle cx="100.044" cy="70.0065" r="2.52212" fill="#C83956"/>
<circle cx="100.044" cy="117.928" r="2.52212" fill="#C83956"/>
<circle cx="282.477" cy="117.928" r="2.52212" fill="#C83956"/>
<circle cx="290.885" cy="204.522" r="2.52212" fill="#C83956"/>
<circle cx="137.876" cy="204.522" r="2.52212" fill="#C83956"/>
<circle cx="100.044" cy="156.6" r="2.52212" fill="#C83956"/>
<circle cx="282.477" cy="156.6" r="2.52212" fill="#C83956"/>
<circle cx="290.885" cy="243.194" r="2.52212" fill="#C83956"/>
<circle cx="137.876" cy="243.194" r="2.52212" fill="#C83956"/>
<circle cx="272.389" cy="70.0065" r="2.52212" fill="#C83956"/>
<circle cx="119.382" cy="70.0065" r="2.52212" fill="#C83956"/>
<circle cx="119.382" cy="117.928" r="2.52212" fill="#C83956"/>
<circle cx="301.815" cy="117.928" r="2.52212" fill="#C83956"/>
<circle cx="310.221" cy="204.522" r="2.52212" fill="#C83956"/>
<circle cx="157.212" cy="204.522" r="2.52212" fill="#C83956"/>
<circle cx="119.382" cy="156.6" r="2.52212" fill="#C83956"/>
<circle cx="301.815" cy="156.6" r="2.52212" fill="#C83956"/>
<circle cx="310.221" cy="243.194" r="2.52212" fill="#C83956"/>
<circle cx="157.212" cy="243.194" r="2.52212" fill="#C83956"/>
<circle cx="291.725" cy="70.0065" r="2.52212" fill="#C83956"/>
<circle cx="138.717" cy="70.0065" r="2.52212" fill="#C83956"/>
<circle cx="138.717" cy="117.928" r="2.52212" fill="#C83956"/>
<circle cx="321.151" cy="117.928" r="2.52212" fill="#C83956"/>
<circle cx="329.557" cy="204.522" r="2.52212" fill="#C83956"/>
<circle cx="176.549" cy="204.522" r="2.52212" fill="#C83956"/>
<circle cx="138.717" cy="156.6" r="2.52212" fill="#C83956"/>
<circle cx="321.151" cy="156.6" r="2.52212" fill="#C83956"/>
<circle cx="329.557" cy="243.194" r="2.52212" fill="#C83956"/>
<circle cx="176.549" cy="243.194" r="2.52212" fill="#C83956"/>
<circle cx="310.221" cy="70.0065" r="2.52212" fill="#C83956"/>
<circle cx="157.212" cy="70.0065" r="2.52212" fill="#C83956"/>
<circle cx="157.212" cy="117.928" r="2.52212" fill="#C83956"/>
<circle cx="339.645" cy="117.928" r="2.52212" fill="#C83956"/>
<circle cx="348.053" cy="204.522" r="2.52212" fill="#C83956"/>
<circle cx="195.044" cy="204.522" r="2.52212" fill="#C83956"/>
<circle cx="157.212" cy="156.6" r="2.52212" fill="#C83956"/>
<circle cx="339.645" cy="156.6" r="2.52212" fill="#C83956"/>
<circle cx="348.053" cy="243.194" r="2.52212" fill="#C83956"/>
<circle cx="195.044" cy="243.194" r="2.52212" fill="#C83956"/>
<circle cx="329.557" cy="70.0065" r="2.52212" fill="#C83956"/>
<circle cx="176.549" cy="70.0065" r="2.52212" fill="#C83956"/>
<circle cx="176.549" cy="117.928" r="2.52212" fill="#C83956"/>
<circle cx="176.549" cy="156.6" r="2.52212" fill="#C83956"/>
<circle cx="195.885" cy="89.3424" r="2.52212" fill="#C83956"/>
<circle cx="42.8756" cy="89.3424" r="2.52212" fill="#C83956"/>
<circle cx="42.8756" cy="137.264" r="2.52212" fill="#C83956"/>
<circle cx="225.309" cy="137.264" r="2.52212" fill="#C83956"/>
<circle cx="233.717" cy="223.858" r="2.52212" fill="#C83956"/>
<circle cx="61.3717" cy="223.858" r="2.52212" fill="#C83956"/>
<circle cx="205.973" cy="137.264" r="2.52212" fill="#C83956"/>
<circle cx="214.382" cy="223.858" r="2.52212" fill="#C83956"/>
<circle cx="42.0358" cy="223.858" r="2.52212" fill="#C83956"/>
<circle cx="42.8756" cy="175.936" r="2.52212" fill="#C83956"/>
<circle cx="32.7878" cy="108.682" r="2.52212" fill="#C83956"/>
<circle cx="32.7878" cy="147.354" r="2.52212" fill="#C83956"/>
<circle cx="32.7878" cy="127.178" r="2.52212" fill="#C83956"/>
<circle cx="32.7878" cy="165.85" r="2.52212" fill="#C83956"/>
<circle cx="23.5397" cy="117.928" r="2.52212" fill="#C83956"/>
<circle cx="23.5397" cy="156.6" r="2.52212" fill="#C83956"/>
<circle cx="23.5397" cy="137.264" r="2.52212" fill="#C83956"/>
<circle cx="23.5397" cy="175.936" r="2.52212" fill="#C83956"/>
<circle cx="225.309" cy="175.936" r="2.52212" fill="#C83956"/>
<circle cx="233.717" cy="262.53" r="2.52212" fill="#C83956"/>
<circle cx="61.3717" cy="262.53" r="2.52212" fill="#C83956"/>
<circle cx="205.973" cy="175.936" r="2.52212" fill="#C83956"/>
<circle cx="214.382" cy="262.53" r="2.52212" fill="#C83956"/>
<circle cx="42.0358" cy="262.53" r="2.52212" fill="#C83956"/>
<circle cx="31.946" cy="195.272" r="2.52212" fill="#C83956"/>
<circle cx="12.611" cy="195.272" r="2.52212" fill="#C83956"/>
<circle cx="31.946" cy="233.944" r="2.52212" fill="#C83956"/>
<circle cx="12.611" cy="233.944" r="2.52212" fill="#C83956"/>
<circle cx="31.946" cy="213.772" r="2.52212" fill="#C83956"/>
<circle cx="12.611" cy="213.772" r="2.52212" fill="#C83956"/>
<circle cx="31.946" cy="252.444" r="2.52212" fill="#C83956"/>
<circle cx="12.611" cy="252.444" r="2.52212" fill="#C83956"/>
<circle cx="22.6999" cy="204.522" r="2.52212" fill="#C83956"/>
<circle cx="22.6999" cy="243.194" r="2.52212" fill="#C83956"/>
<circle cx="22.6999" cy="223.858" r="2.52212" fill="#C83956"/>
<circle cx="22.6999" cy="262.53" r="2.52212" fill="#C83956"/>
<circle cx="52.1237" cy="108.682" r="2.52212" fill="#C83956"/>
<circle cx="52.1237" cy="147.354" r="2.52212" fill="#C83956"/>
<circle cx="52.1237" cy="127.178" r="2.52212" fill="#C83956"/>
<circle cx="52.1237" cy="165.85" r="2.52212" fill="#C83956"/>
<circle cx="42.8756" cy="117.928" r="2.52212" fill="#C83956"/>
<circle cx="42.8756" cy="156.6" r="2.52212" fill="#C83956"/>
<circle cx="42.8756" cy="137.264" r="2.52212" fill="#C83956"/>
<circle cx="42.8756" cy="175.936" r="2.52212" fill="#C83956"/>
<circle cx="215.221" cy="89.3424" r="2.52212" fill="#C83956"/>
<circle cx="62.2116" cy="89.3424" r="2.52212" fill="#C83956"/>
<circle cx="62.2116" cy="137.264" r="2.52212" fill="#C83956"/>
<circle cx="244.645" cy="137.264" r="2.52212" fill="#C83956"/>
<circle cx="253.053" cy="223.858" r="2.52212" fill="#C83956"/>
<circle cx="80.7077" cy="223.858" r="2.52212" fill="#C83956"/>
<circle cx="62.2116" cy="175.936" r="2.52212" fill="#C83956"/>
<circle cx="244.645" cy="175.936" r="2.52212" fill="#C83956"/>
<circle cx="253.053" cy="262.53" r="2.52212" fill="#C83956"/>
<circle cx="80.7077" cy="262.53" r="2.52212" fill="#C83956"/>
<circle cx="233.717" cy="89.3424" r="2.52212" fill="#C83956"/>
<circle cx="80.7077" cy="89.3424" r="2.52212" fill="#C83956"/>
<circle cx="80.7077" cy="137.264" r="2.52212" fill="#C83956"/>
<circle cx="263.141" cy="137.264" r="2.52212" fill="#C83956"/>
<circle cx="271.549" cy="223.858" r="2.52212" fill="#C83956"/>
<circle cx="118.54" cy="223.858" r="2.52212" fill="#C83956"/>
<circle cx="80.7077" cy="175.936" r="2.52212" fill="#C83956"/>
<circle cx="263.141" cy="175.936" r="2.52212" fill="#C83956"/>
<circle cx="271.549" cy="262.53" r="2.52212" fill="#C83956"/>
<circle cx="118.54" cy="262.53" r="2.52212" fill="#C83956"/>
<circle cx="253.053" cy="89.3424" r="2.52212" fill="#C83956"/>
<circle cx="100.044" cy="89.3424" r="2.52212" fill="#C83956"/>
<circle cx="100.044" cy="137.264" r="2.52212" fill="#C83956"/>
<circle cx="282.477" cy="137.264" r="2.52212" fill="#C83956"/>
<circle cx="290.885" cy="223.858" r="2.52212" fill="#C83956"/>
<circle cx="137.876" cy="223.858" r="2.52212" fill="#C83956"/>
<circle cx="100.044" cy="175.936" r="2.52212" fill="#C83956"/>
<circle cx="282.477" cy="175.936" r="2.52212" fill="#C83956"/>
<circle cx="290.885" cy="262.53" r="2.52212" fill="#C83956"/>
<circle cx="137.876" cy="262.53" r="2.52212" fill="#C83956"/>
<circle cx="272.389" cy="89.3424" r="2.52212" fill="#C83956"/>
<circle cx="119.382" cy="89.3424" r="2.52212" fill="#C83956"/>
<circle cx="119.382" cy="137.264" r="2.52212" fill="#C83956"/>
<circle cx="301.815" cy="137.264" r="2.52212" fill="#C83956"/>
<circle cx="310.221" cy="223.858" r="2.52212" fill="#C83956"/>
<circle cx="157.212" cy="223.858" r="2.52212" fill="#C83956"/>
<circle cx="119.382" cy="175.936" r="2.52212" fill="#C83956"/>
<circle cx="301.815" cy="175.936" r="2.52212" fill="#C83956"/>
<circle cx="310.221" cy="262.53" r="2.52212" fill="#C83956"/>
<circle cx="157.212" cy="262.53" r="2.52212" fill="#C83956"/>
<circle cx="291.725" cy="89.3424" r="2.52212" fill="#C83956"/>
<circle cx="138.717" cy="89.3424" r="2.52212" fill="#C83956"/>
<circle cx="138.717" cy="137.264" r="2.52212" fill="#C83956"/>
<circle cx="321.151" cy="137.264" r="2.52212" fill="#C83956"/>
<circle cx="329.557" cy="223.858" r="2.52212" fill="#C83956"/>
<circle cx="176.549" cy="223.858" r="2.52212" fill="#C83956"/>
<circle cx="138.717" cy="175.936" r="2.52212" fill="#C83956"/>
<circle cx="321.151" cy="175.936" r="2.52212" fill="#C83956"/>
<circle cx="329.557" cy="262.53" r="2.52212" fill="#C83956"/>
<circle cx="176.549" cy="262.53" r="2.52212" fill="#C83956"/>
<circle cx="310.221" cy="89.3424" r="2.52212" fill="#C83956"/>
<circle cx="157.212" cy="89.3424" r="2.52212" fill="#C83956"/>
<circle cx="157.212" cy="137.264" r="2.52212" fill="#C83956"/>
<circle cx="339.645" cy="137.264" r="2.52212" fill="#C83956"/>
<circle cx="348.053" cy="223.858" r="2.52212" fill="#C83956"/>
<circle cx="195.044" cy="223.858" r="2.52212" fill="#C83956"/>
<circle cx="157.212" cy="175.936" r="2.52212" fill="#C83956"/>
<circle cx="339.645" cy="175.936" r="2.52212" fill="#C83956"/>
<circle cx="348.053" cy="262.53" r="2.52212" fill="#C83956"/>
<circle cx="195.044" cy="262.53" r="2.52212" fill="#C83956"/>
<circle cx="242.965" cy="338.311" r="2.52212" fill="#C83956"/>
<circle cx="70.6198" cy="338.311" r="2.52212" fill="#C83956"/>
<circle cx="223.628" cy="338.311" r="2.52212" fill="#C83956"/>
<circle cx="51.2838" cy="338.311" r="2.52212" fill="#C83956"/>
<circle cx="242.965" cy="376.983" r="2.52212" fill="#C83956"/>
<circle cx="70.6198" cy="376.983" r="2.52212" fill="#C83956"/>
<circle cx="223.628" cy="376.983" r="2.52212" fill="#C83956"/>
<circle cx="51.2838" cy="376.983" r="2.52212" fill="#C83956"/>
<circle cx="242.965" cy="356.803" r="2.52212" fill="#C83956"/>
<circle cx="70.6198" cy="356.803" r="2.52212" fill="#C83956"/>
<circle cx="223.628" cy="356.803" r="2.52212" fill="#C83956"/>
<circle cx="51.2838" cy="356.803" r="2.52212" fill="#C83956"/>
<circle cx="242.965" cy="395.475" r="2.52212" fill="#C83956"/>
<circle cx="70.6198" cy="395.475" r="2.52212" fill="#C83956"/>
<circle cx="223.628" cy="395.475" r="2.52212" fill="#C83956"/>
<circle cx="51.2838" cy="395.475" r="2.52212" fill="#C83956"/>
<circle cx="262.301" cy="338.311" r="2.52212" fill="#C83956"/>
<circle cx="109.292" cy="338.311" r="2.52212" fill="#C83956"/>
<circle cx="262.301" cy="376.983" r="2.52212" fill="#C83956"/>
<circle cx="109.292" cy="376.983" r="2.52212" fill="#C83956"/>
<circle cx="262.301" cy="356.803" r="2.52212" fill="#C83956"/>
<circle cx="109.292" cy="356.803" r="2.52212" fill="#C83956"/>
<circle cx="262.301" cy="395.475" r="2.52212" fill="#C83956"/>
<circle cx="109.292" cy="395.475" r="2.52212" fill="#C83956"/>
<circle cx="280.796" cy="338.311" r="2.52212" fill="#C83956"/>
<circle cx="127.788" cy="338.311" r="2.52212" fill="#C83956"/>
<circle cx="280.796" cy="376.983" r="2.52212" fill="#C83956"/>
<circle cx="127.788" cy="376.983" r="2.52212" fill="#C83956"/>
<circle cx="280.796" cy="356.803" r="2.52212" fill="#C83956"/>
<circle cx="127.788" cy="356.803" r="2.52212" fill="#C83956"/>
<circle cx="280.796" cy="395.475" r="2.52212" fill="#C83956"/>
<circle cx="127.788" cy="395.475" r="2.52212" fill="#C83956"/>
<circle cx="300.133" cy="338.311" r="2.52212" fill="#C83956"/>
<circle cx="147.124" cy="338.311" r="2.52212" fill="#C83956"/>
<circle cx="300.133" cy="376.983" r="2.52212" fill="#C83956"/>
<circle cx="147.124" cy="376.983" r="2.52212" fill="#C83956"/>
<circle cx="300.133" cy="356.803" r="2.52212" fill="#C83956"/>
<circle cx="147.124" cy="356.803" r="2.52212" fill="#C83956"/>
<circle cx="300.133" cy="395.475" r="2.52212" fill="#C83956"/>
<circle cx="147.124" cy="395.475" r="2.52212" fill="#C83956"/>
<circle cx="319.469" cy="338.311" r="2.52212" fill="#C83956"/>
<circle cx="166.46" cy="338.311" r="2.52212" fill="#C83956"/>
<circle cx="319.469" cy="376.983" r="2.52212" fill="#C83956"/>
<circle cx="166.46" cy="376.983" r="2.52212" fill="#C83956"/>
<circle cx="319.469" cy="356.803" r="2.52212" fill="#C83956"/>
<circle cx="166.46" cy="356.803" r="2.52212" fill="#C83956"/>
<circle cx="319.469" cy="395.475" r="2.52212" fill="#C83956"/>
<circle cx="166.46" cy="395.475" r="2.52212" fill="#C83956"/>
<circle cx="338.805" cy="338.311" r="2.52212" fill="#C83956"/>
<circle cx="185.796" cy="338.311" r="2.52212" fill="#C83956"/>
<circle cx="338.805" cy="376.983" r="2.52212" fill="#C83956"/>
<circle cx="185.796" cy="376.983" r="2.52212" fill="#C83956"/>
<circle cx="338.805" cy="356.803" r="2.52212" fill="#C83956"/>
<circle cx="185.796" cy="356.803" r="2.52212" fill="#C83956"/>
<circle cx="338.805" cy="395.475" r="2.52212" fill="#C83956"/>
<circle cx="185.796" cy="395.475" r="2.52212" fill="#C83956"/>
<circle cx="357.301" cy="338.311" r="2.52212" fill="#C83956"/>
<circle cx="204.292" cy="338.311" r="2.52212" fill="#C83956"/>
<circle cx="357.301" cy="376.983" r="2.52212" fill="#C83956"/>
<circle cx="204.292" cy="376.983" r="2.52212" fill="#C83956"/>
<circle cx="357.301" cy="356.803" r="2.52212" fill="#C83956"/>
<circle cx="204.292" cy="356.803" r="2.52212" fill="#C83956"/>
<circle cx="357.301" cy="395.475" r="2.52212" fill="#C83956"/>
<circle cx="204.292" cy="395.475" r="2.52212" fill="#C83956"/>
<circle cx="233.717" cy="347.557" r="2.52212" fill="#C83956"/>
<circle cx="61.3717" cy="347.557" r="2.52212" fill="#C83956"/>
<circle cx="214.382" cy="347.557" r="2.52212" fill="#C83956"/>
<circle cx="42.0358" cy="347.557" r="2.52212" fill="#C83956"/>
<circle cx="233.717" cy="386.229" r="2.52212" fill="#C83956"/>
<circle cx="61.3717" cy="386.229" r="2.52212" fill="#C83956"/>
<circle cx="214.382" cy="386.229" r="2.52212" fill="#C83956"/>
<circle cx="42.0358" cy="386.229" r="2.52212" fill="#C83956"/>
<circle cx="253.053" cy="347.557" r="2.52212" fill="#C83956"/>
<circle cx="80.7077" cy="347.557" r="2.52212" fill="#C83956"/>
<circle cx="253.053" cy="386.229" r="2.52212" fill="#C83956"/>
<circle cx="80.7077" cy="386.229" r="2.52212" fill="#C83956"/>
<circle cx="271.549" cy="347.557" r="2.52212" fill="#C83956"/>
<circle cx="118.54" cy="347.557" r="2.52212" fill="#C83956"/>
<circle cx="271.549" cy="386.229" r="2.52212" fill="#C83956"/>
<circle cx="118.54" cy="386.229" r="2.52212" fill="#C83956"/>
<circle cx="290.885" cy="347.557" r="2.52212" fill="#C83956"/>
<circle cx="137.876" cy="347.557" r="2.52212" fill="#C83956"/>
<circle cx="290.885" cy="386.229" r="2.52212" fill="#C83956"/>
<circle cx="137.876" cy="386.229" r="2.52212" fill="#C83956"/>
<circle cx="310.221" cy="347.557" r="2.52212" fill="#C83956"/>
<circle cx="157.212" cy="347.557" r="2.52212" fill="#C83956"/>
<circle cx="310.221" cy="386.229" r="2.52212" fill="#C83956"/>
<circle cx="157.212" cy="386.229" r="2.52212" fill="#C83956"/>
<circle cx="329.557" cy="347.557" r="2.52212" fill="#C83956"/>
<circle cx="176.549" cy="347.557" r="2.52212" fill="#C83956"/>
<circle cx="329.557" cy="386.229" r="2.52212" fill="#C83956"/>
<circle cx="176.549" cy="386.229" r="2.52212" fill="#C83956"/>
<circle cx="348.053" cy="347.557" r="2.52212" fill="#C83956"/>
<circle cx="195.044" cy="347.557" r="2.52212" fill="#C83956"/>
<circle cx="348.053" cy="386.229" r="2.52212" fill="#C83956"/>
<circle cx="376.637" cy="376.983" r="2.52212" fill="#C83956"/>
<circle cx="376.637" cy="395.475" r="2.52212" fill="#C83956"/>
<circle cx="367.389" cy="386.229" r="2.52212" fill="#C83956"/>
<ellipse cx="387.041" cy="386.229" rx="2.83739" ry="2.52212" fill="#C83956"/>
<circle cx="195.044" cy="386.229" r="2.52212" fill="#C83956"/>
<circle cx="233.717" cy="366.893" r="2.52212" fill="#C83956"/>
<circle cx="61.3717" cy="366.893" r="2.52212" fill="#C83956"/>
<circle cx="214.382" cy="366.893" r="2.52212" fill="#C83956"/>
<circle cx="42.0358" cy="366.893" r="2.52212" fill="#C83956"/>
<circle cx="31.946" cy="338.311" r="2.52212" fill="#C83956"/>
<circle cx="12.611" cy="338.311" r="2.52212" fill="#C83956"/>
<circle cx="31.946" cy="376.983" r="2.52212" fill="#C83956"/>
<circle cx="12.611" cy="376.983" r="2.52212" fill="#C83956"/>
<circle cx="31.946" cy="356.803" r="2.52212" fill="#C83956"/>
<circle cx="12.611" cy="356.803" r="2.52212" fill="#C83956"/>
<circle cx="31.946" cy="395.475" r="2.52212" fill="#C83956"/>
<circle cx="12.611" cy="395.475" r="2.52212" fill="#C83956"/>
<circle cx="22.6999" cy="347.557" r="2.52212" fill="#C83956"/>
<circle cx="22.6999" cy="386.229" r="2.52212" fill="#C83956"/>
<circle cx="2.52212" cy="386.229" r="2.52212" fill="#C83956"/>
<circle cx="22.6999" cy="366.893" r="2.52212" fill="#C83956"/>
<circle cx="253.053" cy="366.893" r="2.52212" fill="#C83956"/>
<circle cx="80.7077" cy="366.893" r="2.52212" fill="#C83956"/>
<circle cx="271.549" cy="366.893" r="2.52212" fill="#C83956"/>
<circle cx="118.54" cy="366.893" r="2.52212" fill="#C83956"/>
<circle cx="290.885" cy="366.893" r="2.52212" fill="#C83956"/>
<circle cx="137.876" cy="366.893" r="2.52212" fill="#C83956"/>
<circle cx="310.221" cy="366.893" r="2.52212" fill="#C83956"/>
<circle cx="157.212" cy="366.893" r="2.52212" fill="#C83956"/>
<circle cx="329.557" cy="366.893" r="2.52212" fill="#C83956"/>
<circle cx="176.549" cy="366.893" r="2.52212" fill="#C83956"/>
<circle cx="348.053" cy="366.893" r="2.52212" fill="#C83956"/>
<circle cx="195.044" cy="366.893" r="2.52212" fill="#C83956"/>
<circle cx="242.965" cy="307.202" r="2.52212" fill="#C83956"/>
<circle cx="70.6198" cy="307.202" r="2.52212" fill="#C83956"/>
<circle cx="223.628" cy="307.202" r="2.52212" fill="#C83956"/>
<circle cx="51.2838" cy="307.202" r="2.52212" fill="#C83956"/>
<circle cx="262.301" cy="307.202" r="2.52212" fill="#C83956"/>
<circle cx="109.292" cy="307.202" r="2.52212" fill="#C83956"/>
<circle cx="280.796" cy="307.202" r="2.52212" fill="#C83956"/>
<circle cx="127.788" cy="307.202" r="2.52212" fill="#C83956"/>
<circle cx="300.133" cy="307.202" r="2.52212" fill="#C83956"/>
<circle cx="147.124" cy="307.202" r="2.52212" fill="#C83956"/>
<circle cx="319.469" cy="307.202" r="2.52212" fill="#C83956"/>
<circle cx="166.46" cy="307.202" r="2.52212" fill="#C83956"/>
<circle cx="338.805" cy="307.202" r="2.52212" fill="#C83956"/>
<circle cx="185.796" cy="307.202" r="2.52212" fill="#C83956"/>
<circle cx="357.301" cy="307.202" r="2.52212" fill="#C83956"/>
<circle cx="204.292" cy="307.202" r="2.52212" fill="#C83956"/>
<circle cx="233.717" cy="297.956" r="2.52212" fill="#C83956"/>
<circle cx="61.3717" cy="297.956" r="2.52212" fill="#C83956"/>
<circle cx="214.382" cy="297.956" r="2.52212" fill="#C83956"/>
<circle cx="42.0358" cy="297.956" r="2.52212" fill="#C83956"/>
<circle cx="253.053" cy="297.956" r="2.52212" fill="#C83956"/>
<circle cx="80.7077" cy="297.956" r="2.52212" fill="#C83956"/>
<circle cx="271.549" cy="297.956" r="2.52212" fill="#C83956"/>
<circle cx="118.54" cy="297.956" r="2.52212" fill="#C83956"/>
<circle cx="290.885" cy="297.956" r="2.52212" fill="#C83956"/>
<circle cx="137.876" cy="297.956" r="2.52212" fill="#C83956"/>
<circle cx="310.221" cy="297.956" r="2.52212" fill="#C83956"/>
<circle cx="157.212" cy="297.956" r="2.52212" fill="#C83956"/>
<circle cx="329.557" cy="297.956" r="2.52212" fill="#C83956"/>
<circle cx="176.549" cy="297.956" r="2.52212" fill="#C83956"/>
<circle cx="348.053" cy="297.956" r="2.52212" fill="#C83956"/>
<circle cx="195.044" cy="297.956" r="2.52212" fill="#C83956"/>
<circle cx="233.717" cy="317.292" r="2.52212" fill="#C83956"/>
<circle cx="61.3717" cy="317.292" r="2.52212" fill="#C83956"/>
<circle cx="214.382" cy="317.292" r="2.52212" fill="#C83956"/>
<circle cx="42.0358" cy="317.292" r="2.52212" fill="#C83956"/>
<circle cx="31.946" cy="307.202" r="2.52212" fill="#C83956"/>
<circle cx="12.611" cy="307.202" r="2.52212" fill="#C83956"/>
<circle cx="22.6999" cy="297.956" r="2.52212" fill="#C83956"/>
<circle cx="22.6999" cy="317.292" r="2.52212" fill="#C83956"/>
<circle cx="253.053" cy="317.292" r="2.52212" fill="#C83956"/>
<circle cx="80.7077" cy="317.292" r="2.52212" fill="#C83956"/>
<circle cx="271.549" cy="317.292" r="2.52212" fill="#C83956"/>
<circle cx="118.54" cy="317.292" r="2.52212" fill="#C83956"/>
<circle cx="290.885" cy="317.292" r="2.52212" fill="#C83956"/>
<circle cx="137.876" cy="317.292" r="2.52212" fill="#C83956"/>
<circle cx="310.221" cy="317.292" r="2.52212" fill="#C83956"/>
<circle cx="157.212" cy="317.292" r="2.52212" fill="#C83956"/>
<circle cx="329.557" cy="317.292" r="2.52212" fill="#C83956"/>
<circle cx="176.549" cy="317.292" r="2.52212" fill="#C83956"/>
<circle cx="348.053" cy="317.292" r="2.52212" fill="#C83956"/>
<circle cx="195.044" cy="317.292" r="2.52212" fill="#C83956"/>
<circle cx="329.557" cy="89.3424" r="2.52212" fill="#C83956"/>
<circle cx="176.549" cy="89.3424" r="2.52212" fill="#C83956"/>
<circle cx="176.549" cy="137.264" r="2.52212" fill="#C83956"/>
<circle cx="176.549" cy="175.936" r="2.52212" fill="#C83956"/>
<path d="M26.0625 10.0859C113.459 26.5123 243.681 29.469 346.372 10.0859" stroke="#C7C7C7" stroke-width="4"/>
<path d="M175.714 40.3H169.103V48H170.104V40.905H174.713V48H175.714V40.3ZM179.936 42.379C180.472 42.379 180.886 42.456 181.179 42.61C181.473 42.7567 181.685 42.951 181.817 43.193C181.957 43.435 182.037 43.7137 182.059 44.029C182.081 44.3443 182.092 44.667 182.092 44.997V48H181.201V47.461C180.989 47.6663 180.717 47.8313 180.387 47.956C180.057 48.0733 179.727 48.132 179.397 48.132C179.082 48.132 178.803 48.077 178.561 47.967C178.319 47.857 178.118 47.714 177.956 47.538C177.795 47.362 177.674 47.164 177.593 46.944C177.513 46.724 177.472 46.5003 177.472 46.273C177.472 46.0383 177.516 45.8037 177.604 45.569C177.692 45.3343 177.824 45.1253 178 44.942C178.176 44.7513 178.393 44.5973 178.649 44.48C178.906 44.3627 179.199 44.304 179.529 44.304C179.859 44.304 180.171 44.37 180.464 44.502C180.765 44.6267 181.011 44.8063 181.201 45.041V44.568C181.201 43.9667 181.11 43.5193 180.926 43.226C180.75 42.9327 180.424 42.786 179.947 42.786C179.742 42.786 179.562 42.8117 179.408 42.863C179.254 42.9143 179.115 42.9877 178.99 43.083C178.873 43.171 178.763 43.2847 178.66 43.424C178.558 43.556 178.455 43.7063 178.352 43.875L177.78 43.303C177.883 43.193 177.989 43.083 178.099 42.973C178.217 42.863 178.356 42.764 178.517 42.676C178.686 42.588 178.884 42.5183 179.111 42.467C179.339 42.4083 179.614 42.379 179.936 42.379ZM181.201 45.822C181.165 45.734 181.11 45.6313 181.036 45.514C180.97 45.3967 180.882 45.283 180.772 45.173C180.662 45.063 180.53 44.9713 180.376 44.898C180.222 44.8173 180.039 44.777 179.826 44.777C179.614 44.777 179.419 44.821 179.243 44.909C179.067 44.9897 178.917 45.0997 178.792 45.239C178.675 45.371 178.583 45.5287 178.517 45.712C178.451 45.8953 178.418 46.086 178.418 46.284C178.418 46.5187 178.459 46.724 178.539 46.9C178.627 47.0687 178.737 47.2153 178.869 47.34C179.001 47.4573 179.148 47.5453 179.309 47.604C179.471 47.6627 179.625 47.692 179.771 47.692C179.911 47.692 180.05 47.6663 180.189 47.615C180.336 47.5637 180.472 47.494 180.596 47.406C180.728 47.3107 180.846 47.2007 180.948 47.076C181.051 46.9513 181.135 46.8157 181.201 46.669V45.822ZM183.853 50.75H184.788V47.098H184.832C184.905 47.2887 185 47.45 185.118 47.582C185.242 47.714 185.382 47.8203 185.536 47.901C185.69 47.9817 185.851 48.0403 186.02 48.077C186.196 48.1137 186.372 48.132 186.548 48.132C186.914 48.132 187.252 48.066 187.56 47.934C187.868 47.7947 188.132 47.6003 188.352 47.351C188.579 47.1017 188.755 46.801 188.88 46.449C189.004 46.0897 189.067 45.6937 189.067 45.261C189.067 44.821 189.004 44.425 188.88 44.073C188.755 43.721 188.579 43.4203 188.352 43.171C188.132 42.9143 187.868 42.72 187.56 42.588C187.252 42.4487 186.914 42.379 186.548 42.379C185.675 42.379 185.103 42.7163 184.832 43.391H184.788V42.5H183.853V50.75ZM184.788 44.7C184.788 44.458 184.824 44.2307 184.898 44.018C184.978 43.798 185.088 43.611 185.228 43.457C185.367 43.2957 185.528 43.171 185.712 43.083C185.902 42.9877 186.104 42.94 186.317 42.94C186.544 42.94 186.76 42.984 186.966 43.072C187.178 43.1527 187.362 43.2847 187.516 43.468C187.67 43.6513 187.791 43.8897 187.879 44.183C187.974 44.4763 188.022 44.8283 188.022 45.239C188.022 45.657 187.974 46.0127 187.879 46.306C187.791 46.5993 187.666 46.8413 187.505 47.032C187.351 47.2153 187.171 47.351 186.966 47.439C186.76 47.5197 186.544 47.56 186.317 47.56C186.111 47.56 185.917 47.5197 185.734 47.439C185.55 47.351 185.389 47.2263 185.25 47.065C185.11 46.8963 184.997 46.6947 184.909 46.46C184.828 46.2253 184.788 45.9577 184.788 45.657V44.7ZM192.031 48H192.966V42.94H195.166V42.5H189.831V42.94H192.031V48ZM201.155 45.492V45.261C201.155 44.7697 201.085 44.3443 200.946 43.985C200.806 43.6257 200.616 43.3287 200.374 43.094C200.139 42.8593 199.864 42.6833 199.549 42.566C199.233 42.4487 198.9 42.39 198.548 42.39C198.174 42.39 197.829 42.456 197.514 42.588C197.198 42.7127 196.923 42.8997 196.689 43.149C196.454 43.391 196.271 43.688 196.139 44.04C196.007 44.3847 195.941 44.777 195.941 45.217C195.941 45.5837 195.996 45.943 196.106 46.295C196.223 46.6397 196.395 46.9513 196.623 47.23C196.857 47.5013 197.151 47.7213 197.503 47.89C197.862 48.0513 198.284 48.132 198.768 48.132C199.237 48.132 199.67 48.0513 200.066 47.89C200.462 47.7213 200.806 47.483 201.1 47.175L200.748 46.823C200.594 46.955 200.447 47.076 200.308 47.186C200.176 47.296 200.04 47.3877 199.901 47.461C199.761 47.5343 199.615 47.593 199.461 47.637C199.314 47.6737 199.149 47.692 198.966 47.692C198.76 47.692 198.54 47.6627 198.306 47.604C198.078 47.538 197.866 47.4243 197.668 47.263C197.47 47.1017 197.305 46.878 197.173 46.592C197.041 46.306 196.975 45.9393 196.975 45.492H201.155ZM196.975 45.052C196.975 44.7587 197.004 44.4763 197.063 44.205C197.129 43.9263 197.224 43.6807 197.349 43.468C197.481 43.2553 197.646 43.0867 197.844 42.962C198.042 42.83 198.276 42.764 198.548 42.764C199.068 42.764 199.472 42.9693 199.758 43.38C200.051 43.7833 200.198 44.3407 200.198 45.052H196.975ZM202.587 50.75H203.522V47.098H203.566C203.639 47.2887 203.735 47.45 203.852 47.582C203.977 47.714 204.116 47.8203 204.27 47.901C204.424 47.9817 204.585 48.0403 204.754 48.077C204.93 48.1137 205.106 48.132 205.282 48.132C205.649 48.132 205.986 48.066 206.294 47.934C206.602 47.7947 206.866 47.6003 207.086 47.351C207.313 47.1017 207.489 46.801 207.614 46.449C207.739 46.0897 207.801 45.6937 207.801 45.261C207.801 44.821 207.739 44.425 207.614 44.073C207.489 43.721 207.313 43.4203 207.086 43.171C206.866 42.9143 206.602 42.72 206.294 42.588C205.986 42.4487 205.649 42.379 205.282 42.379C204.409 42.379 203.837 42.7163 203.566 43.391H203.522V42.5H202.587V50.75ZM203.522 44.7C203.522 44.458 203.559 44.2307 203.632 44.018C203.713 43.798 203.823 43.611 203.962 43.457C204.101 43.2957 204.263 43.171 204.446 43.083C204.637 42.9877 204.838 42.94 205.051 42.94C205.278 42.94 205.495 42.984 205.7 43.072C205.913 43.1527 206.096 43.2847 206.25 43.468C206.404 43.6513 206.525 43.8897 206.613 44.183C206.708 44.4763 206.756 44.8283 206.756 45.239C206.756 45.657 206.708 46.0127 206.613 46.306C206.525 46.5993 206.4 46.8413 206.239 47.032C206.085 47.2153 205.905 47.351 205.7 47.439C205.495 47.5197 205.278 47.56 205.051 47.56C204.846 47.56 204.651 47.5197 204.468 47.439C204.285 47.351 204.123 47.2263 203.984 47.065C203.845 46.8963 203.731 46.6947 203.643 46.46C203.562 46.2253 203.522 45.9577 203.522 45.657V44.7Z" fill="black"/>
<path d="M178.636 15.581C177.888 16.285 177 16.637 175.974 16.637C175.402 16.637 174.896 16.538 174.456 16.34C174.016 16.142 173.649 15.878 173.356 15.548C173.062 15.218 172.839 14.8367 172.685 14.404C172.538 13.9713 172.465 13.5203 172.465 13.051C172.465 12.5523 172.542 12.0977 172.696 11.687C172.857 11.269 173.081 10.9097 173.367 10.609C173.653 10.3083 173.99 10.0737 174.379 9.905C174.775 9.73633 175.204 9.652 175.666 9.652C175.981 9.652 176.267 9.68867 176.524 9.762C176.788 9.83533 177.019 9.93067 177.217 10.048C177.422 10.1653 177.587 10.301 177.712 10.455C177.844 10.6017 177.935 10.752 177.987 10.906H178.801C178.691 10.6567 178.548 10.4257 178.372 10.213C178.203 10.0003 177.99 9.817 177.734 9.663C177.477 9.509 177.176 9.388 176.832 9.3C176.487 9.212 176.095 9.168 175.655 9.168C175.017 9.168 174.434 9.25967 173.906 9.443C173.385 9.62633 172.938 9.89033 172.564 10.235C172.19 10.5723 171.9 10.983 171.695 11.467C171.489 11.9437 171.387 12.479 171.387 13.073C171.387 13.5863 171.467 14.0887 171.629 14.58C171.797 15.064 172.054 15.4967 172.399 15.878C172.743 16.252 173.183 16.5563 173.719 16.791C174.254 17.0183 174.892 17.132 175.633 17.132C176.102 17.132 176.52 17.088 176.887 17C177.261 16.912 177.583 16.8057 177.855 16.681C178.133 16.549 178.364 16.4097 178.548 16.263C178.731 16.1163 178.87 15.988 178.966 15.878L178.636 15.581ZM181.113 16.56V11.5H180.178V17H184.875V18.155H185.645V16.56H184.655V11.5H183.72V16.56H181.113ZM191.518 14.492V14.261C191.518 13.7697 191.449 13.3443 191.309 12.985C191.17 12.6257 190.979 12.3287 190.737 12.094C190.503 11.8593 190.228 11.6833 189.912 11.566C189.597 11.4487 189.263 11.39 188.911 11.39C188.537 11.39 188.193 11.456 187.877 11.588C187.562 11.7127 187.287 11.8997 187.052 12.149C186.818 12.391 186.634 12.688 186.502 13.04C186.37 13.3847 186.304 13.777 186.304 14.217C186.304 14.5837 186.359 14.943 186.469 15.295C186.587 15.6397 186.759 15.9513 186.986 16.23C187.221 16.5013 187.514 16.7213 187.866 16.89C188.226 17.0513 188.647 17.132 189.131 17.132C189.601 17.132 190.033 17.0513 190.429 16.89C190.825 16.7213 191.17 16.483 191.463 16.175L191.111 15.823C190.957 15.955 190.811 16.076 190.671 16.186C190.539 16.296 190.404 16.3877 190.264 16.461C190.125 16.5343 189.978 16.593 189.824 16.637C189.678 16.6737 189.513 16.692 189.329 16.692C189.124 16.692 188.904 16.6627 188.669 16.604C188.442 16.538 188.229 16.4243 188.031 16.263C187.833 16.1017 187.668 15.878 187.536 15.592C187.404 15.306 187.338 14.9393 187.338 14.492H191.518ZM187.338 14.052C187.338 13.7587 187.368 13.4763 187.426 13.205C187.492 12.9263 187.588 12.6807 187.712 12.468C187.844 12.2553 188.009 12.0867 188.207 11.962C188.405 11.83 188.64 11.764 188.911 11.764C189.432 11.764 189.835 11.9693 190.121 12.38C190.415 12.7833 190.561 13.3407 190.561 14.052H187.338ZM193.886 14.371H196.669V17H197.604V11.5H196.669V13.997H193.886V11.5H192.951V17H193.886V14.371ZM201.388 11.379C201.923 11.379 202.338 11.456 202.631 11.61C202.924 11.7567 203.137 11.951 203.269 12.193C203.408 12.435 203.489 12.7137 203.511 13.029C203.533 13.3443 203.544 13.667 203.544 13.997V17H202.653V16.461C202.44 16.6663 202.169 16.8313 201.839 16.956C201.509 17.0733 201.179 17.132 200.849 17.132C200.534 17.132 200.255 17.077 200.013 16.967C199.771 16.857 199.569 16.714 199.408 16.538C199.247 16.362 199.126 16.164 199.045 15.944C198.964 15.724 198.924 15.5003 198.924 15.273C198.924 15.0383 198.968 14.8037 199.056 14.569C199.144 14.3343 199.276 14.1253 199.452 13.942C199.628 13.7513 199.844 13.5973 200.101 13.48C200.358 13.3627 200.651 13.304 200.981 13.304C201.311 13.304 201.623 13.37 201.916 13.502C202.217 13.6267 202.462 13.8063 202.653 14.041V13.568C202.653 12.9667 202.561 12.5193 202.378 12.226C202.202 11.9327 201.876 11.786 201.399 11.786C201.194 11.786 201.014 11.8117 200.86 11.863C200.706 11.9143 200.567 11.9877 200.442 12.083C200.325 12.171 200.215 12.2847 200.112 12.424C200.009 12.556 199.907 12.7063 199.804 12.875L199.232 12.303C199.335 12.193 199.441 12.083 199.551 11.973C199.668 11.863 199.808 11.764 199.969 11.676C200.138 11.588 200.336 11.5183 200.563 11.467C200.79 11.4083 201.065 11.379 201.388 11.379ZM202.653 14.822C202.616 14.734 202.561 14.6313 202.488 14.514C202.422 14.3967 202.334 14.283 202.224 14.173C202.114 14.063 201.982 13.9713 201.828 13.898C201.674 13.8173 201.491 13.777 201.278 13.777C201.065 13.777 200.871 13.821 200.695 13.909C200.519 13.9897 200.369 14.0997 200.244 14.239C200.127 14.371 200.035 14.5287 199.969 14.712C199.903 14.8953 199.87 15.086 199.87 15.284C199.87 15.5187 199.91 15.724 199.991 15.9C200.079 16.0687 200.189 16.2153 200.321 16.34C200.453 16.4573 200.6 16.5453 200.761 16.604C200.922 16.6627 201.076 16.692 201.223 16.692C201.362 16.692 201.502 16.6663 201.641 16.615C201.788 16.5637 201.923 16.494 202.048 16.406C202.18 16.3107 202.297 16.2007 202.4 16.076C202.503 15.9513 202.587 15.8157 202.653 15.669V14.822Z" fill="black"/>
<path d="M163.368 280.905H167.064V280.3H162.367V288H164.897C165.477 288 165.95 287.934 166.316 287.802C166.69 287.67 166.984 287.501 167.196 287.296C167.409 287.083 167.556 286.849 167.636 286.592C167.724 286.335 167.768 286.079 167.768 285.822C167.768 285.565 167.724 285.309 167.636 285.052C167.556 284.795 167.405 284.564 167.185 284.359C166.973 284.154 166.679 283.989 166.305 283.864C165.939 283.732 165.469 283.666 164.897 283.666H163.368V280.905ZM163.368 287.538V284.15H164.82C165.106 284.15 165.363 284.194 165.59 284.282C165.825 284.37 166.019 284.491 166.173 284.645C166.335 284.799 166.459 284.986 166.547 285.206C166.635 285.419 166.679 285.65 166.679 285.899C166.679 286.163 166.628 286.398 166.525 286.603C166.423 286.808 166.287 286.981 166.118 287.12C165.957 287.252 165.766 287.355 165.546 287.428C165.334 287.501 165.114 287.538 164.886 287.538H163.368ZM174.191 285.492V285.261C174.191 284.77 174.122 284.344 173.982 283.985C173.843 283.626 173.652 283.329 173.41 283.094C173.176 282.859 172.901 282.683 172.585 282.566C172.27 282.449 171.936 282.39 171.584 282.39C171.21 282.39 170.866 282.456 170.55 282.588C170.235 282.713 169.96 282.9 169.725 283.149C169.491 283.391 169.307 283.688 169.175 284.04C169.043 284.385 168.977 284.777 168.977 285.217C168.977 285.584 169.032 285.943 169.142 286.295C169.26 286.64 169.432 286.951 169.659 287.23C169.894 287.501 170.187 287.721 170.539 287.89C170.899 288.051 171.32 288.132 171.804 288.132C172.274 288.132 172.706 288.051 173.102 287.89C173.498 287.721 173.843 287.483 174.136 287.175L173.784 286.823C173.63 286.955 173.484 287.076 173.344 287.186C173.212 287.296 173.077 287.388 172.937 287.461C172.798 287.534 172.651 287.593 172.497 287.637C172.351 287.674 172.186 287.692 172.002 287.692C171.797 287.692 171.577 287.663 171.342 287.604C171.115 287.538 170.902 287.424 170.704 287.263C170.506 287.102 170.341 286.878 170.209 286.592C170.077 286.306 170.011 285.939 170.011 285.492H174.191ZM170.011 285.052C170.011 284.759 170.041 284.476 170.099 284.205C170.165 283.926 170.261 283.681 170.385 283.468C170.517 283.255 170.682 283.087 170.88 282.962C171.078 282.83 171.313 282.764 171.584 282.764C172.105 282.764 172.508 282.969 172.794 283.38C173.088 283.783 173.234 284.341 173.234 285.052H170.011ZM178.781 282.5H178.121L176.449 286.647C176.412 286.728 176.372 286.823 176.328 286.933C176.284 287.036 176.232 287.135 176.174 287.23C176.115 287.325 176.045 287.406 175.965 287.472C175.891 287.531 175.811 287.56 175.723 287.56C175.62 287.56 175.514 287.531 175.404 287.472C175.294 287.413 175.206 287.355 175.14 287.296L174.964 287.879C175.132 288.04 175.371 288.121 175.679 288.121C175.818 288.121 175.943 288.099 176.053 288.055C176.163 288.018 176.265 287.949 176.361 287.846C176.456 287.736 176.548 287.597 176.636 287.428C176.731 287.252 176.83 287.032 176.933 286.768L178.198 283.589H178.264L180.024 288H181.014L178.781 282.5ZM182.112 282.5V288H185.005C185.203 288 185.397 287.967 185.588 287.901C185.786 287.835 185.958 287.74 186.105 287.615C186.252 287.483 186.369 287.329 186.457 287.153C186.552 286.97 186.6 286.764 186.6 286.537C186.6 286.163 186.516 285.873 186.347 285.668C186.186 285.463 185.988 285.312 185.753 285.217C185.518 285.114 185.273 285.052 185.016 285.03C184.759 285.008 184.543 284.997 184.367 284.997H183.047V282.5H182.112ZM183.047 287.56V285.371H184.312C184.378 285.371 184.481 285.378 184.62 285.393C184.759 285.408 184.899 285.455 185.038 285.536C185.185 285.609 185.313 285.727 185.423 285.888C185.533 286.042 185.588 286.262 185.588 286.548C185.588 286.893 185.478 287.149 185.258 287.318C185.045 287.479 184.796 287.56 184.51 287.56H183.047ZM189.736 282.819C189.919 282.819 190.11 282.848 190.308 282.907C190.513 282.966 190.7 283.076 190.869 283.237C191.045 283.391 191.188 283.611 191.298 283.897C191.408 284.183 191.467 284.55 191.474 284.997H189.318V285.393H191.474C191.474 285.466 191.467 285.573 191.452 285.712C191.445 285.851 191.423 286.009 191.386 286.185C191.349 286.354 191.291 286.53 191.21 286.713C191.137 286.889 191.034 287.05 190.902 287.197C190.777 287.336 190.616 287.454 190.418 287.549C190.227 287.644 189.993 287.692 189.714 287.692C189.465 287.692 189.245 287.655 189.054 287.582C188.863 287.509 188.695 287.417 188.548 287.307C188.409 287.19 188.291 287.065 188.196 286.933C188.101 286.794 188.024 286.665 187.965 286.548L187.481 287.032C187.811 287.457 188.163 287.747 188.537 287.901C188.911 288.048 189.318 288.121 189.758 288.121C189.985 288.121 190.213 288.103 190.44 288.066C190.667 288.029 190.887 287.96 191.1 287.857C191.261 287.776 191.426 287.666 191.595 287.527C191.764 287.388 191.918 287.212 192.057 286.999C192.196 286.779 192.306 286.526 192.387 286.24C192.475 285.947 192.519 285.609 192.519 285.228C192.519 284.788 192.457 284.392 192.332 284.04C192.207 283.688 192.028 283.391 191.793 283.149C191.558 282.9 191.272 282.709 190.935 282.577C190.605 282.445 190.231 282.379 189.813 282.379C189.446 282.379 189.124 282.427 188.845 282.522C188.574 282.61 188.343 282.724 188.152 282.863C187.961 283.002 187.815 283.156 187.712 283.325C187.617 283.494 187.565 283.655 187.558 283.809H188.372C188.394 283.596 188.456 283.428 188.559 283.303C188.662 283.171 188.779 283.068 188.911 282.995C189.05 282.922 189.193 282.874 189.34 282.852C189.487 282.83 189.619 282.819 189.736 282.819ZM195.49 288H196.425V282.94H198.625V282.5H193.29V282.94H195.49V288ZM201.753 282.379C202.288 282.379 202.703 282.456 202.996 282.61C203.289 282.757 203.502 282.951 203.634 283.193C203.773 283.435 203.854 283.714 203.876 284.029C203.898 284.344 203.909 284.667 203.909 284.997V288H203.018V287.461C202.805 287.666 202.534 287.831 202.204 287.956C201.874 288.073 201.544 288.132 201.214 288.132C200.899 288.132 200.62 288.077 200.378 287.967C200.136 287.857 199.934 287.714 199.773 287.538C199.612 287.362 199.491 287.164 199.41 286.944C199.329 286.724 199.289 286.5 199.289 286.273C199.289 286.038 199.333 285.804 199.421 285.569C199.509 285.334 199.641 285.125 199.817 284.942C199.993 284.751 200.209 284.597 200.466 284.48C200.723 284.363 201.016 284.304 201.346 284.304C201.676 284.304 201.988 284.37 202.281 284.502C202.582 284.627 202.827 284.806 203.018 285.041V284.568C203.018 283.967 202.926 283.519 202.743 283.226C202.567 282.933 202.241 282.786 201.764 282.786C201.559 282.786 201.379 282.812 201.225 282.863C201.071 282.914 200.932 282.988 200.807 283.083C200.69 283.171 200.58 283.285 200.477 283.424C200.374 283.556 200.272 283.706 200.169 283.875L199.597 283.303C199.7 283.193 199.806 283.083 199.916 282.973C200.033 282.863 200.173 282.764 200.334 282.676C200.503 282.588 200.701 282.518 200.928 282.467C201.155 282.408 201.43 282.379 201.753 282.379ZM203.018 285.822C202.981 285.734 202.926 285.631 202.853 285.514C202.787 285.397 202.699 285.283 202.589 285.173C202.479 285.063 202.347 284.971 202.193 284.898C202.039 284.817 201.856 284.777 201.643 284.777C201.43 284.777 201.236 284.821 201.06 284.909C200.884 284.99 200.734 285.1 200.609 285.239C200.492 285.371 200.4 285.529 200.334 285.712C200.268 285.895 200.235 286.086 200.235 286.284C200.235 286.519 200.275 286.724 200.356 286.9C200.444 287.069 200.554 287.215 200.686 287.34C200.818 287.457 200.965 287.545 201.126 287.604C201.287 287.663 201.441 287.692 201.588 287.692C201.727 287.692 201.867 287.666 202.006 287.615C202.153 287.564 202.288 287.494 202.413 287.406C202.545 287.311 202.662 287.201 202.765 287.076C202.868 286.951 202.952 286.816 203.018 286.669V285.822ZM206.297 282.5H205.626L207.793 284.832L206.407 286.746C206.341 286.841 206.26 286.937 206.165 287.032C206.077 287.127 205.981 287.215 205.879 287.296C205.783 287.369 205.688 287.432 205.593 287.483C205.497 287.534 205.406 287.56 205.318 287.56H205.01V288C205.105 288.029 205.215 288.059 205.34 288.088C205.464 288.117 205.593 288.132 205.725 288.132C206.018 288.132 206.275 288.04 206.495 287.857C206.715 287.666 206.909 287.454 207.078 287.219L208.376 285.426L208.97 286.064V288H209.905V286.064L210.499 285.426L211.797 287.219C211.965 287.454 212.16 287.666 212.38 287.857C212.6 288.04 212.856 288.132 213.15 288.132C213.282 288.132 213.41 288.117 213.535 288.088C213.659 288.059 213.769 288.029 213.865 288V287.56H213.557C213.469 287.56 213.373 287.534 213.271 287.483C213.175 287.432 213.076 287.369 212.974 287.296C212.878 287.215 212.787 287.127 212.699 287.032C212.611 286.937 212.534 286.841 212.468 286.746L211.082 284.832L213.249 282.5H212.578L209.905 285.338V282.5H208.97V285.338L206.297 282.5Z" fill="black"/>
</svg>
