<svg width="369" height="343" viewBox="0 0 369 343" fill="none" xmlns="http://www.w3.org/2000/svg">
<circle cx="2.5" cy="57.5" r="2.5" fill="#C83956"/>
<circle cx="2.5" cy="74.5" r="2.5" fill="#C83956"/>
<circle cx="2.5" cy="91.5" r="2.5" fill="#C83956"/>
<circle cx="2.5" cy="108.5" r="2.5" fill="#C83956"/>
<circle cx="2.5" cy="125.5" r="2.5" fill="#C83956"/>
<circle cx="52.5" cy="57.5" r="2.5" fill="#C83956"/>
<circle cx="245.5" cy="57.5" r="2.5" fill="#C83956"/>
<circle cx="52.5" cy="74.5" r="2.5" fill="#C83956"/>
<circle cx="245.5" cy="74.5" r="2.5" fill="#C83956"/>
<circle cx="52.5" cy="91.5" r="2.5" fill="#C83956"/>
<circle cx="245.5" cy="91.5" r="2.5" fill="#C83956"/>
<circle cx="52.5" cy="108.5" r="2.5" fill="#C83956"/>
<circle cx="245.5" cy="108.5" r="2.5" fill="#C83956"/>
<circle cx="52.5" cy="125.5" r="2.5" fill="#C83956"/>
<circle cx="245.5" cy="125.5" r="2.5" fill="#C83956"/>
<circle cx="52.5" cy="142.5" r="2.5" fill="#C83956"/>
<circle cx="245.5" cy="142.5" r="2.5" fill="#C83956"/>
<circle cx="52.5" cy="159.5" r="2.5" fill="#C83956"/>
<circle cx="245.5" cy="159.5" r="2.5" fill="#C83956"/>
<circle cx="52.5" cy="176.5" r="2.5" fill="#C83956"/>
<circle cx="245.5" cy="176.5" r="2.5" fill="#C83956"/>
<circle cx="52.5" cy="193.5" r="2.5" fill="#C83956"/>
<circle cx="245.5" cy="193.5" r="2.5" fill="#C83956"/>
<circle cx="52.5" cy="210.5" r="2.5" fill="#C83956"/>
<circle cx="245.5" cy="210.5" r="2.5" fill="#C83956"/>
<circle cx="52.5" cy="227.5" r="2.5" fill="#C83956"/>
<circle cx="245.5" cy="227.5" r="2.5" fill="#C83956"/>
<circle cx="52.5" cy="244.5" r="2.5" fill="#C83956"/>
<circle cx="245.5" cy="244.5" r="2.5" fill="#C83956"/>
<circle cx="52.5" cy="261.5" r="2.5" fill="#C83956"/>
<circle cx="245.5" cy="261.5" r="2.5" fill="#C83956"/>
<circle cx="52.5" cy="278.5" r="2.5" fill="#C83956"/>
<circle cx="245.5" cy="278.5" r="2.5" fill="#C83956"/>
<circle cx="52.5" cy="295.5" r="2.5" fill="#C83956"/>
<circle cx="245.5" cy="295.5" r="2.5" fill="#C83956"/>
<circle cx="52.5" cy="312.5" r="2.5" fill="#C83956"/>
<circle cx="245.5" cy="312.5" r="2.5" fill="#C83956"/>
<circle cx="52.5" cy="329.5" r="2.5" fill="#C83956"/>
<circle cx="245.5" cy="329.5" r="2.5" fill="#C83956"/>
<circle cx="103.5" cy="57.5" r="2.5" fill="#C83956"/>
<circle cx="296.5" cy="57.5" r="2.5" fill="#C83956"/>
<circle cx="103.5" cy="74.5" r="2.5" fill="#C83956"/>
<circle cx="296.5" cy="74.5" r="2.5" fill="#C83956"/>
<circle cx="103.5" cy="91.5" r="2.5" fill="#C83956"/>
<circle cx="296.5" cy="91.5" r="2.5" fill="#C83956"/>
<circle cx="103.5" cy="108.5" r="2.5" fill="#C83956"/>
<circle cx="296.5" cy="108.5" r="2.5" fill="#C83956"/>
<circle cx="103.5" cy="125.5" r="2.5" fill="#C83956"/>
<circle cx="296.5" cy="125.5" r="2.5" fill="#C83956"/>
<circle cx="103.5" cy="142.5" r="2.5" fill="#C83956"/>
<circle cx="296.5" cy="142.5" r="2.5" fill="#C83956"/>
<circle cx="103.5" cy="159.5" r="2.5" fill="#C83956"/>
<circle cx="296.5" cy="159.5" r="2.5" fill="#C83956"/>
<circle cx="103.5" cy="176.5" r="2.5" fill="#C83956"/>
<circle cx="296.5" cy="176.5" r="2.5" fill="#C83956"/>
<circle cx="103.5" cy="193.5" r="2.5" fill="#C83956"/>
<circle cx="296.5" cy="193.5" r="2.5" fill="#C83956"/>
<circle cx="103.5" cy="210.5" r="2.5" fill="#C83956"/>
<circle cx="296.5" cy="210.5" r="2.5" fill="#C83956"/>
<circle cx="103.5" cy="227.5" r="2.5" fill="#C83956"/>
<circle cx="296.5" cy="227.5" r="2.5" fill="#C83956"/>
<circle cx="103.5" cy="244.5" r="2.5" fill="#C83956"/>
<circle cx="296.5" cy="244.5" r="2.5" fill="#C83956"/>
<circle cx="103.5" cy="261.5" r="2.5" fill="#C83956"/>
<circle cx="296.5" cy="261.5" r="2.5" fill="#C83956"/>
<circle cx="103.5" cy="278.5" r="2.5" fill="#C83956"/>
<circle cx="296.5" cy="278.5" r="2.5" fill="#C83956"/>
<circle cx="103.5" cy="295.5" r="2.5" fill="#C83956"/>
<circle cx="296.5" cy="295.5" r="2.5" fill="#C83956"/>
<circle cx="103.5" cy="312.5" r="2.5" fill="#C83956"/>
<circle cx="296.5" cy="312.5" r="2.5" fill="#C83956"/>
<circle cx="103.5" cy="329.5" r="2.5" fill="#C83956"/>
<circle cx="296.5" cy="329.5" r="2.5" fill="#C83956"/>
<circle cx="19.5" cy="57.5" r="2.5" fill="#C83956"/>
<circle cx="19.5" cy="74.5" r="2.5" fill="#C83956"/>
<circle cx="19.5" cy="91.5" r="2.5" fill="#C83956"/>
<circle cx="19.5" cy="108.5" r="2.5" fill="#C83956"/>
<circle cx="19.5" cy="125.5" r="2.5" fill="#C83956"/>
<circle cx="69.5" cy="57.5" r="2.5" fill="#C83956"/>
<circle cx="262.5" cy="57.5" r="2.5" fill="#C83956"/>
<circle cx="69.5" cy="74.5" r="2.5" fill="#C83956"/>
<circle cx="262.5" cy="74.5" r="2.5" fill="#C83956"/>
<circle cx="69.5" cy="91.5" r="2.5" fill="#C83956"/>
<circle cx="262.5" cy="91.5" r="2.5" fill="#C83956"/>
<circle cx="69.5" cy="108.5" r="2.5" fill="#C83956"/>
<circle cx="262.5" cy="108.5" r="2.5" fill="#C83956"/>
<circle cx="69.5" cy="125.5" r="2.5" fill="#C83956"/>
<circle cx="262.5" cy="125.5" r="2.5" fill="#C83956"/>
<circle cx="69.5" cy="142.5" r="2.5" fill="#C83956"/>
<circle cx="262.5" cy="142.5" r="2.5" fill="#C83956"/>
<circle cx="69.5" cy="159.5" r="2.5" fill="#C83956"/>
<circle cx="262.5" cy="159.5" r="2.5" fill="#C83956"/>
<circle cx="69.5" cy="176.5" r="2.5" fill="#C83956"/>
<circle cx="262.5" cy="176.5" r="2.5" fill="#C83956"/>
<circle cx="69.5" cy="193.5" r="2.5" fill="#C83956"/>
<circle cx="262.5" cy="193.5" r="2.5" fill="#C83956"/>
<circle cx="69.5" cy="210.5" r="2.5" fill="#C83956"/>
<circle cx="262.5" cy="210.5" r="2.5" fill="#C83956"/>
<circle cx="69.5" cy="227.5" r="2.5" fill="#C83956"/>
<circle cx="262.5" cy="227.5" r="2.5" fill="#C83956"/>
<circle cx="69.5" cy="244.5" r="2.5" fill="#C83956"/>
<circle cx="262.5" cy="244.5" r="2.5" fill="#C83956"/>
<circle cx="69.5" cy="261.5" r="2.5" fill="#C83956"/>
<circle cx="262.5" cy="261.5" r="2.5" fill="#C83956"/>
<circle cx="69.5" cy="278.5" r="2.5" fill="#C83956"/>
<circle cx="262.5" cy="278.5" r="2.5" fill="#C83956"/>
<circle cx="69.5" cy="295.5" r="2.5" fill="#C83956"/>
<circle cx="262.5" cy="295.5" r="2.5" fill="#C83956"/>
<circle cx="69.5" cy="312.5" r="2.5" fill="#C83956"/>
<circle cx="262.5" cy="312.5" r="2.5" fill="#C83956"/>
<circle cx="69.5" cy="329.5" r="2.5" fill="#C83956"/>
<circle cx="262.5" cy="329.5" r="2.5" fill="#C83956"/>
<circle cx="120.5" cy="57.5" r="2.5" fill="#C83956"/>
<circle cx="312.5" cy="57.5" r="2.5" fill="#C83956"/>
<circle cx="120.5" cy="74.5" r="2.5" fill="#C83956"/>
<circle cx="312.5" cy="74.5" r="2.5" fill="#C83956"/>
<circle cx="120.5" cy="91.5" r="2.5" fill="#C83956"/>
<circle cx="312.5" cy="91.5" r="2.5" fill="#C83956"/>
<circle cx="120.5" cy="108.5" r="2.5" fill="#C83956"/>
<circle cx="312.5" cy="108.5" r="2.5" fill="#C83956"/>
<circle cx="120.5" cy="125.5" r="2.5" fill="#C83956"/>
<circle cx="312.5" cy="125.5" r="2.5" fill="#C83956"/>
<circle cx="120.5" cy="142.5" r="2.5" fill="#C83956"/>
<circle cx="312.5" cy="142.5" r="2.5" fill="#C83956"/>
<circle cx="120.5" cy="159.5" r="2.5" fill="#C83956"/>
<circle cx="312.5" cy="159.5" r="2.5" fill="#C83956"/>
<circle cx="120.5" cy="176.5" r="2.5" fill="#C83956"/>
<circle cx="312.5" cy="176.5" r="2.5" fill="#C83956"/>
<circle cx="120.5" cy="193.5" r="2.5" fill="#C83956"/>
<circle cx="312.5" cy="193.5" r="2.5" fill="#C83956"/>
<circle cx="120.5" cy="210.5" r="2.5" fill="#C83956"/>
<circle cx="312.5" cy="210.5" r="2.5" fill="#C83956"/>
<circle cx="120.5" cy="227.5" r="2.5" fill="#C83956"/>
<circle cx="312.5" cy="227.5" r="2.5" fill="#C83956"/>
<circle cx="120.5" cy="244.5" r="2.5" fill="#C83956"/>
<circle cx="312.5" cy="244.5" r="2.5" fill="#C83956"/>
<circle cx="120.5" cy="261.5" r="2.5" fill="#C83956"/>
<circle cx="312.5" cy="261.5" r="2.5" fill="#C83956"/>
<circle cx="120.5" cy="278.5" r="2.5" fill="#C83956"/>
<circle cx="312.5" cy="278.5" r="2.5" fill="#C83956"/>
<circle cx="120.5" cy="295.5" r="2.5" fill="#C83956"/>
<circle cx="312.5" cy="295.5" r="2.5" fill="#C83956"/>
<circle cx="120.5" cy="312.5" r="2.5" fill="#C83956"/>
<circle cx="312.5" cy="312.5" r="2.5" fill="#C83956"/>
<circle cx="120.5" cy="329.5" r="2.5" fill="#C83956"/>
<circle cx="312.5" cy="329.5" r="2.5" fill="#C83956"/>
<circle cx="152.5" cy="57.5" r="2.5" fill="#C83956"/>
<circle cx="345.5" cy="57.5" r="2.5" fill="#C83956"/>
<circle cx="152.5" cy="74.5" r="2.5" fill="#C83956"/>
<circle cx="345.5" cy="74.5" r="2.5" fill="#C83956"/>
<circle cx="152.5" cy="91.5" r="2.5" fill="#C83956"/>
<circle cx="345.5" cy="91.5" r="2.5" fill="#C83956"/>
<circle cx="152.5" cy="108.5" r="2.5" fill="#C83956"/>
<circle cx="345.5" cy="108.5" r="2.5" fill="#C83956"/>
<circle cx="152.5" cy="125.5" r="2.5" fill="#C83956"/>
<circle cx="345.5" cy="125.5" r="2.5" fill="#C83956"/>
<circle cx="152.5" cy="142.5" r="2.5" fill="#C83956"/>
<circle cx="345.5" cy="142.5" r="2.5" fill="#C83956"/>
<circle cx="152.5" cy="159.5" r="2.5" fill="#C83956"/>
<circle cx="345.5" cy="159.5" r="2.5" fill="#C83956"/>
<circle cx="152.5" cy="176.5" r="2.5" fill="#C83956"/>
<circle cx="345.5" cy="176.5" r="2.5" fill="#C83956"/>
<circle cx="152.5" cy="193.5" r="2.5" fill="#C83956"/>
<circle cx="345.5" cy="193.5" r="2.5" fill="#C83956"/>
<circle cx="152.5" cy="210.5" r="2.5" fill="#C83956"/>
<circle cx="345.5" cy="210.5" r="2.5" fill="#C83956"/>
<circle cx="152.5" cy="227.5" r="2.5" fill="#C83956"/>
<circle cx="345.5" cy="227.5" r="2.5" fill="#C83956"/>
<circle cx="152.5" cy="244.5" r="2.5" fill="#C83956"/>
<circle cx="345.5" cy="244.5" r="2.5" fill="#C83956"/>
<circle cx="152.5" cy="261.5" r="2.5" fill="#C83956"/>
<circle cx="345.5" cy="261.5" r="2.5" fill="#C83956"/>
<circle cx="152.5" cy="278.5" r="2.5" fill="#C83956"/>
<circle cx="345.5" cy="278.5" r="2.5" fill="#C83956"/>
<circle cx="152.5" cy="295.5" r="2.5" fill="#C83956"/>
<circle cx="345.5" cy="295.5" r="2.5" fill="#C83956"/>
<circle cx="152.5" cy="312.5" r="2.5" fill="#C83956"/>
<circle cx="345.5" cy="312.5" r="2.5" fill="#C83956"/>
<circle cx="152.5" cy="329.5" r="2.5" fill="#C83956"/>
<circle cx="345.5" cy="329.5" r="2.5" fill="#C83956"/>
<circle cx="35.5" cy="57.5" r="2.5" fill="#C83956"/>
<circle cx="228.5" cy="57.5" r="2.5" fill="#C83956"/>
<circle cx="35.5" cy="74.5" r="2.5" fill="#C83956"/>
<circle cx="228.5" cy="74.5" r="2.5" fill="#C83956"/>
<circle cx="35.5" cy="91.5" r="2.5" fill="#C83956"/>
<circle cx="228.5" cy="91.5" r="2.5" fill="#C83956"/>
<circle cx="35.5" cy="108.5" r="2.5" fill="#C83956"/>
<circle cx="228.5" cy="108.5" r="2.5" fill="#C83956"/>
<circle cx="35.5" cy="125.5" r="2.5" fill="#C83956"/>
<circle cx="228.5" cy="125.5" r="2.5" fill="#C83956"/>
<circle cx="35.5" cy="142.5" r="2.5" fill="#C83956"/>
<circle cx="228.5" cy="142.5" r="2.5" fill="#C83956"/>
<circle cx="35.5" cy="159.5" r="2.5" fill="#C83956"/>
<circle cx="228.5" cy="159.5" r="2.5" fill="#C83956"/>
<circle cx="35.5" cy="176.5" r="2.5" fill="#C83956"/>
<circle cx="228.5" cy="176.5" r="2.5" fill="#C83956"/>
<circle cx="35.5" cy="193.5" r="2.5" fill="#C83956"/>
<circle cx="228.5" cy="193.5" r="2.5" fill="#C83956"/>
<circle cx="35.5" cy="210.5" r="2.5" fill="#C83956"/>
<circle cx="228.5" cy="210.5" r="2.5" fill="#C83956"/>
<circle cx="35.5" cy="227.5" r="2.5" fill="#C83956"/>
<circle cx="228.5" cy="227.5" r="2.5" fill="#C83956"/>
<circle cx="35.5" cy="244.5" r="2.5" fill="#C83956"/>
<circle cx="228.5" cy="244.5" r="2.5" fill="#C83956"/>
<circle cx="35.5" cy="261.5" r="2.5" fill="#C83956"/>
<circle cx="228.5" cy="261.5" r="2.5" fill="#C83956"/>
<circle cx="35.5" cy="278.5" r="2.5" fill="#C83956"/>
<circle cx="228.5" cy="278.5" r="2.5" fill="#C83956"/>
<circle cx="35.5" cy="295.5" r="2.5" fill="#C83956"/>
<circle cx="228.5" cy="295.5" r="2.5" fill="#C83956"/>
<circle cx="35.5" cy="312.5" r="2.5" fill="#C83956"/>
<circle cx="228.5" cy="312.5" r="2.5" fill="#C83956"/>
<circle cx="35.5" cy="329.5" r="2.5" fill="#C83956"/>
<circle cx="228.5" cy="329.5" r="2.5" fill="#C83956"/>
<circle cx="87.5" cy="57.5" r="2.5" fill="#C83956"/>
<circle cx="280.5" cy="57.5" r="2.5" fill="#C83956"/>
<circle cx="87.5" cy="74.5" r="2.5" fill="#C83956"/>
<circle cx="280.5" cy="74.5" r="2.5" fill="#C83956"/>
<circle cx="87.5" cy="91.5" r="2.5" fill="#C83956"/>
<circle cx="280.5" cy="91.5" r="2.5" fill="#C83956"/>
<circle cx="87.5" cy="108.5" r="2.5" fill="#C83956"/>
<circle cx="280.5" cy="108.5" r="2.5" fill="#C83956"/>
<circle cx="87.5" cy="125.5" r="2.5" fill="#C83956"/>
<circle cx="280.5" cy="125.5" r="2.5" fill="#C83956"/>
<circle cx="87.5" cy="142.5" r="2.5" fill="#C83956"/>
<circle cx="280.5" cy="142.5" r="2.5" fill="#C83956"/>
<circle cx="87.5" cy="159.5" r="2.5" fill="#C83956"/>
<circle cx="280.5" cy="159.5" r="2.5" fill="#C83956"/>
<circle cx="87.5" cy="176.5" r="2.5" fill="#C83956"/>
<circle cx="280.5" cy="176.5" r="2.5" fill="#C83956"/>
<circle cx="87.5" cy="193.5" r="2.5" fill="#C83956"/>
<circle cx="280.5" cy="193.5" r="2.5" fill="#C83956"/>
<circle cx="87.5" cy="210.5" r="2.5" fill="#C83956"/>
<circle cx="280.5" cy="210.5" r="2.5" fill="#C83956"/>
<circle cx="87.5" cy="227.5" r="2.5" fill="#C83956"/>
<circle cx="280.5" cy="227.5" r="2.5" fill="#C83956"/>
<circle cx="87.5" cy="244.5" r="2.5" fill="#C83956"/>
<circle cx="280.5" cy="244.5" r="2.5" fill="#C83956"/>
<circle cx="87.5" cy="261.5" r="2.5" fill="#C83956"/>
<circle cx="280.5" cy="261.5" r="2.5" fill="#C83956"/>
<circle cx="87.5" cy="278.5" r="2.5" fill="#C83956"/>
<circle cx="280.5" cy="278.5" r="2.5" fill="#C83956"/>
<circle cx="87.5" cy="295.5" r="2.5" fill="#C83956"/>
<circle cx="280.5" cy="295.5" r="2.5" fill="#C83956"/>
<circle cx="87.5" cy="312.5" r="2.5" fill="#C83956"/>
<circle cx="280.5" cy="312.5" r="2.5" fill="#C83956"/>
<circle cx="87.5" cy="329.5" r="2.5" fill="#C83956"/>
<circle cx="280.5" cy="329.5" r="2.5" fill="#C83956"/>
<circle cx="137.5" cy="57.5" r="2.5" fill="#C83956"/>
<circle cx="329.5" cy="57.5" r="2.5" fill="#C83956"/>
<circle cx="137.5" cy="74.5" r="2.5" fill="#C83956"/>
<circle cx="329.5" cy="74.5" r="2.5" fill="#C83956"/>
<circle cx="137.5" cy="91.5" r="2.5" fill="#C83956"/>
<circle cx="329.5" cy="91.5" r="2.5" fill="#C83956"/>
<circle cx="137.5" cy="108.5" r="2.5" fill="#C83956"/>
<circle cx="329.5" cy="108.5" r="2.5" fill="#C83956"/>
<circle cx="137.5" cy="125.5" r="2.5" fill="#C83956"/>
<circle cx="329.5" cy="125.5" r="2.5" fill="#C83956"/>
<circle cx="137.5" cy="142.5" r="2.5" fill="#C83956"/>
<circle cx="329.5" cy="142.5" r="2.5" fill="#C83956"/>
<circle cx="137.5" cy="159.5" r="2.5" fill="#C83956"/>
<circle cx="329.5" cy="159.5" r="2.5" fill="#C83956"/>
<circle cx="137.5" cy="176.5" r="2.5" fill="#C83956"/>
<circle cx="329.5" cy="176.5" r="2.5" fill="#C83956"/>
<circle cx="137.5" cy="193.5" r="2.5" fill="#C83956"/>
<circle cx="329.5" cy="193.5" r="2.5" fill="#C83956"/>
<circle cx="137.5" cy="210.5" r="2.5" fill="#C83956"/>
<circle cx="329.5" cy="210.5" r="2.5" fill="#C83956"/>
<circle cx="137.5" cy="227.5" r="2.5" fill="#C83956"/>
<circle cx="329.5" cy="227.5" r="2.5" fill="#C83956"/>
<circle cx="137.5" cy="244.5" r="2.5" fill="#C83956"/>
<circle cx="329.5" cy="244.5" r="2.5" fill="#C83956"/>
<circle cx="137.5" cy="261.5" r="2.5" fill="#C83956"/>
<circle cx="329.5" cy="261.5" r="2.5" fill="#C83956"/>
<circle cx="137.5" cy="278.5" r="2.5" fill="#C83956"/>
<circle cx="329.5" cy="278.5" r="2.5" fill="#C83956"/>
<circle cx="137.5" cy="295.5" r="2.5" fill="#C83956"/>
<circle cx="329.5" cy="295.5" r="2.5" fill="#C83956"/>
<circle cx="137.5" cy="312.5" r="2.5" fill="#C83956"/>
<circle cx="329.5" cy="312.5" r="2.5" fill="#C83956"/>
<circle cx="137.5" cy="329.5" r="2.5" fill="#C83956"/>
<circle cx="329.5" cy="329.5" r="2.5" fill="#C83956"/>
<circle cx="170.5" cy="57.5" r="2.5" fill="#C83956"/>
<circle cx="362.5" cy="57.5" r="2.5" fill="#C83956"/>
<circle cx="170.5" cy="74.5" r="2.5" fill="#C83956"/>
<circle cx="362.5" cy="74.5" r="2.5" fill="#C83956"/>
<circle cx="170.5" cy="91.5" r="2.5" fill="#C83956"/>
<circle cx="362.5" cy="91.5" r="2.5" fill="#C83956"/>
<circle cx="170.5" cy="108.5" r="2.5" fill="#C83956"/>
<circle cx="362.5" cy="108.5" r="2.5" fill="#C83956"/>
<circle cx="170.5" cy="125.5" r="2.5" fill="#C83956"/>
<circle cx="362.5" cy="125.5" r="2.5" fill="#C83956"/>
<circle cx="170.5" cy="142.5" r="2.5" fill="#C83956"/>
<circle cx="362.5" cy="142.5" r="2.5" fill="#C83956"/>
<circle cx="170.5" cy="159.5" r="2.5" fill="#C83956"/>
<circle cx="362.5" cy="159.5" r="2.5" fill="#C83956"/>
<circle cx="170.5" cy="176.5" r="2.5" fill="#C83956"/>
<circle cx="362.5" cy="176.5" r="2.5" fill="#C83956"/>
<circle cx="170.5" cy="193.5" r="2.5" fill="#C83956"/>
<circle cx="362.5" cy="193.5" r="2.5" fill="#C83956"/>
<circle cx="170.5" cy="210.5" r="2.5" fill="#C83956"/>
<circle cx="362.5" cy="210.5" r="2.5" fill="#C83956"/>
<circle cx="170.5" cy="227.5" r="2.5" fill="#C83956"/>
<circle cx="362.5" cy="227.5" r="2.5" fill="#C83956"/>
<circle cx="170.5" cy="244.5" r="2.5" fill="#C83956"/>
<circle cx="362.5" cy="244.5" r="2.5" fill="#C83956"/>
<circle cx="170.5" cy="261.5" r="2.5" fill="#C83956"/>
<circle cx="362.5" cy="261.5" r="2.5" fill="#C83956"/>
<circle cx="170.5" cy="278.5" r="2.5" fill="#C83956"/>
<circle cx="362.5" cy="278.5" r="2.5" fill="#C83956"/>
<circle cx="170.5" cy="295.5" r="2.5" fill="#C83956"/>
<circle cx="362.5" cy="295.5" r="2.5" fill="#C83956"/>
<circle cx="170.5" cy="312.5" r="2.5" fill="#C83956"/>
<circle cx="362.5" cy="312.5" r="2.5" fill="#C83956"/>
<circle cx="170.5" cy="329.5" r="2.5" fill="#C83956"/>
<circle cx="362.5" cy="329.5" r="2.5" fill="#C83956"/>
<path d="M201.409 61H200.474V54.334L199.627 55.214L199.33 54.906L200.881 53.3H201.409V61Z" fill="black"/>
<path d="M202.654 78H197.594L199.673 75.679C199.856 75.459 200.051 75.2207 200.256 74.964C200.469 74.7073 200.663 74.436 200.839 74.15C201.015 73.864 201.162 73.567 201.279 73.259C201.396 72.951 201.455 72.6357 201.455 72.313C201.455 71.807 201.319 71.4037 201.048 71.103C200.784 70.8023 200.443 70.652 200.025 70.652C199.776 70.652 199.567 70.6997 199.398 70.795C199.237 70.8903 199.101 71.0187 198.991 71.18C198.888 71.334 198.811 71.5173 198.76 71.73C198.709 71.9353 198.672 72.1517 198.65 72.379H197.55C197.55 72.071 197.612 71.7813 197.737 71.51C197.862 71.2387 198.034 71.004 198.254 70.806C198.481 70.608 198.745 70.454 199.046 70.344C199.347 70.2267 199.673 70.168 200.025 70.168C200.421 70.168 200.777 70.2267 201.092 70.344C201.407 70.454 201.671 70.608 201.884 70.806C202.097 71.004 202.258 71.235 202.368 71.499C202.485 71.7557 202.544 72.027 202.544 72.313C202.544 72.6723 202.507 72.9803 202.434 73.237C202.368 73.4937 202.258 73.743 202.104 73.985C201.957 74.2197 201.763 74.469 201.521 74.733C201.286 74.997 201 75.3123 200.663 75.679L199.233 77.208H202.654V78Z" fill="black"/>
<path d="M199.651 90.666C199.805 90.666 199.981 90.6513 200.179 90.622C200.384 90.5853 200.575 90.5157 200.751 90.413C200.934 90.303 201.085 90.149 201.202 89.951C201.327 89.753 201.389 89.4927 201.389 89.17C201.389 88.972 201.36 88.785 201.301 88.609C201.25 88.4257 201.165 88.2643 201.048 88.125C200.938 87.9783 200.795 87.8647 200.619 87.784C200.443 87.696 200.234 87.652 199.992 87.652C199.838 87.652 199.691 87.6703 199.552 87.707C199.413 87.7437 199.288 87.8133 199.178 87.916C199.068 88.0113 198.976 88.147 198.903 88.323C198.83 88.499 198.778 88.7227 198.749 88.994H197.77C197.777 88.796 197.818 88.5907 197.891 88.378C197.972 88.158 198.1 87.96 198.276 87.784C198.452 87.6007 198.683 87.454 198.969 87.344C199.255 87.2267 199.614 87.168 200.047 87.168C200.443 87.168 200.784 87.2267 201.07 87.344C201.363 87.454 201.602 87.6043 201.785 87.795C201.976 87.9783 202.115 88.1947 202.203 88.444C202.291 88.6933 202.335 88.9537 202.335 89.225C202.335 89.6063 202.232 89.918 202.027 90.16C201.822 90.3947 201.51 90.6 201.092 90.776L200.971 90.82V90.897L201.092 90.919C201.334 90.9557 201.55 91.0363 201.741 91.161C201.932 91.2783 202.093 91.425 202.225 91.601C202.364 91.7697 202.471 91.9603 202.544 92.173C202.617 92.3783 202.654 92.5837 202.654 92.789C202.654 93.0823 202.595 93.3683 202.478 93.647C202.368 93.9257 202.199 94.175 201.972 94.395C201.745 94.6077 201.459 94.78 201.114 94.912C200.777 95.044 200.381 95.11 199.926 95.11C199.603 95.1173 199.299 95.0733 199.013 94.978C198.727 94.8827 198.474 94.7507 198.254 94.582C198.041 94.406 197.869 94.2043 197.737 93.977C197.612 93.7497 197.55 93.5113 197.55 93.262H198.65C198.657 93.438 198.694 93.6103 198.76 93.779C198.833 93.9477 198.929 94.0943 199.046 94.219C199.171 94.3437 199.317 94.4463 199.486 94.527C199.655 94.6003 199.845 94.637 200.058 94.637C200.498 94.637 200.854 94.4903 201.125 94.197C201.404 93.9037 201.543 93.449 201.543 92.833C201.543 92.701 201.528 92.5397 201.499 92.349C201.47 92.1583 201.393 91.975 201.268 91.799C201.151 91.6157 200.964 91.4617 200.707 91.337C200.45 91.2123 200.098 91.15 199.651 91.15V90.666Z" fill="black"/>
<path d="M201.532 109.569H202.577V110.152H201.532V112H200.641V110.152H197.33L201.125 104.3H201.532V109.569ZM198.188 109.569H200.641V105.774L198.188 109.569Z" fill="black"/>
<path d="M198.947 124.061C199.152 123.98 199.336 123.922 199.497 123.885C199.666 123.841 199.853 123.819 200.058 123.819C200.41 123.819 200.736 123.878 201.037 123.995C201.338 124.105 201.598 124.27 201.818 124.49C202.045 124.703 202.221 124.959 202.346 125.26C202.478 125.561 202.544 125.898 202.544 126.272C202.544 126.727 202.467 127.13 202.313 127.482C202.166 127.834 201.961 128.131 201.697 128.373C201.44 128.615 201.136 128.802 200.784 128.934C200.439 129.059 200.069 129.121 199.673 129.121C199.336 129.121 199.024 129.073 198.738 128.978C198.459 128.875 198.217 128.74 198.012 128.571C197.807 128.402 197.642 128.201 197.517 127.966C197.4 127.731 197.337 127.482 197.33 127.218H198.133C198.14 127.416 198.181 127.603 198.254 127.779C198.327 127.948 198.426 128.098 198.551 128.23C198.683 128.355 198.841 128.454 199.024 128.527C199.207 128.6 199.416 128.637 199.651 128.637C199.864 128.637 200.076 128.597 200.289 128.516C200.502 128.428 200.692 128.292 200.861 128.109C201.037 127.918 201.176 127.68 201.279 127.394C201.389 127.101 201.444 126.749 201.444 126.338C201.444 125.759 201.29 125.289 200.982 124.93C200.674 124.571 200.212 124.391 199.596 124.391C199.449 124.391 199.248 124.406 198.991 124.435C198.734 124.464 198.448 124.56 198.133 124.721L199.112 121.3H202.445L202.225 121.905H199.585L198.947 124.061Z" fill="black"/>
<path d="M202.39 139.466C202.361 139.239 202.287 139.044 202.17 138.883C202.053 138.714 201.906 138.579 201.73 138.476C201.554 138.373 201.356 138.296 201.136 138.245C200.916 138.194 200.685 138.168 200.443 138.168C199.937 138.168 199.508 138.282 199.156 138.509C198.804 138.729 198.514 139.026 198.287 139.4C198.067 139.767 197.906 140.188 197.803 140.665C197.708 141.142 197.66 141.629 197.66 142.128C197.66 142.597 197.693 143.07 197.759 143.547C197.825 144.016 197.95 144.442 198.133 144.823C198.324 145.204 198.588 145.516 198.925 145.758C199.27 146 199.713 146.121 200.256 146.121C200.63 146.121 200.971 146.051 201.279 145.912C201.587 145.773 201.851 145.582 202.071 145.34C202.291 145.098 202.463 144.816 202.588 144.493C202.713 144.17 202.775 143.826 202.775 143.459C202.775 143.019 202.705 142.641 202.566 142.326C202.427 142.011 202.247 141.75 202.027 141.545C201.807 141.34 201.558 141.189 201.279 141.094C201.008 140.991 200.736 140.94 200.465 140.94C200.01 140.94 199.644 141.032 199.365 141.215C199.094 141.398 198.896 141.615 198.771 141.864L198.639 142.117H198.595C198.595 141.604 198.617 141.134 198.661 140.709C198.712 140.284 198.804 139.921 198.936 139.62C199.068 139.312 199.251 139.074 199.486 138.905C199.721 138.736 200.021 138.652 200.388 138.652C200.667 138.652 200.905 138.725 201.103 138.872C201.301 139.011 201.422 139.209 201.466 139.466H202.39ZM198.705 143.536C198.705 143.155 198.753 142.832 198.848 142.568C198.943 142.297 199.064 142.08 199.211 141.919C199.365 141.75 199.534 141.629 199.717 141.556C199.9 141.475 200.084 141.435 200.267 141.435C200.428 141.435 200.597 141.468 200.773 141.534C200.949 141.6 201.11 141.714 201.257 141.875C201.404 142.036 201.521 142.253 201.609 142.524C201.704 142.795 201.752 143.133 201.752 143.536C201.752 143.976 201.701 144.335 201.598 144.614C201.495 144.885 201.367 145.098 201.213 145.252C201.059 145.406 200.894 145.509 200.718 145.56C200.549 145.611 200.395 145.637 200.256 145.637C200.08 145.637 199.897 145.6 199.706 145.527C199.523 145.446 199.358 145.322 199.211 145.153C199.064 144.977 198.943 144.757 198.848 144.493C198.753 144.229 198.705 143.91 198.705 143.536Z" fill="black"/>
<path d="M203.511 155.3H198.33V155.905H202.356L201.113 158.963H199.892V159.436H200.926L199.485 163H200.398L201.839 159.436H202.961V158.963H202.026L203.511 155.3Z" fill="black"/>
<path d="M199.398 175.853C199.141 175.824 198.918 175.75 198.727 175.633C198.544 175.516 198.386 175.376 198.254 175.215C198.129 175.046 198.034 174.867 197.968 174.676C197.909 174.485 197.88 174.295 197.88 174.104C197.88 173.899 197.92 173.682 198.001 173.455C198.082 173.228 198.214 173.019 198.397 172.828C198.58 172.637 198.819 172.48 199.112 172.355C199.405 172.23 199.768 172.168 200.201 172.168C200.626 172.168 200.986 172.23 201.279 172.355C201.58 172.48 201.822 172.637 202.005 172.828C202.188 173.019 202.32 173.228 202.401 173.455C202.489 173.682 202.533 173.899 202.533 174.104C202.533 174.295 202.5 174.485 202.434 174.676C202.375 174.867 202.28 175.046 202.148 175.215C202.023 175.376 201.866 175.516 201.675 175.633C201.492 175.75 201.275 175.824 201.026 175.853V175.908C201.297 175.923 201.539 175.992 201.752 176.117C201.972 176.234 202.155 176.388 202.302 176.579C202.456 176.762 202.573 176.968 202.654 177.195C202.735 177.422 202.775 177.65 202.775 177.877C202.775 178.148 202.72 178.42 202.61 178.691C202.507 178.955 202.35 179.193 202.137 179.406C201.924 179.619 201.657 179.791 201.334 179.923C201.011 180.055 200.634 180.121 200.201 180.121C199.768 180.121 199.391 180.055 199.068 179.923C198.753 179.791 198.489 179.619 198.276 179.406C198.071 179.193 197.917 178.955 197.814 178.691C197.711 178.42 197.66 178.148 197.66 177.877C197.66 177.65 197.7 177.422 197.781 177.195C197.862 176.968 197.975 176.762 198.122 176.579C198.269 176.388 198.448 176.234 198.661 176.117C198.881 175.992 199.127 175.923 199.398 175.908V175.853ZM200.201 175.721C200.384 175.721 200.56 175.692 200.729 175.633C200.905 175.567 201.059 175.472 201.191 175.347C201.33 175.215 201.44 175.057 201.521 174.874C201.602 174.683 201.642 174.46 201.642 174.203C201.642 173.895 201.591 173.642 201.488 173.444C201.393 173.239 201.272 173.081 201.125 172.971C200.978 172.854 200.821 172.773 200.652 172.729C200.491 172.678 200.34 172.652 200.201 172.652C200.062 172.652 199.911 172.678 199.75 172.729C199.589 172.773 199.435 172.854 199.288 172.971C199.149 173.081 199.031 173.239 198.936 173.444C198.841 173.642 198.793 173.895 198.793 174.203C198.793 174.46 198.833 174.683 198.914 174.874C198.995 175.057 199.101 175.215 199.233 175.347C199.365 175.472 199.515 175.567 199.684 175.633C199.853 175.692 200.025 175.721 200.201 175.721ZM200.201 176.106C199.981 176.106 199.779 176.15 199.596 176.238C199.413 176.319 199.255 176.436 199.123 176.59C198.998 176.737 198.899 176.913 198.826 177.118C198.76 177.316 198.727 177.532 198.727 177.767C198.727 178.339 198.859 178.794 199.123 179.131C199.394 179.468 199.754 179.637 200.201 179.637C200.663 179.637 201.03 179.468 201.301 179.131C201.572 178.794 201.708 178.339 201.708 177.767C201.708 177.532 201.671 177.316 201.598 177.118C201.532 176.913 201.433 176.737 201.301 176.59C201.169 176.436 201.008 176.319 200.817 176.238C200.634 176.15 200.428 176.106 200.201 176.106Z" fill="black"/>
<path d="M198.969 195.823C199.013 196.08 199.134 196.281 199.332 196.428C199.53 196.567 199.768 196.637 200.047 196.637C200.414 196.637 200.714 196.553 200.949 196.384C201.184 196.215 201.367 195.981 201.499 195.68C201.631 195.372 201.719 195.005 201.763 194.58C201.814 194.155 201.84 193.685 201.84 193.172H201.796L201.697 193.425C201.631 193.594 201.532 193.737 201.4 193.854C201.275 193.964 201.132 194.056 200.971 194.129C200.81 194.202 200.637 194.254 200.454 194.283C200.278 194.312 200.102 194.327 199.926 194.327C199.677 194.327 199.416 194.279 199.145 194.184C198.881 194.089 198.639 193.938 198.419 193.733C198.199 193.528 198.016 193.271 197.869 192.963C197.73 192.648 197.66 192.27 197.66 191.83C197.66 191.471 197.722 191.13 197.847 190.807C197.972 190.484 198.144 190.202 198.364 189.96C198.584 189.718 198.848 189.527 199.156 189.388C199.464 189.241 199.805 189.168 200.179 189.168C200.722 189.168 201.162 189.289 201.499 189.531C201.844 189.773 202.108 190.085 202.291 190.466C202.482 190.847 202.61 191.276 202.676 191.753C202.742 192.23 202.775 192.699 202.775 193.161C202.775 193.66 202.724 194.147 202.621 194.624C202.526 195.101 202.364 195.526 202.137 195.9C201.917 196.267 201.631 196.564 201.279 196.791C200.927 197.011 200.498 197.121 199.992 197.121C199.75 197.121 199.519 197.095 199.299 197.044C199.079 196.993 198.881 196.916 198.705 196.813C198.529 196.71 198.382 196.578 198.265 196.417C198.148 196.248 198.074 196.05 198.045 195.823H198.969ZM201.73 191.753C201.73 191.379 201.682 191.06 201.587 190.796C201.492 190.532 201.371 190.316 201.224 190.147C201.077 189.971 200.909 189.846 200.718 189.773C200.535 189.692 200.355 189.652 200.179 189.652C200.04 189.652 199.882 189.678 199.706 189.729C199.537 189.78 199.376 189.883 199.222 190.037C199.068 190.191 198.94 190.407 198.837 190.686C198.734 190.957 198.683 191.313 198.683 191.753C198.683 192.164 198.727 192.505 198.815 192.776C198.91 193.04 199.031 193.253 199.178 193.414C199.325 193.575 199.482 193.689 199.651 193.755C199.827 193.821 199.999 193.854 200.168 193.854C200.351 193.854 200.535 193.817 200.718 193.744C200.901 193.663 201.066 193.542 201.213 193.381C201.367 193.212 201.492 192.996 201.587 192.732C201.682 192.461 201.73 192.134 201.73 191.753Z" fill="black"/>
<path d="M197.409 214H196.474V207.334L195.627 208.214L195.33 207.906L196.881 206.3H197.409V214ZM199.173 210.172C199.173 209.959 199.187 209.714 199.217 209.435C199.253 209.149 199.308 208.859 199.382 208.566C199.462 208.265 199.565 207.972 199.69 207.686C199.822 207.4 199.983 207.147 200.174 206.927C200.364 206.7 200.592 206.516 200.856 206.377C201.12 206.238 201.428 206.168 201.78 206.168C202.132 206.168 202.44 206.238 202.704 206.377C202.975 206.516 203.206 206.7 203.397 206.927C203.595 207.147 203.76 207.4 203.892 207.686C204.024 207.972 204.126 208.265 204.2 208.566C204.28 208.859 204.335 209.149 204.365 209.435C204.401 209.714 204.42 209.959 204.42 210.172C204.42 210.634 204.368 211.1 204.266 211.569C204.163 212.031 204.002 212.453 203.782 212.834C203.569 213.215 203.294 213.527 202.957 213.769C202.627 214.004 202.234 214.121 201.78 214.121C201.325 214.121 200.933 214.004 200.603 213.769C200.28 213.527 200.012 213.215 199.8 212.834C199.587 212.453 199.429 212.031 199.327 211.569C199.224 211.1 199.173 210.634 199.173 210.172ZM200.273 210.172C200.273 210.546 200.287 210.938 200.317 211.349C200.346 211.76 200.412 212.134 200.515 212.471C200.625 212.808 200.779 213.087 200.977 213.307C201.175 213.527 201.442 213.637 201.78 213.637C202.124 213.637 202.399 213.527 202.605 213.307C202.81 213.087 202.964 212.808 203.067 212.471C203.177 212.134 203.246 211.76 203.276 211.349C203.305 210.938 203.32 210.546 203.32 210.172C203.32 209.791 203.305 209.391 203.276 208.973C203.246 208.555 203.177 208.177 203.067 207.84C202.964 207.495 202.81 207.213 202.605 206.993C202.399 206.766 202.124 206.652 201.78 206.652C201.442 206.652 201.175 206.766 200.977 206.993C200.779 207.213 200.625 207.495 200.515 207.84C200.412 208.177 200.346 208.555 200.317 208.973C200.287 209.391 200.273 209.791 200.273 210.172Z" fill="black"/>
<path d="M199.409 231H198.474V224.334L197.627 225.214L197.33 224.906L198.881 223.3H199.409V231ZM202.922 231H201.987V224.334L201.14 225.214L200.843 224.906L202.394 223.3H202.922V231Z" fill="black"/>
<path d="M197.409 248H196.474V241.334L195.627 242.214L195.33 241.906L196.881 240.3H197.409V248ZM204.167 248H199.107L201.186 245.679C201.369 245.459 201.563 245.221 201.769 244.964C201.981 244.707 202.176 244.436 202.352 244.15C202.528 243.864 202.674 243.567 202.792 243.259C202.909 242.951 202.968 242.636 202.968 242.313C202.968 241.807 202.832 241.404 202.561 241.103C202.297 240.802 201.956 240.652 201.538 240.652C201.288 240.652 201.079 240.7 200.911 240.795C200.749 240.89 200.614 241.019 200.504 241.18C200.401 241.334 200.324 241.517 200.273 241.73C200.221 241.935 200.185 242.152 200.163 242.379H199.063C199.063 242.071 199.125 241.781 199.25 241.51C199.374 241.239 199.547 241.004 199.767 240.806C199.994 240.608 200.258 240.454 200.559 240.344C200.859 240.227 201.186 240.168 201.538 240.168C201.934 240.168 202.289 240.227 202.605 240.344C202.92 240.454 203.184 240.608 203.397 240.806C203.609 241.004 203.771 241.235 203.881 241.499C203.998 241.756 204.057 242.027 204.057 242.313C204.057 242.672 204.02 242.98 203.947 243.237C203.881 243.494 203.771 243.743 203.617 243.985C203.47 244.22 203.276 244.469 203.034 244.733C202.799 244.997 202.513 245.312 202.176 245.679L200.746 247.208H204.167V248Z" fill="black"/>
<path d="M197.409 265H196.474V258.334L195.627 259.214L195.33 258.906L196.881 257.3H197.409V265ZM201.164 260.666C201.318 260.666 201.494 260.651 201.692 260.622C201.897 260.585 202.088 260.516 202.264 260.413C202.447 260.303 202.597 260.149 202.715 259.951C202.839 259.753 202.902 259.493 202.902 259.17C202.902 258.972 202.872 258.785 202.814 258.609C202.762 258.426 202.678 258.264 202.561 258.125C202.451 257.978 202.308 257.865 202.132 257.784C201.956 257.696 201.747 257.652 201.505 257.652C201.351 257.652 201.204 257.67 201.065 257.707C200.925 257.744 200.801 257.813 200.691 257.916C200.581 258.011 200.489 258.147 200.416 258.323C200.342 258.499 200.291 258.723 200.262 258.994H199.283C199.29 258.796 199.33 258.591 199.404 258.378C199.484 258.158 199.613 257.96 199.789 257.784C199.965 257.601 200.196 257.454 200.482 257.344C200.768 257.227 201.127 257.168 201.56 257.168C201.956 257.168 202.297 257.227 202.583 257.344C202.876 257.454 203.114 257.604 203.298 257.795C203.488 257.978 203.628 258.195 203.716 258.444C203.804 258.693 203.848 258.954 203.848 259.225C203.848 259.606 203.745 259.918 203.54 260.16C203.334 260.395 203.023 260.6 202.605 260.776L202.484 260.82V260.897L202.605 260.919C202.847 260.956 203.063 261.036 203.254 261.161C203.444 261.278 203.606 261.425 203.738 261.601C203.877 261.77 203.983 261.96 204.057 262.173C204.13 262.378 204.167 262.584 204.167 262.789C204.167 263.082 204.108 263.368 203.991 263.647C203.881 263.926 203.712 264.175 203.485 264.395C203.257 264.608 202.971 264.78 202.627 264.912C202.289 265.044 201.893 265.11 201.439 265.11C201.116 265.117 200.812 265.073 200.526 264.978C200.24 264.883 199.987 264.751 199.767 264.582C199.554 264.406 199.382 264.204 199.25 263.977C199.125 263.75 199.063 263.511 199.063 263.262H200.163C200.17 263.438 200.207 263.61 200.273 263.779C200.346 263.948 200.441 264.094 200.559 264.219C200.683 264.344 200.83 264.446 200.999 264.527C201.167 264.6 201.358 264.637 201.571 264.637C202.011 264.637 202.366 264.49 202.638 264.197C202.916 263.904 203.056 263.449 203.056 262.833C203.056 262.701 203.041 262.54 203.012 262.349C202.982 262.158 202.905 261.975 202.781 261.799C202.663 261.616 202.476 261.462 202.22 261.337C201.963 261.212 201.611 261.15 201.164 261.15V260.666Z" fill="black"/>
<path d="M197.409 282H196.474V275.334L195.627 276.214L195.33 275.906L196.881 274.3H197.409V282ZM203.045 279.569H204.09V280.152H203.045V282H202.154V280.152H198.843L202.638 274.3H203.045V279.569ZM199.701 279.569H202.154V275.774L199.701 279.569Z" fill="black"/>
<path d="M197.409 299H196.474V292.334L195.627 293.214L195.33 292.906L196.881 291.3H197.409V299ZM200.46 294.061C200.665 293.98 200.848 293.922 201.01 293.885C201.178 293.841 201.365 293.819 201.571 293.819C201.923 293.819 202.249 293.878 202.55 293.995C202.85 294.105 203.111 294.27 203.331 294.49C203.558 294.703 203.734 294.959 203.859 295.26C203.991 295.561 204.057 295.898 204.057 296.272C204.057 296.727 203.98 297.13 203.826 297.482C203.679 297.834 203.474 298.131 203.21 298.373C202.953 298.615 202.649 298.802 202.297 298.934C201.952 299.059 201.582 299.121 201.186 299.121C200.848 299.121 200.537 299.073 200.251 298.978C199.972 298.875 199.73 298.74 199.525 298.571C199.319 298.402 199.154 298.201 199.03 297.966C198.912 297.731 198.85 297.482 198.843 297.218H199.646C199.653 297.416 199.693 297.603 199.767 297.779C199.84 297.948 199.939 298.098 200.064 298.23C200.196 298.355 200.353 298.454 200.537 298.527C200.72 298.6 200.929 298.637 201.164 298.637C201.376 298.637 201.589 298.597 201.802 298.516C202.014 298.428 202.205 298.292 202.374 298.109C202.55 297.918 202.689 297.68 202.792 297.394C202.902 297.101 202.957 296.749 202.957 296.338C202.957 295.759 202.803 295.289 202.495 294.93C202.187 294.571 201.725 294.391 201.109 294.391C200.962 294.391 200.76 294.406 200.504 294.435C200.247 294.464 199.961 294.56 199.646 294.721L200.625 291.3H203.958L203.738 291.905H201.098L200.46 294.061Z" fill="black"/>
<path d="M197.409 316H196.474V309.334L195.627 310.214L195.33 309.906L196.881 308.3H197.409V316ZM203.903 309.466C203.873 309.239 203.8 309.044 203.683 308.883C203.565 308.714 203.419 308.579 203.243 308.476C203.067 308.373 202.869 308.296 202.649 308.245C202.429 308.194 202.198 308.168 201.956 308.168C201.45 308.168 201.021 308.282 200.669 308.509C200.317 308.729 200.027 309.026 199.8 309.4C199.58 309.767 199.418 310.188 199.316 310.665C199.22 311.142 199.173 311.629 199.173 312.128C199.173 312.597 199.206 313.07 199.272 313.547C199.338 314.016 199.462 314.442 199.646 314.823C199.836 315.204 200.1 315.516 200.438 315.758C200.782 316 201.226 316.121 201.769 316.121C202.143 316.121 202.484 316.051 202.792 315.912C203.1 315.773 203.364 315.582 203.584 315.34C203.804 315.098 203.976 314.816 204.101 314.493C204.225 314.17 204.288 313.826 204.288 313.459C204.288 313.019 204.218 312.641 204.079 312.326C203.939 312.011 203.76 311.75 203.54 311.545C203.32 311.34 203.07 311.189 202.792 311.094C202.52 310.991 202.249 310.94 201.978 310.94C201.523 310.94 201.156 311.032 200.878 311.215C200.606 311.398 200.408 311.615 200.284 311.864L200.152 312.117H200.108C200.108 311.604 200.13 311.134 200.174 310.709C200.225 310.284 200.317 309.921 200.449 309.62C200.581 309.312 200.764 309.074 200.999 308.905C201.233 308.736 201.534 308.652 201.901 308.652C202.179 308.652 202.418 308.725 202.616 308.872C202.814 309.011 202.935 309.209 202.979 309.466H203.903ZM200.218 313.536C200.218 313.155 200.265 312.832 200.361 312.568C200.456 312.297 200.577 312.08 200.724 311.919C200.878 311.75 201.046 311.629 201.23 311.556C201.413 311.475 201.596 311.435 201.78 311.435C201.941 311.435 202.11 311.468 202.286 311.534C202.462 311.6 202.623 311.714 202.77 311.875C202.916 312.036 203.034 312.253 203.122 312.524C203.217 312.795 203.265 313.133 203.265 313.536C203.265 313.976 203.213 314.335 203.111 314.614C203.008 314.885 202.88 315.098 202.726 315.252C202.572 315.406 202.407 315.509 202.231 315.56C202.062 315.611 201.908 315.637 201.769 315.637C201.593 315.637 201.409 315.6 201.219 315.527C201.035 315.446 200.87 315.322 200.724 315.153C200.577 314.977 200.456 314.757 200.361 314.493C200.265 314.229 200.218 313.91 200.218 313.536Z" fill="black"/>
<path d="M197.409 333H196.474V326.334L195.627 327.214L195.33 326.906L196.881 325.3H197.409V333ZM204.024 325.3H198.843V325.905H202.869L201.626 328.963H200.405V329.436H201.439L199.998 333H200.911L202.352 329.436H203.474V328.963H202.539L204.024 325.3Z" fill="black"/>
<path d="M31 13C122.951 32.5387 259.958 36.0556 368 13" stroke="#C83956" stroke-width="4"/>
<path d="M191.071 15.581C190.323 16.285 189.436 16.637 188.409 16.637C187.837 16.637 187.331 16.538 186.891 16.34C186.451 16.142 186.084 15.878 185.791 15.548C185.498 15.218 185.274 14.8367 185.12 14.404C184.973 13.9713 184.9 13.5203 184.9 13.051C184.9 12.5523 184.977 12.0977 185.131 11.687C185.292 11.269 185.516 10.9097 185.802 10.609C186.088 10.3083 186.425 10.0737 186.814 9.905C187.21 9.73633 187.639 9.652 188.101 9.652C188.416 9.652 188.702 9.68867 188.959 9.762C189.223 9.83533 189.454 9.93067 189.652 10.048C189.857 10.1653 190.022 10.301 190.147 10.455C190.279 10.6017 190.371 10.752 190.422 10.906H191.236C191.126 10.6567 190.983 10.4257 190.807 10.213C190.638 10.0003 190.426 9.817 190.169 9.663C189.912 9.509 189.612 9.388 189.267 9.3C188.922 9.212 188.53 9.168 188.09 9.168C187.452 9.168 186.869 9.25967 186.341 9.443C185.82 9.62633 185.373 9.89033 184.999 10.235C184.625 10.5723 184.335 10.983 184.13 11.467C183.925 11.9437 183.822 12.479 183.822 13.073C183.822 13.5863 183.903 14.0887 184.064 14.58C184.233 15.064 184.489 15.4967 184.834 15.878C185.179 16.252 185.619 16.5563 186.154 16.791C186.689 17.0183 187.327 17.132 188.068 17.132C188.537 17.132 188.955 17.088 189.322 17C189.696 16.912 190.019 16.8057 190.29 16.681C190.569 16.549 190.8 16.4097 190.983 16.263C191.166 16.1163 191.306 15.988 191.401 15.878L191.071 15.581ZM193.549 16.56V11.5H192.614V17H197.311V18.155H198.081V16.56H197.091V11.5H196.156V16.56H193.549ZM203.954 14.492V14.261C203.954 13.7697 203.884 13.3443 203.745 12.985C203.606 12.6257 203.415 12.3287 203.173 12.094C202.938 11.8593 202.663 11.6833 202.348 11.566C202.033 11.4487 201.699 11.39 201.347 11.39C200.973 11.39 200.628 11.456 200.313 11.588C199.998 11.7127 199.723 11.8997 199.488 12.149C199.253 12.391 199.07 12.688 198.938 13.04C198.806 13.3847 198.74 13.777 198.74 14.217C198.74 14.5837 198.795 14.943 198.905 15.295C199.022 15.6397 199.195 15.9513 199.422 16.23C199.657 16.5013 199.95 16.7213 200.302 16.89C200.661 17.0513 201.083 17.132 201.567 17.132C202.036 17.132 202.469 17.0513 202.865 16.89C203.261 16.7213 203.606 16.483 203.899 16.175L203.547 15.823C203.393 15.955 203.246 16.076 203.107 16.186C202.975 16.296 202.839 16.3877 202.7 16.461C202.561 16.5343 202.414 16.593 202.26 16.637C202.113 16.6737 201.948 16.692 201.765 16.692C201.56 16.692 201.34 16.6627 201.105 16.604C200.878 16.538 200.665 16.4243 200.467 16.263C200.269 16.1017 200.104 15.878 199.972 15.592C199.84 15.306 199.774 14.9393 199.774 14.492H203.954ZM199.774 14.052C199.774 13.7587 199.803 13.4763 199.862 13.205C199.928 12.9263 200.023 12.6807 200.148 12.468C200.28 12.2553 200.445 12.0867 200.643 11.962C200.841 11.83 201.076 11.764 201.347 11.764C201.868 11.764 202.271 11.9693 202.557 12.38C202.85 12.7833 202.997 13.3407 202.997 14.052H199.774ZM206.321 14.371H209.104V17H210.039V11.5H209.104V13.997H206.321V11.5H205.386V17H206.321V14.371ZM213.823 11.379C214.359 11.379 214.773 11.456 215.066 11.61C215.36 11.7567 215.572 11.951 215.704 12.193C215.844 12.435 215.924 12.7137 215.946 13.029C215.968 13.3443 215.979 13.667 215.979 13.997V17H215.088V16.461C214.876 16.6663 214.604 16.8313 214.274 16.956C213.944 17.0733 213.614 17.132 213.284 17.132C212.969 17.132 212.69 17.077 212.448 16.967C212.206 16.857 212.005 16.714 211.843 16.538C211.682 16.362 211.561 16.164 211.48 15.944C211.4 15.724 211.359 15.5003 211.359 15.273C211.359 15.0383 211.403 14.8037 211.491 14.569C211.579 14.3343 211.711 14.1253 211.887 13.942C212.063 13.7513 212.28 13.5973 212.536 13.48C212.793 13.3627 213.086 13.304 213.416 13.304C213.746 13.304 214.058 13.37 214.351 13.502C214.652 13.6267 214.898 13.8063 215.088 14.041V13.568C215.088 12.9667 214.997 12.5193 214.813 12.226C214.637 11.9327 214.311 11.786 213.834 11.786C213.629 11.786 213.449 11.8117 213.295 11.863C213.141 11.9143 213.002 11.9877 212.877 12.083C212.76 12.171 212.65 12.2847 212.547 12.424C212.445 12.556 212.342 12.7063 212.239 12.875L211.667 12.303C211.77 12.193 211.876 12.083 211.986 11.973C212.104 11.863 212.243 11.764 212.404 11.676C212.573 11.588 212.771 11.5183 212.998 11.467C213.226 11.4083 213.501 11.379 213.823 11.379ZM215.088 14.822C215.052 14.734 214.997 14.6313 214.923 14.514C214.857 14.3967 214.769 14.283 214.659 14.173C214.549 14.063 214.417 13.9713 214.263 13.898C214.109 13.8173 213.926 13.777 213.713 13.777C213.501 13.777 213.306 13.821 213.13 13.909C212.954 13.9897 212.804 14.0997 212.679 14.239C212.562 14.371 212.47 14.5287 212.404 14.712C212.338 14.8953 212.305 15.086 212.305 15.284C212.305 15.5187 212.346 15.724 212.426 15.9C212.514 16.0687 212.624 16.2153 212.756 16.34C212.888 16.4573 213.035 16.5453 213.196 16.604C213.358 16.6627 213.512 16.692 213.658 16.692C213.798 16.692 213.937 16.6663 214.076 16.615C214.223 16.5637 214.359 16.494 214.483 16.406C214.615 16.3107 214.733 16.2007 214.835 16.076C214.938 15.9513 215.022 15.8157 215.088 15.669V14.822Z" fill="black"/>
</svg>
